# This file uses centimeters as units for non-parametric coordinates.

g default
v 24.857209 48.497271 -47.473272
v 24.316259 32.456865 -45.263937
v 32.682581 48.672850 -19.586724
v 31.353069 31.971896 -20.289544
v 24.244002 27.057655 -44.930151
v 24.152347 21.301475 -44.650399
v 31.366309 26.710567 -20.038504
v 31.379911 21.301475 -19.780400
v 28.113930 21.301475 -33.790769
v 26.053524 21.301475 -39.438823
v -8.201331 32.146605 -18.609886
v -2.503062 7.105004 -11.983027
v -2.413501 4.828381 -11.560131
v -2.105443 -0.122246 -10.373202
v -2.964977 -0.212036 -7.840368
v 1.296467 -0.122246 2.022295
v 6.274766 -0.122246 10.842236
v 5.669548 6.772284 9.147039
v 5.015388 13.349314 7.465549
v 3.017278 33.906394 2.692270
v 46.574022 48.497271 -41.654269
v 45.985456 32.456865 -39.457693
v 40.126731 48.672850 -17.592070
v 40.213374 31.971892 -17.915447
v 45.897174 27.057655 -39.128201
v 45.821096 21.301479 -38.844290
v 40.151488 26.710566 -17.684522
v 40.087883 21.301479 -17.447106
v 43.371621 21.301479 -29.702483
v 44.645585 21.301479 -34.457096
v 85.932219 41.829192 -12.037441
v 86.854052 29.969313 -13.589300
v 79.678545 41.912437 5.107394
v 79.678545 29.606820 5.107394
v 85.967432 23.681414 -14.849879
v 84.889473 18.272656 -13.589301
v 79.807032 23.334325 5.037579
v 79.678545 18.272656 5.107394
v 81.994499 18.272656 -4.490765
v 84.557153 17.887754 -10.517787
v 4.030648 24.044323 4.980970
v 31.884537 38.648073 -20.008577
v 40.178740 38.648066 -17.786152
v 79.796845 35.271835 4.943288
v 61.054315 48.497271 -23.196845
v 60.465749 32.456865 -21.000269
v 60.377462 27.057655 -20.670777
v 60.301385 21.301479 -20.386852
v 59.125874 21.301479 -15.999673
v 57.851902 21.301479 -11.245033
v 54.568171 21.301479 1.010317
v 54.631785 26.710566 0.772904
v 54.693658 31.971896 0.541975
v 54.659035 38.648073 0.671244
v 54.607027 48.672850 0.865340
v 53.847508 48.497271 -32.383086
v 53.258929 32.456865 -30.186498
v 53.170647 27.057655 -29.857006
v 53.094565 21.301479 -29.573082
v 51.919063 21.301479 -25.185900
v 50.645104 21.301479 -20.431271
v 47.361357 21.301479 -8.175896
v 47.424975 26.710566 -8.413324
v 47.486847 31.971896 -8.644252
v 47.452225 38.648070 -8.514983
v 47.400200 48.672850 -8.320862
v 57.217180 48.497271 -28.087859
v 50.769895 48.672850 -4.025702
v 50.821903 38.648073 -4.219799
v 50.856532 31.971896 -4.349036
v 50.794655 26.710566 -4.118109
v 50.731044 21.301479 -3.880709
v 54.014793 21.301479 -16.136069
v 55.288741 21.301479 -20.890715
v 56.464249 21.301479 -25.277881
v 56.540322 27.057655 -25.561793
v 56.628613 32.456865 -25.891297
v 50.640031 48.497271 -36.471485
v 50.051460 32.456865 -34.274924
v 49.963178 27.057655 -33.945432
v 49.887096 21.301479 -33.661493
v 48.711588 21.301479 -29.274342
v 47.437633 21.301479 -24.519727
v 44.153881 21.301479 -12.264338
v 44.217496 26.710566 -12.501752
v 44.279374 31.971896 -12.732665
v 44.244750 38.648066 -12.603411
v 44.192738 48.672850 -12.409315
v 35.194019 48.497271 -44.703532
v 34.630410 32.456865 -42.500283
v 34.550519 27.057655 -42.168528
v 34.466279 21.301477 -41.886804
v 34.903010 21.301477 -37.067611
v 35.376318 21.301477 -31.844833
v 35.524743 21.301477 -18.669795
v 35.547902 26.710566 -18.918064
v 35.570413 31.971896 -19.159510
v 35.832429 38.648070 -18.950757
v 36.225869 48.672850 -18.637332
v 20.232990 45.812492 -42.879155
v 19.692035 29.772084 -40.669792
v 19.619784 24.372876 -40.336048
v 19.528129 18.616695 -40.056268
v 21.429310 16.403135 -33.907687
v 23.489714 16.403135 -28.259618
v 26.755690 16.403135 -14.249236
v 26.742084 21.812228 -14.507340
v 26.728850 29.287117 -15.695413
v 27.260324 35.963294 -15.414473
v 28.058364 45.988074 -14.992607
v 9.764963 39.734851 -32.479258
v 9.224004 21.480886 -29.332862
v 9.151748 16.081678 -28.999090
v 9.060097 10.325496 -28.719352
v 10.961278 10.325496 -23.507790
v 13.021681 10.325496 -17.859707
v 16.287654 10.325495 -3.849340
v 16.274055 15.734588 -4.107443
v 16.260816 20.995917 -4.358498
v 16.792291 29.885648 -5.014577
v 17.590332 39.910433 -4.592711
v -0.296048 33.893522 -22.483730
v -0.837003 15.639556 -19.337348
v -0.909266 10.240352 -19.003563
v -1.000907 4.484171 -18.723823
v 0.900267 4.484171 -13.512263
v 2.960675 4.484171 -7.864193
v 6.226649 6.697730 5.209156
v 6.213041 12.106823 4.951065
v 6.199807 17.368149 4.700012
v 6.731279 24.044323 4.980965
v 7.529321 34.069105 5.402817
v 86.902632 33.495284 -13.648268
v 60.593254 35.931744 -21.476124
v 56.756114 35.931744 -26.367139
v 53.386434 35.931744 -30.662354
v 50.178961 35.931744 -34.750766
v 46.112959 35.931744 -39.933549
v 34.752504 35.931744 -42.977574
v 24.433447 35.931744 -45.742557
v 19.809223 33.246965 -41.148412
v 9.341196 25.435296 -30.014486
v -0.719815 19.593968 -20.018959
v -3.461923 13.174813 -13.589303
v 86.854052 41.912437 -13.589300
v 60.866510 43.378778 -22.495930
v 57.029367 43.378778 -27.386931
v 53.659695 43.378778 -31.682158
v 50.452222 43.378778 -35.770570
v 46.386215 43.378778 -40.953355
v 35.014176 43.378778 -44.000484
v 24.684596 43.378778 -46.768286
v 20.060373 40.693999 -42.174156
v 9.592346 33.910014 -31.475253
v -0.468665 28.068686 -21.479726
v -6.414301 25.386365 -17.265562
v -1.604338 33.020064 -20.925798
v -7.336511 28.727191 -17.774402
v 0.178129 34.695898 -5.139173
vt 0.045756 0.631192
vt 0.243807 0.283508
vt 0.281067 0.315335
vt 0.000000 0.613712
vt 0.574672 0.675227
vt 0.622762 0.665899
vt 0.548741 0.788783
vt 0.559123 0.743411
vt 0.607210 0.734093
vt 0.596833 0.779519
vt 0.253598 0.247234
vt 0.290842 0.279058
vt 0.264346 0.208684
vt 0.301572 0.240497
vt 0.532635 0.838772
vt 0.588403 0.815162
vt 0.743794 0.547221
vt 0.796621 0.577175
vt 0.740061 0.688220
vt 0.744226 0.646900
vt 0.796509 0.677617
vt 0.791467 0.719532
vt 0.768067 0.246535
vt 0.804939 0.425823
vt 0.886580 0.423338
vt 0.827334 0.190071
vt 0.926411 0.334744
vt 0.364619 0.048698
vt 0.245199 0.066728
vt 0.288261 0.049325
vt 0.301295 0.077742
vt 0.259123 0.097085
vt 0.803855 0.388250
vt 0.885436 0.385767
vt 0.067837 0.426562
vt 0.884218 0.345739
vt 0.212055 0.082241
vt 0.225861 0.112341
vt 0.177980 0.098190
vt 0.052538 0.252992
vt 0.060381 0.393778
vt 0.052300 0.358248
vt 0.100539 0.326933
vt 0.119161 0.355619
vt 0.509662 0.409492
vt 0.447021 0.153979
vt 0.620267 0.073571
vt 0.650701 0.164022
vt 0.805142 0.000029
vt 0.297991 0.522227
vt 0.815170 0.115890
vt 0.811123 0.069516
vt 0.989677 0.076931
vt 0.992664 0.116133
vt 0.434109 0.118748
vt 0.597498 0.034745
vt 0.420119 0.081265
vt 0.871558 0.962199
vt 0.818670 0.152437
vt 0.997519 0.159418
vt 0.767987 0.751423
vt 1.000000 0.194513
vt 0.719610 0.863812
vt 0.733132 0.832397
vt 0.895041 0.899994
vt 0.883317 0.944043
vt 0.578625 0.366769
vt 0.372679 0.185212
vt 0.407566 0.170604
vt 0.442277 0.277515
vt 0.359425 0.149998
vt 0.394337 0.135345
vt 0.345097 0.112577
vt 0.380101 0.097889
vt 0.640748 0.882866
vt 0.677618 0.873955
vt 0.654277 0.851454
vt 0.691148 0.842545
vt 0.689140 0.770489
vt 0.726007 0.761576
vt 0.737868 0.159227
vt 0.775655 0.155932
vt 0.733808 0.122930
vt 0.771740 0.119620
vt 0.730248 0.076753
vt 0.768075 0.073431
vt 0.762394 0.004005
vt 0.724752 0.007353
vt 0.609318 0.347755
vt 0.339409 0.199148
vt 0.326161 0.163957
vt 0.593171 0.920332
vt 0.605653 0.891348
vt 0.619181 0.859936
vt 0.706134 0.199751
vt 0.701903 0.162394
vt 0.697787 0.126089
vt 0.694259 0.079903
vt 0.448095 0.284775
vt 0.149337 0.670761
vt 0.159938 0.195163
vt 0.169820 0.158976
vt 0.180815 0.120541
vt 0.642696 0.635417
vt 0.646897 0.593860
vt 0.646766 0.494188
vt 0.423751 0.859488
vt 0.432082 0.823978
vt 0.450242 0.764605
vt 0.465869 0.696410
vt 0.248890 0.708792
vt 0.078896 0.125264
vt 0.089637 0.089024
vt 0.545589 0.622550
vt 0.548905 0.584117
vt 0.553065 0.542114
vt 0.319195 0.903313
vt 0.326947 0.866455
vt 0.333782 0.830103
vt 0.345666 0.784794
vt 0.397305 0.572876
vt 0.297794 0.748390
vt 0.050526 0.050896
vt 0.053434 0.035061
vt 0.058543 0.000000
vt 0.501382 0.552092
vt 0.508940 0.478794
vt 0.514680 0.408705
vt 0.292009 0.898850
vt 0.309751 0.855071
vt 0.327409 0.781851
vt 0.325316 0.711243
vt 0.361466 0.716587
vt 0.297752 0.534845
vt 0.562479 0.447194
vt 0.415432 0.896128
vt 0.101428 0.050697
vt 0.638799 0.673834
vt 0.056715 0.252939
vt 0.137492 0.321911
vt 0.194171 0.495276
vt 0.523954 0.875328
vt 0.744456 0.735246
vt 0.221759 0.393896
vt 0.342295 0.000026
vt 0.907958 0.352325
vt 0.148415 0.477796
vt 0.000000 0.287099
vt 0.165551 0.071090
vt 0.579790 0.851806
vt 0.728422 0.350481
vt 0.005609 0.466959
vt 0.788042 0.757970
vt 0.714232 0.297823
vt 0.733863 0.540603
vt 0.258984 0.425728
vt 0.352921 0.023193
vt 0.643282 0.014538
vt 0.487003 0.260671
vt 0.946727 0.315390
vt 0.025007 0.270864
vt 0.609559 0.789722
vt 0.660554 0.203721
vt 0.191664 0.128025
vt 0.802578 0.348224
vt 0.269611 0.144262
vt 0.548682 0.931083
vt 0.136344 0.382089
vt 0.808184 0.538341
vt 0.648227 0.323651
vt 0.331909 0.323874
vt 0.890004 0.535851
vt 0.688849 0.010505
vt 0.417402 0.303789
vt 0.654047 0.778970
vt 0.742033 0.196580
vt 0.311812 0.126557
vt 0.628266 0.911850
vt 0.374128 0.306171
vt 0.407406 0.292179
vt 0.665135 0.902939
vt 0.707115 0.892792
vt 0.779627 0.193312
vt 0.822237 0.189941
vt 0.385157 0.323765
vt 0.348438 0.346513
vt 0.546380 0.386745
vt 0.481696 0.261134
vt 0.984935 0.031066
vt 0.923719 0.837674
vt 0.579040 0.000023
vt 0.411780 0.578181
vt 0.648660 0.083920
vt 0.652170 0.130080
vt 0.276422 0.023512
vt 0.232552 0.039153
vt 0.574692 0.870688
vt 0.561164 0.902099
vt 0.656308 0.166368
vt 0.283966 0.181660
vt 0.297215 0.216851
vt 0.394643 0.609369
vt 0.274341 0.945055
vt 0.507808 0.569241
vt 0.000000 0.225458
vt 0.008484 0.386693
vt 0.006989 0.428439
vt 0.199515 0.054901
vt 0.729753 0.390505
vt 0.730781 0.428080
vt 0.628720 0.096590
vt 0.454995 0.177010
vt 0.415255 0.193756
vt 0.380251 0.208387
vt 0.346949 0.222334
vt 0.304748 0.240040
vt 0.887322 0.447712
vt 0.805642 0.450198
vt 0.731449 0.452457
vt 0.276295 0.339250
vt 0.239052 0.307422
vt 0.155103 0.222600
vt 0.073600 0.152847
vt 0.043257 0.094306
vt 0.648236 0.151725
vt 0.471981 0.226545
vt 0.431552 0.243235
vt 0.396434 0.257983
vt 0.363099 0.271992
vt 0.320877 0.289705
vt 0.888912 0.499948
vt 0.807148 0.502437
vt 0.732880 0.504697
vt 0.266046 0.390506
vt 0.228812 0.358677
vt 0.144736 0.281472
vt 0.063709 0.212353
vt 0.020726 0.180696
vt 0.263573 0.713382
vt 0.045362 0.242890
vt 0.009883 0.202322
vt 0.357308 0.653936
vn 0.679654 0.077547 0.729423
vn 0.686982 0.087323 0.721408
vn 0.702353 0.059058 0.709375
vn 0.686753 0.057137 0.724642
vn 0.414526 -0.903288 -0.110635
vn 0.414526 -0.903288 -0.110635
vn 0.267203 -0.961172 -0.068929
vn 0.182608 -0.982153 -0.045058
vn -0.718892 -0.005427 -0.695101
vn -0.728029 0.074583 -0.681477
vn -0.726986 0.086539 -0.681177
vn -0.721283 0.024605 -0.692203
vn 0.715573 0.028661 0.697950
vn 0.695444 0.030673 0.717926
vn 0.720961 0.022184 0.692621
vn 0.697640 0.023694 0.716057
vn -0.705604 -0.061444 -0.705937
vn -0.719376 -0.066998 -0.691382
vn -0.705689 -0.035540 -0.707630
vn -0.752069 -0.033301 -0.658243
vn -0.404280 0.885562 0.228775
vn -0.495795 0.858047 0.133951
vn -0.374501 0.921337 0.104346
vn -0.252360 0.958262 0.134343
vn -0.348749 0.891102 0.290364
vn -0.256047 0.946151 0.198087
vn -0.487020 0.865980 0.113530
vn -0.364932 0.927139 0.085070
vn -0.468061 0.136731 0.873054
vn -0.256257 0.140367 0.956363
vn -0.257684 0.093556 0.961689
vn -0.469312 0.091457 0.878284
vn -0.001824 -0.999975 0.006808
vn -0.001824 -0.999975 0.006808
vn -0.003448 -0.999974 0.006373
vn -0.004196 -0.999972 0.006172
vn 0.258807 -0.009298 -0.965884
vn 0.258767 0.020041 -0.965732
vn 0.604262 0.018558 -0.796570
vn 0.595173 -0.008343 -0.803554
vn -0.258400 0.056837 0.964364
vn -0.470115 0.055394 0.880865
vn -0.258482 0.050997 0.964669
vn -0.472064 0.049652 0.880165
vn 0.258552 -0.045392 -0.964930
vn 0.594352 -0.042238 -0.803095
vn 0.258552 -0.045393 -0.964930
vn 0.596628 -0.042191 -0.801408
vn -0.000000 1.000000 0.000000
vn -0.000000 1.000000 -0.000000
vn -0.000000 1.000000 -0.000000
vn -0.000000 1.000000 -0.000000
vn -0.000000 1.000000 0.000000
vn -0.000000 1.000000 -0.000000
vn -0.000000 1.000000 -0.000000
vn -0.000000 1.000000 -0.000000
vn -0.290368 0.067770 0.954512
vn -0.386853 0.077121 0.918911
vn -0.364947 0.012010 0.930951
vn -0.259993 -0.000995 0.965610
vn -0.208980 -0.976192 -0.058106
vn -0.187225 -0.980979 -0.051247
vn -0.239496 -0.968532 -0.067735
vn -0.239496 -0.968532 -0.067735
vn 0.306490 -0.008200 -0.951839
vn 0.320750 0.013679 -0.947065
vn 0.172362 0.010724 -0.984975
vn 0.172566 -0.008393 -0.984962
vn -0.352501 0.042928 0.934826
vn -0.240405 0.037092 0.969964
vn -0.338396 0.139560 0.930597
vn -0.222104 0.156098 0.962446
vn 0.297148 -0.025251 -0.954498
vn 0.165919 -0.022422 -0.985884
vn 0.292006 -0.034158 -0.955806
vn 0.159996 -0.031882 -0.986603
vn 0.100640 0.994499 0.029049
vn 0.097161 0.995095 0.018569
vn 0.119530 0.992577 0.022427
vn 0.119680 0.992168 0.035771
vn 0.084595 0.994809 0.056558
vn 0.109674 0.991259 0.073325
vn 0.099640 0.994696 0.025531
vn 0.115587 0.992856 0.029618
vn -0.726986 0.086539 -0.681177
vn -0.726986 0.086539 -0.681177
vn 0.258767 0.020038 -0.965732
vn 0.609602 0.018505 -0.792492
vn 0.341132 0.022307 -0.939750
vn 0.171638 0.022923 -0.984893
vn -0.781763 0.112672 0.613312
vn -0.781763 0.112672 0.613311
vn -0.784560 0.074957 0.615505
vn -0.784558 0.074993 0.615504
vn -0.785959 0.045489 0.616603
vn -0.785959 0.045491 0.616603
vn -0.786118 0.040810 0.616728
vn -0.786118 0.040809 0.616728
vn -0.000000 1.000000 -0.000000
vn 0.000000 1.000000 0.000000
vn 0.000000 1.000000 0.000000
vn -0.000000 1.000000 -0.000000
vn 0.000000 1.000000 0.000000
vn 0.000000 1.000000 0.000000
vn 0.000000 1.000000 0.000000
vn -0.000000 1.000000 -0.000000
vn 0.786254 -0.036322 -0.616835
vn 0.786254 -0.036322 -0.616835
vn 0.786254 -0.036321 -0.616835
vn 0.786254 -0.036320 -0.616835
vn 0.786754 -0.007051 -0.617227
vn 0.786754 -0.007047 -0.617227
vn 0.786672 0.016031 -0.617163
vn 0.786672 0.016030 -0.617163
vn 0.786671 0.016031 -0.617164
vn 0.786672 0.016031 -0.617164
vn -0.006932 -0.999961 0.005439
vn -0.006932 -0.999961 0.005439
vn -0.006933 -0.999961 0.005439
vn -0.006933 -0.999961 0.005439
vn -0.781763 0.112672 0.613312
vn -0.784567 0.074832 0.615512
vn -0.785959 0.045477 0.616604
vn -0.786118 0.040810 0.616728
vn -0.000000 1.000000 -0.000000
vn 0.000000 1.000000 0.000000
vn -0.000000 1.000000 -0.000000
vn -0.000000 1.000000 -0.000000
vn 0.786254 -0.036322 -0.616835
vn 0.786254 -0.036321 -0.616835
vn 0.786753 -0.007063 -0.617228
vn 0.786671 0.016031 -0.617164
vn 0.786672 0.016030 -0.617164
vn -0.006932 -0.999961 0.005439
vn -0.006932 -0.999961 0.005439
vn -0.256256 0.140367 0.956363
vn -0.257681 0.093659 0.961680
vn -0.258400 0.056839 0.964364
vn -0.258482 0.050999 0.964669
vn 0.258551 -0.045396 -0.964930
vn 0.258551 -0.045393 -0.964931
vn 0.258803 -0.010427 -0.965874
vn 0.258763 0.020041 -0.965733
vn 0.258762 0.020038 -0.965733
vn 0.679053 0.099543 0.727309
vn 0.699679 0.059917 0.711941
vn 0.711127 0.027969 0.702507
vn 0.708566 0.022994 0.705270
vn -0.353561 0.908774 0.221639
vn -0.372893 0.910683 0.177786
vn -0.408661 0.908189 0.090493
vn -0.415603 0.907629 0.059025
vn -0.674933 -0.036861 -0.736957
vn -0.678173 -0.047352 -0.733375
vn -0.696157 -0.015457 -0.717723
vn -0.723688 0.062928 -0.687252
vn -0.726986 0.086539 -0.681177
vn 0.414526 -0.903287 -0.110635
vn 0.414526 -0.903288 -0.110635
vn 0.663857 0.174701 0.727168
vn 0.762309 0.087636 0.641252
vn 0.801354 0.030254 0.597425
vn 0.869456 0.035754 0.492716
vn -0.442044 0.885961 0.140250
vn -0.484990 0.859323 0.162323
vn -0.502988 0.855488 0.123056
vn -0.609724 0.782430 0.126649
vn -0.837067 -0.053861 -0.544442
vn -0.735756 -0.052317 -0.675223
vn -0.662558 -0.025264 -0.748584
vn -0.592005 0.026517 -0.805498
vn -0.605283 0.064564 -0.793388
vn 0.379912 -0.919619 -0.099835
vn 0.358751 -0.928764 -0.093247
vn 0.770484 0.220880 0.597968
vn 0.957711 0.056583 0.282114
vn 0.979193 0.042251 0.198482
vn 0.980486 0.046001 0.191130
vn -0.794768 0.596147 0.113810
vn -0.627714 0.744644 0.226893
vn -0.796321 0.544236 0.263969
vn -0.835948 0.479887 0.266270
vn -0.987783 -0.071652 -0.138387
vn -0.983329 -0.076438 -0.164991
vn -0.862475 -0.119543 -0.491779
vn 0.114666 -0.102922 -0.988058
vn 0.352202 -0.083693 -0.932175
vn 0.058525 -0.997444 0.040997
vn 0.018142 -0.999571 0.023014
vn 0.160469 -0.983265 0.086260
vn -0.319225 0.009118 0.947635
vn -0.437716 0.020458 0.898881
vn -0.781763 0.112672 0.613312
vn -0.781763 0.112673 0.613311
vn -0.781763 0.112673 0.613312
vn -0.465014 0.136839 0.874664
vn -0.256257 0.140367 0.956363
vn -0.256257 0.140367 0.956363
vn 0.679653 0.077547 0.729423
vn 0.681490 0.087275 0.726604
vn 0.677506 0.098709 0.728864
vn 0.640912 0.135697 0.755525
vn 0.592611 0.213920 0.776563
vn -0.547445 -0.099593 0.830894
vn -0.387564 -0.208256 0.898011
vn -0.781764 0.112671 0.613311
vn -0.781763 0.112673 0.613311
vn -0.781763 0.112672 0.613313
vn -0.460446 0.136997 0.877053
vn -0.256257 0.140364 0.956363
vn -0.256257 0.140364 0.956363
vn 0.678746 0.086112 0.729307
vn 0.679653 0.077546 0.729423
vn 0.674763 0.097671 0.731543
vn 0.640968 0.108316 0.759886
vn 0.281628 0.294357 0.913257
vn 0.473646 0.152700 0.867377
vn 0.511198 0.121144 0.850882
vn 0.002788 -0.999865 0.016169
s 1
g polySurface10 polySurface3 polySurface1 StartingArea
f 140/220/1 141/221/2 101/2/3 2/3/4
s 2
f 110/141/5 100/1/6 1/4/7 3/147/8
s 3
f 108/7/9 109/8/10 42/9/11 4/10/12
s 1
f 101/2/3 102/11/13 5/12/14 2/3/4
f 102/11/13 103/13/15 6/14/16 5/12/14
s 3
f 107/15/17 108/7/9 4/10/12 7/16/18
f 106/142/19 107/15/17 7/16/18 8/150/20
s 4
f 104/19/21 105/20/22 9/21/23 10/22/24
f 103/143/25 104/19/21 10/22/24 6/153/26
f 105/20/22 106/17/27 8/18/28 9/21/23
s 5
f 138/217/29 139/218/30 90/24/31 22/25/32
s 2
f 99/27/33 89/23/34 21/26/35 23/160/36
s 6
f 97/29/37 98/30/38 43/31/39 24/32/40
s 5
f 90/24/31 91/33/41 25/34/42 22/25/32
f 91/33/41 92/165/43 26/36/44 25/34/42
s 6
f 96/37/45 97/29/37 24/32/40 27/38/46
f 95/39/47 96/37/45 27/38/46 28/164/48
s 4
f 93/41/49 94/42/50 29/43/51 30/44/52
f 92/35/53 93/41/49 30/44/52 26/168/54
f 94/42/50 95/161/55 28/40/56 29/43/51
s 5
f 133/211/57 134/212/58 46/46/59 32/47/60
s 2
f 55/186/61 45/45/62 31/192/63 33/50/64
s 6
f 53/51/65 54/52/66 44/53/67 34/54/68
s 5
f 46/46/59 47/55/69 35/56/70 32/47/60
f 47/55/69 48/57/71 36/191/72 35/56/70
s 6
f 52/59/73 53/51/65 34/54/68 37/60/74
f 51/184/75 52/59/73 37/60/74 38/62/76
s 4
f 49/63/77 50/64/78 39/65/79 40/66/80
f 48/182/81 49/63/77 40/66/80 36/58/82
f 50/64/78 51/61/83 38/190/84 39/65/79
s 3
f 42/9/11 109/8/10 110/5/85 3/6/86
s 6
f 43/31/39 98/30/38 99/157/87 23/28/88
f 44/53/67 54/52/66 55/49/89 33/189/90
s 5
f 135/213/91 136/214/92 57/68/93 77/69/94
f 57/68/93 58/71/95 76/72/96 77/69/94
f 58/71/95 59/73/97 75/74/98 76/72/96
s 4
f 59/178/99 60/75/100 74/76/101 75/181/102
f 60/75/100 61/77/103 73/78/104 74/76/101
f 61/77/103 62/79/105 72/80/106 73/78/104
s 6
f 62/176/107 63/81/108 71/82/109 72/183/110
f 63/81/108 64/83/111 70/84/112 71/82/109
f 64/83/111 65/85/113 69/86/114 70/84/112
f 68/87/115 69/86/114 65/85/113 66/88/116
s 2
f 66/174/117 56/67/118 67/187/119 68/185/120
s 5
f 136/214/92 137/215/121 79/90/122 57/68/93
f 79/90/122 80/91/123 58/71/95 57/68/93
f 80/91/123 81/177/124 59/73/97 58/71/95
s 4
f 81/92/125 82/93/126 60/75/100 59/178/99
f 82/93/126 83/94/127 61/77/103 60/75/100
f 83/94/127 84/175/128 62/79/105 61/77/103
s 6
f 84/95/129 85/96/130 63/81/108 62/176/107
f 85/96/130 86/97/131 64/83/111 63/81/108
f 86/97/131 87/98/132 65/85/113 64/83/111
f 66/88/116 65/85/113 87/98/132 88/173/133
s 2
f 88/99/134 78/89/135 56/67/118 66/174/117
f 68/185/120 67/187/119 45/45/62 55/186/61
s 6
f 55/49/89 54/52/66 69/86/114 68/87/115
f 70/84/112 69/86/114 54/52/66 53/51/65
f 71/82/109 70/84/112 53/51/65 52/59/73
f 72/183/110 71/82/109 52/59/73 51/184/75
s 4
f 73/78/104 72/80/106 51/61/83 50/64/78
f 74/76/101 73/78/104 50/64/78 49/63/77
f 75/181/102 74/76/101 49/63/77 48/182/81
s 5
f 76/72/96 75/74/98 48/57/71 47/55/69
f 77/69/94 76/72/96 47/55/69 46/46/59
f 134/212/58 135/213/91 77/69/94 46/46/59
f 137/215/121 138/216/29 22/201/32 79/90/122
f 22/201/32 25/200/42 80/91/123 79/90/122
f 25/200/42 26/166/44 81/177/124 80/91/123
s 4
f 26/167/54 30/198/52 82/93/126 81/92/125
f 30/198/52 29/197/51 83/94/127 82/93/126
f 29/197/51 28/162/56 84/175/128 83/94/127
s 6
f 28/163/48 27/199/46 85/96/130 84/95/129
f 27/199/46 24/194/40 86/97/131 85/96/130
f 24/194/40 43/193/39 87/98/132 86/97/131
f 88/173/133 87/98/132 43/193/39 23/158/88
s 2
f 23/159/36 21/170/35 78/89/135 88/99/134
s 5
f 139/218/30 140/219/136 2/210/137 90/24/31
f 2/210/137 5/209/138 91/33/41 90/24/31
f 5/209/138 6/151/139 92/165/43 91/33/41
s 4
f 6/152/26 10/207/24 93/41/49 92/35/53
f 10/207/24 9/206/23 94/42/50 93/41/49
f 9/206/23 8/148/28 95/161/55 94/42/50
s 6
f 8/149/140 7/208/141 96/37/45 95/39/47
f 7/208/141 4/196/142 97/29/37 96/37/45
f 4/196/142 42/195/143 98/30/38 97/29/37
f 99/157/87 98/30/38 42/195/143 3/145/144
s 2
f 3/146/8 1/154/7 89/23/34 99/27/33
s 1
f 141/221/2 142/222/145 112/101/146 101/2/3
f 112/101/146 113/102/147 102/11/13 101/2/3
f 113/102/147 114/103/148 103/13/15 102/11/13
s 4
f 114/138/149 115/104/150 104/19/21 103/143/25
f 115/104/150 116/105/151 105/20/22 104/19/21
f 116/105/151 117/106/152 106/17/27 105/20/22
s 3
f 117/136/153 118/107/154 107/15/17 106/142/19
f 118/107/154 119/108/155 108/7/9 107/15/17
f 119/108/155 120/109/156 109/8/10 108/7/9
f 110/5/85 109/8/10 120/109/156 121/110/157
s 2
f 121/134/158 111/100/159 100/1/6 110/141/5
s 1
f 142/222/145 143/223/160 123/112/161 112/101/146
f 123/112/161 124/113/162 113/102/147 112/101/146
f 124/113/162 125/137/163 114/103/148 113/102/147
s 4
f 125/114/164 126/115/165 115/104/150 114/138/149
f 126/115/165 127/116/166 116/105/151 115/104/150
f 127/116/166 128/135/167 117/106/152 116/105/151
s 3
f 128/117/168 129/118/169 118/107/154 117/136/153
f 129/118/169 130/119/170 119/108/155 118/107/154
f 130/119/170 131/120/171 120/109/156 119/108/155
f 121/110/157 120/109/156 131/120/171 132/133/172
s 2
f 132/121/173 122/111/174 111/100/159 121/134/158
s 1
f 143/223/160 144/224/175 12/123/176 123/112/161
f 12/123/176 13/124/177 124/113/162 123/112/161
f 13/124/177 14/125/178 125/137/163 124/113/162
s 4
f 14/204/179 15/126/180 126/115/165 125/114/164
f 15/126/180 16/127/181 127/116/166 126/115/165
f 16/127/181 17/128/182 128/135/167 127/116/166
s 3
f 17/203/183 18/129/184 129/118/169 128/117/168
f 18/129/184 19/130/185 130/119/170 129/118/169
f 19/130/185 41/131/186 131/120/171 130/119/170
f 132/133/172 131/120/171 41/131/186 20/132/187
s 2
f 157/239/188 159/242/189 11/122/190
s 5
f 145/225/191 146/226/192 134/212/58 133/211/57
f 146/226/192 147/227/193 135/213/91 134/212/58
f 147/227/193 148/228/194 136/214/92 135/213/91
f 148/228/194 149/229/195 137/215/121 136/214/92
f 149/229/195 150/230/196 138/216/29 137/215/121
f 150/231/196 151/232/197 139/218/30 138/217/29
f 151/232/197 152/233/198 140/219/136 139/218/30
s 1
f 152/234/199 153/235/200 141/221/2 140/220/1
f 153/235/200 154/236/201 142/222/145 141/221/2
f 154/236/201 155/237/202 143/223/160 142/222/145
f 155/237/202 156/238/203 144/224/175 143/223/160
s 5
f 45/188/204 146/226/192 145/225/191 31/48/205
f 67/70/206 147/227/193 146/226/192 45/188/204
f 56/180/207 148/228/194 147/227/193 67/70/206
f 78/179/208 149/229/195 148/228/194 56/180/207
f 21/171/209 150/230/196 149/229/195 78/179/208
f 89/169/210 151/232/197 150/231/196 21/172/209
f 1/155/211 152/233/198 151/232/197 89/169/210
s 1
f 100/144/212 153/235/200 152/234/199 1/156/213
f 111/140/214 154/236/201 153/235/200 100/144/212
f 122/139/215 155/237/202 154/236/201 111/140/214
f 11/205/216 158/241/217 157/240/218
f 157/240/218 158/241/217 156/238/203 155/237/202 122/139/215
s 2
f 20/202/219 159/242/189 157/239/188 122/111/174 132/121/173
