# This file uses centimeters as units for non-parametric coordinates.

mtllib Bodypiece_Snake_V02.mtl
g default
v 0.225644 -0.015436 0.530347
v 0.221486 0.038517 0.527341
v -0.221486 0.038517 0.527341
v -0.225644 -0.015436 0.530347
v 0.216664 -0.053681 0.528764
v -0.216664 -0.053681 0.528764
v 0.212544 -0.062642 0.526689
v -0.212544 -0.062642 0.526689
v -0.205237 -0.075181 0.526388
v 0.205237 -0.075181 0.526388
v 0.092198 0.170050 0.507672
v 0.034270 0.182278 0.499309
v -0.000000 0.185996 0.500023
v -0.034270 0.182278 0.499309
v 0.203483 0.081189 0.521162
v -0.203483 0.081189 0.521162
v 0.164598 0.127709 0.510432
v -0.092198 0.170050 0.507672
v -0.164598 0.127709 0.510432
v 0.187812 -0.105438 0.523071
v 0.194368 -0.096059 0.525007
v -0.194368 -0.096059 0.525007
v -0.187812 -0.105438 0.523071
v 0.167845 -0.126578 0.519996
v -0.167845 -0.126578 0.519996
v 0.140959 -0.145624 0.514901
v -0.140959 -0.145624 0.514901
v 0.097000 -0.169491 0.504367
v -0.097000 -0.169491 0.504367
v 0.045013 -0.184070 0.512139
v -0.045013 -0.184070 0.512139
v -0.000000 -0.187534 0.517163
v 0.199979 -0.086649 0.524196
v -0.199979 -0.086649 0.524196
v 0.232214 0.057714 1.238670
v 0.242880 -0.000476 1.241917
v -0.242880 -0.000476 1.241917
v -0.232214 0.057714 1.238670
v 0.237499 -0.043215 1.241568
v -0.237499 -0.043215 1.241568
v 0.233457 -0.055561 1.243123
v -0.233457 -0.055561 1.243123
v -0.230170 -0.064369 1.243139
v 0.230170 -0.064369 1.243139
v 0.031651 0.197871 1.211052
v 0.089224 0.185752 1.218890
v -0.031651 0.197871 1.211052
v -0.000000 0.199505 1.211402
v 0.207496 0.103814 1.232130
v -0.207496 0.103814 1.232130
v 0.162890 0.146973 1.221661
v -0.162890 0.146973 1.221661
v -0.089224 0.185752 1.218890
v 0.217409 -0.093131 1.239898
v 0.209986 -0.105225 1.237387
v -0.209986 -0.105225 1.237387
v -0.217409 -0.093131 1.239898
v 0.187053 -0.130447 1.232871
v -0.187053 -0.130447 1.232871
v 0.154183 -0.156332 1.227399
v -0.154183 -0.156332 1.227399
v 0.107274 -0.180307 1.215507
v -0.107274 -0.180307 1.215507
v 0.048497 -0.196568 1.223957
v -0.048497 -0.196568 1.223957
v -0.000000 -0.200911 1.232110
v 0.222720 -0.079441 1.238413
v -0.222720 -0.079441 1.238413
v 0.210423 -0.021804 0.024701
v 0.208949 0.027608 0.021933
v -0.208949 0.027608 0.021933
v -0.210423 -0.021804 0.024701
v 0.201127 -0.055638 0.023098
v -0.201127 -0.055638 0.023098
v 0.197776 -0.063772 0.021098
v -0.197776 -0.063772 0.021098
v -0.191819 -0.074471 0.020626
v 0.191819 -0.074471 0.020626
v 0.093393 0.158558 0.001332
v 0.036589 0.173680 -0.007078
v 0.000000 0.176310 -0.006345
v -0.036589 0.173680 -0.007078
v 0.195512 0.067352 0.015493
v -0.195512 0.067352 0.015493
v 0.161780 0.114204 0.004219
v -0.093393 0.158558 0.001332
v -0.161780 0.114204 0.004219
v 0.174965 -0.102414 0.017629
v 0.178398 -0.096887 0.020131
v -0.178398 -0.096887 0.020131
v -0.174965 -0.102414 0.017629
v 0.157738 -0.120584 0.014201
v -0.157738 -0.120584 0.014201
v 0.133038 -0.139280 0.009105
v -0.133038 -0.139280 0.009105
v 0.089894 -0.160886 -0.000964
v -0.089894 -0.160886 -0.000964
v 0.044107 -0.174749 0.006270
v -0.044107 -0.174749 0.006270
v 0.000000 -0.179125 0.011381
v 0.186053 -0.083767 0.018103
v -0.186053 -0.083767 0.018103
vt 0.393428 0.886563
vt 0.388935 0.909396
vt 0.837787 0.741203
vt 0.826173 0.741588
vt 0.582478 0.909892
vt 0.578100 0.887035
vt 0.704031 0.742830
vt 0.692412 0.742681
vt 0.390681 0.926226
vt 0.846198 0.741800
vt 0.580645 0.926712
vt 0.684016 0.743448
vt 0.391515 0.931297
vt 0.848295 0.742320
vt 0.676938 0.590344
vt 0.681929 0.744011
vt 0.985783 0.541952
vt 0.678825 0.744256
vt 0.392562 0.934838
vt 0.870275 0.699703
vt 0.473471 0.831783
vt 0.450648 0.836537
vt 0.785228 0.745575
vt 0.772546 0.747448
vt 0.498339 0.831846
vt 0.485907 0.831197
vt 0.765154 0.747355
vt 0.757766 0.747598
vt 0.403546 0.868497
vt 0.816225 0.742771
vt 0.568076 0.868918
vt 0.714001 0.743810
vt 0.421618 0.851626
vt 0.803210 0.744979
vt 0.550090 0.851955
vt 0.521138 0.836718
vt 0.745049 0.745983
vt 0.727058 0.745753
vt 0.398691 0.945866
vt 0.401768 0.950617
vt 0.877972 0.700217
vt 0.875452 0.699857
vt 0.569433 0.951045
vt 0.572534 0.946310
vt 0.973195 0.699305
vt 0.970680 0.699694
vt 0.410901 0.960567
vt 0.884363 0.700751
vt 0.560249 0.960950
vt 0.964295 0.700300
vt 0.423934 0.970806
vt 0.891609 0.701742
vt 0.547164 0.971122
vt 0.957062 0.701372
vt 0.442908 0.980291
vt 0.902613 0.703886
vt 0.528142 0.980509
vt 0.946082 0.703641
vt 0.466208 0.986765
vt 0.914437 0.702056
vt 0.504810 0.986864
vt 0.934238 0.701944
vt 0.485504 0.988683
vt 0.924331 0.700885
vt 0.396327 0.940573
vt 0.873055 0.700100
vt 0.574925 0.941030
vt 0.975595 0.699521
vt 0.841803 0.885031
vt 0.843052 0.902299
vt 0.991479 0.898125
vt 0.991755 0.880815
vt 0.844718 0.873101
vt 0.988175 0.869067
vt 0.845648 0.850801
vt 0.987189 0.866071
vt 0.985550 0.862111
vt 0.874665 0.810581
vt 0.885715 0.946984
vt 0.905913 0.951796
vt 0.918731 0.952335
vt 0.931498 0.951076
vt 0.848523 0.916095
vt 0.986791 0.912207
vt 0.861337 0.932183
vt 0.951394 0.945138
vt 0.974901 0.928990
vt 0.853793 0.856527
vt 0.852269 0.858429
vt 0.979811 0.854843
vt 0.978183 0.853029
vt 0.859766 0.850015
vt 0.971853 0.846863
vt 0.868408 0.843246
vt 0.962844 0.840591
vt 0.883700 0.835296
vt 0.947130 0.833512
vt 0.899768 0.830000
vt 0.930789 0.829129
vt 0.915234 0.827948
vt 0.848931 0.862621
vt 0.983379 0.858841
vt 0.684164 0.852676
vt 0.975234 0.810012
vt 0.972827 0.810529
vt 0.877078 0.811070
vt 0.848269 0.851008
vt 0.846947 0.866008
vt 0.969502 0.810031
vt 0.880396 0.810534
vt 0.934684 0.812915
vt 0.924958 0.811832
vt 0.915245 0.813024
vt 0.945177 0.814497
vt 0.904771 0.814726
vt 0.955767 0.812323
vt 0.894157 0.812672
vt 0.962568 0.811252
vt 0.887344 0.811677
vt 0.968068 0.810557
vt 0.881838 0.811045
vt 0.728256 0.854340
vt 0.715803 0.852285
vt 0.804220 0.853568
vt 0.786731 0.854180
vt 0.758390 0.856217
vt 0.745753 0.854596
vt 0.774130 0.856057
vt 0.766259 0.855969
vt 0.816629 0.851260
vt 0.706757 0.851239
vt 0.825653 0.850031
vt 0.845534 0.870053
vt 0.686780 0.852416
vt 0.688639 0.851880
vt 0.843779 0.850303
vt 0.696135 0.851129
vt 0.836270 0.849705
vt 0.674924 0.590445
vt 0.578720 0.935315
vt 0.982077 0.542921
vt 0.864803 0.543584
vt 0.852176 0.588643
vt 0.861087 0.542657
vt 0.978864 0.542529
vt 0.868012 0.543156
vt 0.934131 0.545796
vt 0.923445 0.544051
vt 0.912779 0.545916
vt 0.947508 0.547639
vt 0.899423 0.547911
vt 0.959071 0.545068
vt 0.887833 0.545471
vt 0.968256 0.543937
vt 0.878636 0.544444
vt 0.975743 0.543030
vt 0.871139 0.543622
vt 0.726296 0.593176
vt 0.712930 0.591268
vt 0.800870 0.592418
vt 0.783013 0.593021
vt 0.756806 0.594914
vt 0.744162 0.593416
vt 0.770402 0.594776
vt 0.763603 0.594764
vt 0.814196 0.590238
vt 0.701670 0.590228
vt 0.825432 0.588971
vt 0.850161 0.588583
vt 0.579785 0.931779
vt 0.679737 0.590534
vt 0.847365 0.588830
vt 0.688963 0.590029
vt 0.838131 0.588512
vt 0.851403 0.742502
vt 0.978371 0.699092
vn 0.963547 0.266580 -0.022620
vn 0.999731 0.001632 -0.023116
vn 0.999330 -0.026672 -0.025078
vn 0.969363 0.244376 -0.024807
vn -0.999731 0.001632 -0.023116
vn -0.963547 0.266580 -0.022620
vn -0.969363 0.244376 -0.024807
vn -0.999330 -0.026672 -0.025078
vn 0.976134 -0.215923 -0.023209
vn 0.970463 -0.239973 -0.024797
vn -0.976134 -0.215923 -0.023209
vn -0.970463 -0.239973 -0.024797
vn 0.914770 -0.403318 -0.023029
vn 0.904604 -0.425581 -0.023924
vn -0.914770 -0.403318 -0.023029
vn -0.904604 -0.425581 -0.023924
vn -0.899887 -0.435467 -0.023919
vn -0.891663 -0.452047 -0.024313
vn 0.899887 -0.435467 -0.023919
vn 0.891663 -0.452047 -0.024313
vn 0.165164 0.986052 -0.020565
vn 0.381527 0.924133 -0.020406
vn 0.387890 0.921476 -0.020584
vn 0.170692 0.985131 -0.019520
vn -0.165164 0.986052 -0.020565
vn 0.000000 0.999794 -0.020295
vn 0.000000 0.999815 -0.019252
vn -0.170692 0.985131 -0.019520
vn 0.825007 0.564701 -0.021832
vn 0.834632 0.550301 -0.023611
vn -0.825007 0.564701 -0.021832
vn -0.834632 0.550301 -0.023611
vn 0.604871 0.796054 -0.020717
vn 0.618714 0.785310 -0.021918
vn -0.604871 0.796054 -0.020717
vn -0.381527 0.924133 -0.020406
vn -0.387890 0.921476 -0.020584
vn -0.618714 0.785310 -0.021918
vn 0.874508 -0.484329 -0.025695
vn 0.773232 -0.633671 -0.023923
vn 0.762589 -0.646453 -0.023590
vn 0.864679 -0.501663 -0.025760
vn -0.773232 -0.633671 -0.023923
vn -0.874509 -0.484329 -0.025695
vn -0.864679 -0.501663 -0.025760
vn -0.762589 -0.646453 -0.023590
vn 0.672829 -0.739453 -0.022568
vn 0.661657 -0.749479 -0.022144
vn -0.672829 -0.739453 -0.022568
vn -0.661657 -0.749479 -0.022144
vn 0.535784 -0.844080 -0.021541
vn 0.522049 -0.852657 -0.020992
vn -0.535784 -0.844080 -0.021541
vn -0.522049 -0.852657 -0.020992
vn 0.367056 -0.929988 -0.019809
vn 0.366848 -0.930072 -0.019727
vn -0.367056 -0.929988 -0.019809
vn -0.366848 -0.930072 -0.019727
vn 0.174428 -0.984498 -0.018397
vn 0.186477 -0.982287 -0.018422
vn -0.174428 -0.984498 -0.018397
vn -0.186478 -0.982287 -0.018422
vn 0.000000 -0.999832 -0.018330
vn 0.000000 -0.999837 -0.018060
vn 0.903539 -0.427762 -0.025241
vn 0.890774 -0.453724 -0.025632
vn -0.903539 -0.427762 -0.025241
vn -0.890774 -0.453724 -0.025632
vn 0.996920 -0.073160 -0.028262
vn 0.979128 0.201264 -0.028297
vn -0.979128 0.201264 -0.028297
vn -0.996920 -0.073160 -0.028262
vn 0.959664 -0.279825 -0.027261
vn -0.959664 -0.279825 -0.027261
vn 0.887907 -0.459350 -0.024877
vn -0.887907 -0.459350 -0.024877
vn -0.877280 -0.479337 -0.024808
vn 0.877280 -0.479337 -0.024808
vn 0.402021 0.915398 -0.020614
vn 0.177659 0.983923 -0.018243
vn 0.000000 0.999841 -0.017847
vn -0.177659 0.983923 -0.018243
vn 0.855227 0.517591 -0.026214
vn -0.855227 0.517591 -0.026214
vn 0.637629 0.769988 -0.023397
vn -0.402021 0.915398 -0.020614
vn -0.637629 0.769988 -0.023397
vn 0.749500 -0.661600 -0.023126
vn 0.848684 -0.528269 -0.025818
vn -0.848684 -0.528269 -0.025818
vn -0.749500 -0.661600 -0.023126
vn 0.650901 -0.758861 -0.021392
vn -0.650901 -0.758861 -0.021392
vn 0.510523 -0.859627 -0.020186
vn -0.510523 -0.859627 -0.020186
vn 0.369292 -0.929105 -0.019703
vn -0.369292 -0.929105 -0.019703
vn 0.196150 -0.980398 -0.018592
vn -0.196150 -0.980398 -0.018592
vn 0.000000 -0.999845 -0.017601
vn 0.871735 -0.489283 -0.026070
vn -0.871735 -0.489283 -0.026070
vn -0.000000 0.044459 0.999011
vn -0.052198 0.027808 0.998250
vn -0.051136 0.027471 0.998314
vn -0.000000 0.044459 0.999011
vn 0.052198 0.027808 0.998250
vn 0.051136 0.027471 0.998314
vn 0.038183 0.009013 0.999230
vn 0.041880 0.008691 0.999085
vn -0.038183 0.009013 0.999230
vn -0.041880 0.008691 0.999085
vn 0.134262 0.005532 0.990930
vn 0.134724 0.005657 0.990867
vn -0.134262 0.005532 0.990930
vn -0.134724 0.005657 0.990867
vn 0.198895 0.022422 0.979764
vn 0.199066 0.022418 0.979730
vn -0.198895 0.022422 0.979764
vn -0.199066 0.022418 0.979730
vn 0.217467 0.022335 0.975812
vn 0.217681 0.022462 0.975761
vn -0.217465 0.022335 0.975813
vn -0.217679 0.022462 0.975762
vn 0.228857 0.029823 0.973003
vn 0.228724 0.029781 0.973036
vn -0.228854 0.029823 0.973004
vn -0.228722 0.029781 0.973036
vn -0.056149 -0.056207 0.996839
vn -0.057146 -0.056591 0.996761
vn 0.056141 -0.056207 0.996840
vn 0.057138 -0.056591 0.996761
vn 0.882218 0.330538 0.335315
vn 0.882218 0.330538 0.335315
vn -0.882220 0.330535 0.335313
vn -0.882220 0.330535 0.335313
vn 0.031506 -0.031158 -0.999018
vn 0.000000 -0.044865 -0.998993
vn 0.000000 -0.044865 -0.998993
vn 0.031218 -0.031060 -0.999030
vn -0.031506 -0.031158 -0.999018
vn -0.031218 -0.031060 -0.999030
vn -0.046464 -0.014556 -0.998814
vn -0.047930 -0.014476 -0.998746
vn 0.046464 -0.014556 -0.998814
vn 0.047930 -0.014476 -0.998746
vn -0.132368 -0.015711 -0.991076
vn -0.133189 -0.015919 -0.990963
vn 0.132368 -0.015711 -0.991076
vn 0.133189 -0.015919 -0.990963
vn -0.251598 -0.045434 -0.966765
vn -0.251609 -0.045434 -0.966762
vn 0.251598 -0.045434 -0.966765
vn 0.251609 -0.045434 -0.966762
vn -0.279886 -0.046681 -0.958898
vn -0.281134 -0.047132 -0.958511
vn 0.279886 -0.046681 -0.958898
vn 0.281134 -0.047132 -0.958511
vn -0.346632 -0.070332 -0.935361
vn -0.343638 -0.068859 -0.936574
vn 0.346632 -0.070332 -0.935361
vn 0.343638 -0.068859 -0.936574
vn 0.209001 0.184488 -0.960356
vn 0.209277 0.184585 -0.960277
vn -0.209022 0.184488 -0.960351
vn -0.209298 0.184585 -0.960272
vn -0.197226 0.031205 -0.979861
vn -0.197226 0.031205 -0.979861
vn 0.197356 0.031203 -0.979835
vn 0.197356 0.031203 -0.979835
s 1
g Bodypart
usemtl Snake_RetopoUnfixed:initialShadingGroup
f 35/168/1 36/174/2 1/3/3 2/4/4
f 37/173/5 38/167/6 3/7/7 4/8/8
f 36/174/2 39/172/9 5/10/10 1/3/3
f 40/171/11 37/173/5 4/8/8 6/12/12
f 39/172/9 41/169/13 7/14/14 5/10/10
f 42/15/15 40/171/11 6/12/12 8/16/16
f 43/139/17 42/15/15 8/16/16 9/18/18
f 41/169/13 44/143/19 10/175/20 7/14/14
f 45/164/21 46/161/22 11/23/23 12/24/24
f 47/162/25 48/165/26 13/27/27 14/28/28
f 49/166/29 35/168/1 2/4/4 15/30/30
f 38/167/6 50/159/31 16/32/32 3/7/7
f 51/160/33 49/166/29 15/30/30 17/34/34
f 52/158/35 53/163/36 18/37/37 19/38/38
f 48/165/26 45/164/21 12/24/24 13/27/27
f 53/163/36 47/162/25 14/28/28 18/37/37
f 46/161/22 51/160/33 17/34/34 11/23/23
f 50/159/31 52/158/35 19/38/38 16/32/32
f 54/146/39 55/157/40 20/41/41 21/42/42
f 56/156/43 57/145/44 22/45/45 23/46/46
f 55/157/40 58/155/47 24/48/48 20/41/41
f 59/154/49 56/156/43 23/46/46 25/50/50
f 58/155/47 60/153/51 26/52/52 24/48/48
f 61/152/53 59/154/49 25/50/50 27/54/54
f 60/153/51 62/151/55 28/56/56 26/52/52
f 63/150/57 61/152/53 27/54/54 29/58/58
f 62/151/55 64/149/59 30/60/60 28/56/56
f 65/147/61 63/150/57 29/58/58 31/62/62
f 64/149/59 66/148/63 32/64/64 30/60/60
f 66/148/63 65/147/61 31/62/62 32/64/64
f 67/142/65 54/146/39 21/42/42 33/66/66
f 57/145/44 68/141/67 34/68/68 22/45/45
f 44/144/19 67/142/65 33/66/66 10/20/20
f 68/141/67 43/17/17 9/176/18 34/68/68
f 2/4/4 1/3/3 69/138/69 70/132/70
f 4/8/8 3/7/7 71/131/71 72/137/72
f 1/3/3 5/10/10 73/136/73 69/138/69
f 6/12/12 4/8/8 72/137/72 74/135/74
f 5/10/10 7/14/14 75/75/75 73/136/73
f 8/16/16 6/12/12 74/135/74 76/134/76
f 9/18/18 8/16/16 76/134/76 77/103/77
f 7/14/14 10/175/20 78/107/78 75/75/75
f 12/24/24 11/23/23 79/125/79 80/128/80
f 14/28/28 13/27/27 81/129/81 82/126/82
f 15/30/30 2/4/4 70/132/70 83/130/83
f 3/7/7 16/32/32 84/123/84 71/131/71
f 17/34/34 15/30/30 83/130/83 85/124/85
f 19/38/38 18/37/37 86/127/86 87/122/87
f 13/27/27 12/24/24 80/128/80 81/129/81
f 18/37/37 14/28/28 82/126/82 86/127/86
f 11/23/23 17/34/34 85/124/85 79/125/79
f 16/32/32 19/38/38 87/122/87 84/123/84
f 21/42/42 20/41/41 88/121/88 89/110/89
f 23/46/46 22/45/45 90/109/90 91/120/91
f 20/41/41 24/48/48 92/119/92 88/121/88
f 25/50/50 23/46/46 91/120/91 93/118/93
f 24/48/48 26/52/52 94/117/94 92/119/92
f 27/54/54 25/50/50 93/118/93 95/116/95
f 26/52/52 28/56/56 96/115/96 94/117/94
f 29/58/58 27/54/54 95/116/95 97/114/97
f 28/56/56 30/60/60 98/113/98 96/115/96
f 31/62/62 29/58/58 97/114/97 99/111/99
f 30/60/60 32/64/64 100/112/100 98/113/98
f 32/64/64 31/62/62 99/111/99 100/112/100
f 33/66/66 21/42/42 89/110/89 101/106/101
f 22/45/45 34/68/68 102/105/102 90/109/90
f 10/20/20 33/66/66 101/106/101 78/78/78
f 34/68/68 9/176/18 77/104/77 102/105/102
s 6
f 48/26/103 47/25/104 65/61/105 66/63/106
f 45/21/107 48/26/103 66/63/106 64/59/108
f 47/25/104 53/36/109 63/57/110 65/61/105
f 46/22/111 45/21/107 64/59/108 62/55/112
f 53/36/109 52/35/113 61/53/114 63/57/110
f 51/33/115 46/22/111 62/55/112 60/51/116
f 52/35/113 50/31/117 59/49/118 61/53/114
f 49/29/119 51/33/115 60/51/116 58/47/120
f 50/31/117 38/6/121 56/43/122 59/49/118
f 35/1/123 49/29/119 58/47/120 55/40/124
f 38/6/121 37/5/125 57/44/126 56/43/122
f 36/2/127 35/1/123 55/40/124 54/39/128
f 37/5/125 40/11/129 68/67/130 57/44/126
f 39/9/131 36/2/127 54/39/128 67/65/132
f 40/11/129 42/170/133 43/140/134 68/67/130
f 41/13/135 39/9/131 67/65/132 44/19/136
s 7
f 82/82/137 81/81/138 100/100/139 99/99/140
f 81/81/138 80/80/141 98/98/142 100/100/139
f 86/86/143 82/82/137 99/99/140 97/97/144
f 80/80/141 79/79/145 96/96/146 98/98/142
f 87/87/147 86/86/143 97/97/144 95/95/148
f 79/79/145 85/85/149 94/94/150 96/96/146
f 84/84/151 87/87/147 95/95/148 93/93/152
f 85/85/149 83/83/153 92/92/154 94/94/150
f 71/71/155 84/84/151 93/93/152 91/91/156
f 83/83/153 70/70/157 88/88/158 92/92/154
f 72/72/159 71/71/155 91/91/156 90/90/160
f 70/70/157 69/69/161 89/89/162 88/88/158
f 74/74/163 72/72/159 90/90/160 102/102/164
f 69/69/161 73/73/165 101/101/166 89/89/162
f 76/76/167 74/74/163 102/102/164 77/77/168
f 73/73/165 75/133/169 78/108/170 101/101/166
