# This file uses centimeters as units for non-parametric coordinates.

mtllib Inkcap_3_LP.mtl
g default
v -0.300010 -0.014288 -5.428476
v -0.087535 -0.014288 -5.302830
v 0.099368 -0.014288 -5.320505
v 0.176104 -0.014288 -5.473500
v 0.229941 -0.034672 -5.714403
v 0.174846 -0.128934 -5.998149
v -0.007969 -0.128934 -6.159445
v -0.181686 -0.128934 -6.143017
v -0.408569 -0.128934 -5.942977
v -0.398052 -0.085394 -5.655015
v -0.257050 0.555154 -5.474512
v -0.082395 0.555154 -5.371231
v 0.071239 0.555154 -5.385760
v 0.134316 0.555154 -5.511523
v 0.229941 0.375534 -5.714403
v 0.131899 0.375534 -5.940942
v -0.007969 0.148108 -6.159445
v -0.159788 0.368210 -6.061867
v -0.346287 0.368210 -5.897433
v -0.337642 0.555154 -5.660728
v -0.231042 2.074249 -5.594506
v -0.102518 2.074249 -5.584013
v 0.058486 1.836891 -5.481704
v 0.166583 1.836891 -5.611725
v 0.244625 1.938813 -5.715792
v 0.084498 3.061833 -5.862824
v 0.033363 2.587950 -6.080346
v -0.123593 2.279483 -6.017241
v -0.256362 1.836891 -5.862252
v -0.311634 2.074249 -5.780722
v -0.267409 2.568821 -5.547381
v -0.107866 2.568821 -5.512823
v 0.086940 2.331464 -5.413711
v 0.219399 2.331464 -5.573034
v 0.282734 2.331464 -5.719395
v 0.139183 2.890934 -5.900244
v 0.076467 2.890934 -5.955577
v -0.135646 2.856044 -6.064363
v -0.300918 2.331464 -5.901723
v -0.366163 2.568821 -5.775565
v -0.301761 3.509416 -5.426599
v -0.097534 3.509416 -5.403566
v 0.119231 3.474526 -5.442191
v 0.190308 3.474526 -5.538640
v 0.212008 3.000644 -5.808003
v 0.099474 4.134208 -5.864240
v 0.044810 4.134208 -5.959301
v -0.124199 4.134208 -5.943317
v -0.346287 3.509416 -5.897433
v -0.361757 3.509416 -5.658448
v -0.221135 4.402300 -5.509571
v -0.075009 4.402300 -5.423160
v 0.050478 4.402300 -5.435027
v 0.129875 4.402300 -5.542765
v 0.166901 4.402300 -5.708441
v 0.099474 4.402300 -5.864240
v 0.044810 4.402300 -5.959301
v -0.124199 4.402300 -5.943317
v -0.251536 4.402300 -5.831046
v -0.262100 4.402300 -5.667872
v 1.087248 3.471687 -6.740290
v -0.000000 3.471687 -7.190638
v -1.087248 3.471687 -6.740290
v -1.537596 3.471687 -5.653042
v -1.087248 3.471687 -4.565794
v -0.000000 3.471687 -4.115447
v 1.087248 3.471687 -4.565794
v 1.537596 3.471687 -5.653042
v 0.935518 3.707514 -6.588560
v -0.000000 3.707514 -6.976066
v -0.935518 3.707514 -6.588560
v -1.323022 3.707514 -5.653042
v -0.935518 3.707514 -4.717525
v -0.000000 3.707514 -4.330020
v 0.935518 3.707514 -4.717525
v 1.323022 3.707514 -5.653042
v 0.784006 4.178477 -6.437048
v -0.000000 4.178477 -6.761795
v -0.784006 4.178477 -6.437048
v -1.108752 4.178477 -5.653042
v -0.784006 4.178477 -4.869036
v -0.000000 4.178477 -4.544290
v 0.784006 4.178477 -4.869036
v 1.108752 4.178477 -5.653042
v 0.707107 4.734015 -6.360149
v -0.000000 4.734015 -6.653042
v -0.707107 4.734015 -6.360149
v -1.000000 4.734015 -5.653042
v -0.707107 4.734015 -4.945936
v -0.000000 4.734015 -4.653042
v 0.707107 4.734015 -4.945936
v 1.000000 4.734015 -5.653042
v 0.597790 5.289557 -6.250833
v -0.000000 5.289557 -6.498445
v -0.597790 5.289557 -6.250833
v -0.845403 5.289557 -5.653042
v -0.597790 5.289557 -5.055252
v -0.000000 5.289557 -4.807639
v 0.597790 5.289557 -5.055252
v 0.845404 5.289557 -5.653042
v 0.444063 5.760519 -6.036786
v -0.000000 5.760519 -6.220723
v -0.444063 5.760519 -6.036786
v -0.628000 5.760519 -5.592723
v -0.444063 5.760519 -5.148661
v -0.000000 5.760519 -4.964725
v 0.444063 5.760519 -5.148661
v 0.628000 5.760519 -5.592723
v 0.231521 6.006410 -5.884563
v -0.000000 6.006410 -5.980463
v -0.231521 6.006410 -5.884563
v -0.327420 6.006410 -5.653042
v -0.231521 6.006410 -5.421521
v -0.000000 6.006410 -5.325623
v 0.231521 6.006410 -5.421521
v 0.327420 6.006410 -5.653042
v -0.000000 6.116915 -5.653042
v 0.217852 3.644516 -5.870894
v -0.000000 3.644516 -5.961131
v -0.000000 3.623912 -5.653042
v -0.217852 3.644516 -5.870894
v -0.308089 3.644516 -5.653042
v -0.217852 3.644516 -5.435191
v -0.000000 3.644516 -5.344954
v 0.217852 3.644516 -5.435191
v 0.308089 3.644516 -5.653042
vt 0.021519 0.733071
vt 0.025584 0.702624
vt 0.095444 0.716929
vt 0.092905 0.742216
vt 0.027305 0.993391
vt 0.023435 0.970287
vt 0.095002 0.960295
vt 0.097319 0.979152
vt 0.022511 0.949109
vt 0.094232 0.942528
vt 0.018569 0.918767
vt 0.069952 0.915547
vt 0.004126 0.883995
vt 0.067996 0.884480
vt 0.004030 0.854039
vt 0.038459 0.852744
vt 0.003002 0.833407
vt 0.066310 0.829102
vt 0.002915 0.796794
vt 0.066514 0.797083
vt 0.010732 0.762441
vt 0.091576 0.768138
vt 0.283915 0.745827
vt 0.283645 0.761816
vt 0.256424 0.943191
vt 0.287384 0.965739
vt 0.254608 0.920855
vt 0.266262 0.902631
vt 0.404714 0.874946
vt 0.344291 0.850628
vt 0.307138 0.828255
vt 0.252046 0.800421
vt 0.282580 0.788204
vt 0.345631 0.736937
vt 0.346752 0.757305
vt 0.319314 0.939157
vt 0.349293 0.965084
vt 0.317295 0.914254
vt 0.315846 0.895421
vt 0.388641 0.862785
vt 0.382930 0.864905
vt 0.379250 0.835872
vt 0.314833 0.803744
vt 0.345378 0.788083
vt 0.467020 0.725951
vt 0.465458 0.750692
vt 0.461844 0.928707
vt 0.467999 0.955278
vt 0.460985 0.913580
vt 0.400499 0.881258
vt 0.542745 0.870157
vt 0.541522 0.856647
vt 0.540424 0.835885
vt 0.462086 0.808198
vt 0.463686 0.779559
vt 0.579574 0.746463
vt 0.576609 0.767544
vt 0.578592 0.928931
vt 0.579726 0.944715
vt 0.577597 0.912122
vt 0.576750 0.891075
vt 0.576358 0.869610
vt 0.575459 0.855482
vt 0.574360 0.834169
vt 0.574528 0.812031
vt 0.575869 0.789575
vt 0.379247 0.155884
vt 0.500524 0.070730
vt 0.500035 0.151528
vt 0.388329 0.196308
vt 0.620762 0.157346
vt 0.611191 0.197656
vt 0.735989 0.212311
vt 0.724472 0.249516
vt 0.856904 0.246839
vt 0.842445 0.289889
vt 0.996101 0.241599
vt 0.962306 0.325826
vt 0.002915 0.235591
vt 0.142040 0.242514
vt 0.155977 0.285736
vt 0.035690 0.320220
vt 0.263364 0.209451
vt 0.274429 0.246794
vt 0.499551 0.231572
vt 0.395773 0.255015
vt 0.603038 0.256269
vt 0.707192 0.299033
vt 0.811154 0.344515
vt 0.905885 0.398708
vt 0.186605 0.340736
vt 0.091225 0.393779
vt 0.291109 0.296515
vt 0.499090 0.307759
vt 0.406296 0.321891
vt 0.591707 0.323013
vt 0.683200 0.358111
vt 0.770581 0.405299
vt 0.846834 0.465656
vt 0.226440 0.402006
vt 0.149461 0.461437
vt 0.314384 0.355879
vt 0.498660 0.378848
vt 0.419498 0.388281
vt 0.577703 0.389239
vt 0.654649 0.417902
vt 0.726087 0.462327
vt 0.785053 0.525562
vt 0.270239 0.459569
vt 0.210513 0.522086
vt 0.342210 0.416012
vt 0.498260 0.445027
vt 0.434326 0.450503
vt 0.562123 0.451276
vt 0.623076 0.473564
vt 0.678312 0.508747
vt 0.715450 0.563576
vt 0.317450 0.506564
vt 0.279650 0.560939
vt 0.373106 0.472052
vt 0.497896 0.505019
vt 0.447916 0.503492
vt 0.547891 0.504096
vt 0.591694 0.523699
vt 0.632578 0.543174
vt 0.651354 0.576497
vt 0.362763 0.541542
vt 0.343584 0.574636
vt 0.403880 0.522563
vt 0.954195 0.002915
vt 0.981592 0.014263
vt 0.954196 0.041659
vt 0.926799 0.014263
vt 0.915452 0.041659
vt 0.926800 0.069056
vt 0.954196 0.080404
vt 0.981592 0.069056
vt 0.992940 0.041659
vt 0.457577 0.550964
vt 0.537656 0.551448
vt 0.597620 0.578152
vt 0.397294 0.576941
vt 0.281148 0.031138
vt 0.319406 0.002915
vt 0.682450 0.005111
vt 0.720364 0.033795
vt 0.786806 0.062196
vt 0.851756 0.083816
vt 0.895191 0.083926
vt 0.105725 0.079149
vt 0.149158 0.079566
vt 0.214366 0.058732
vn -0.773691 0.105696 0.624685
vn -0.255855 0.117535 0.959543
vn -0.270014 0.108500 0.956724
vn -0.728542 0.088115 0.679311
vn 0.533033 0.122270 0.837213
vn 0.405298 0.100051 0.908693
vn 0.928961 0.071024 0.363301
vn 0.872434 0.028874 0.487877
vn 0.997185 0.061258 -0.043250
vn 0.976040 0.029515 -0.215579
vn 0.858403 0.078958 -0.506862
vn 0.889157 0.021274 -0.457108
vn 0.377934 0.112773 -0.918939
vn 0.503735 0.061929 -0.861636
vn -0.535964 0.139050 -0.832711
vn -0.584329 0.054117 -0.809710
vn -0.892732 0.141591 -0.427763
vn -0.879687 0.079813 -0.468809
vn -0.982991 0.104470 0.151044
vn -0.989315 0.057044 0.134171
vn -0.379878 0.015261 0.924911
vn -0.721098 0.027531 0.692286
vn 0.239747 0.044958 0.969794
vn 0.848844 -0.012087 0.528505
vn 0.929990 0.003205 -0.367571
vn 0.869924 -0.002472 -0.493180
vn 0.798468 0.026339 -0.601461
vn -0.510032 0.009247 -0.860106
vn -0.860978 0.034641 -0.507462
vn -0.978200 -0.011872 0.207324
vn -0.202899 -0.075904 0.976253
vn -0.706993 -0.106148 0.699210
vn 0.231026 -0.076764 0.969915
vn 0.898778 -0.014743 0.438157
vn 0.982596 -0.044959 -0.180232
vn 0.655059 -0.032931 -0.754860
vn 0.382312 0.038915 -0.923213
vn -0.309380 0.041721 -0.950023
vn -0.746592 -0.063701 -0.662226
vn -0.997357 -0.043066 0.058510
vn -0.121327 -0.020145 0.992408
vn -0.715836 -0.004212 0.698256
vn 0.376852 -0.001099 0.926273
vn 0.949542 0.035192 0.311661
vn 0.982217 0.048495 -0.181379
vn 0.853867 0.041663 -0.518821
vn 0.415539 0.037205 -0.908814
vn -0.168938 0.061319 -0.983718
vn -0.794044 0.045507 -0.606154
vn -0.994415 0.032018 0.100571
vn -0.079565 0.042575 0.995920
vn -0.742101 0.105173 0.661986
vn 0.449257 0.030950 0.892866
vn 0.963031 0.047462 0.265176
vn 0.993727 0.046604 -0.101661
vn 0.878616 0.042395 -0.475644
vn 0.333326 0.000000 -0.942812
vn -0.416215 0.065528 -0.906902
vn -0.918978 0.114575 -0.377296
vn -0.989368 0.111405 0.093489
vn 0.225985 -0.947556 -0.225985
vn 0.000000 -0.947573 -0.319541
vn 0.000000 0.595331 -0.803481
vn 0.568143 0.595337 -0.568143
vn -0.225985 -0.947556 -0.225985
vn -0.568143 0.595337 -0.568143
vn -0.319541 -0.947573 0.000000
vn -0.803481 0.595331 0.000000
vn -0.225985 -0.947556 0.225985
vn -0.568143 0.595337 0.568143
vn 0.000000 -0.947573 0.319541
vn 0.000000 0.595331 0.803481
vn 0.225985 -0.947556 0.225985
vn 0.568143 0.595337 0.568143
vn 0.319541 -0.947573 0.000000
vn 0.803481 0.595331 0.000000
vn 0.000000 0.316118 -0.948720
vn 0.670849 0.316105 -0.670849
vn -0.670849 0.316105 -0.670849
vn -0.948720 0.316118 0.000000
vn -0.670849 0.316105 0.670849
vn 0.000000 0.316118 0.948720
vn 0.670849 0.316105 0.670849
vn 0.948720 0.316118 0.000000
vn 0.000000 0.166488 -0.986044
vn 0.697238 0.166489 -0.697238
vn -0.697238 0.166489 -0.697238
vn -0.986044 0.166488 0.000000
vn -0.697238 0.166489 0.697238
vn 0.000000 0.166488 0.986044
vn 0.697238 0.166489 0.697238
vn 0.986044 0.166488 0.000000
vn 0.000000 0.252799 -0.967519
vn 0.684139 0.252799 -0.684139
vn -0.684139 0.252799 -0.684139
vn -0.967519 0.252799 0.000000
vn -0.684139 0.252799 0.684139
vn 0.000000 0.252799 0.967519
vn 0.684139 0.252799 0.684139
vn 0.967519 0.252799 0.000000
vn 0.000000 0.516335 -0.856387
vn 0.605537 0.516381 -0.605537
vn -0.605537 0.516381 -0.605537
vn -0.856387 0.516335 0.000000
vn -0.605537 0.516381 0.605537
vn 0.000000 0.516335 0.856387
vn 0.605537 0.516381 0.605537
vn 0.856387 0.516335 0.000000
vn 0.000000 0.770924 -0.636927
vn 0.450372 0.770929 -0.450372
vn -0.450372 0.770929 -0.450372
vn -0.636927 0.770924 0.000000
vn -0.450372 0.770929 0.450372
vn 0.000000 0.770924 0.636927
vn 0.450372 0.770929 0.450372
vn 0.636927 0.770924 0.000000
vn 0.000000 -0.983602 0.180354
vn -0.127462 -0.983619 0.127462
vn 0.000000 -1.000000 0.000000
vn 0.127462 -0.983619 0.127462
vn 0.180354 -0.983602 0.000000
vn 0.127462 -0.983619 -0.127462
vn 0.000000 -0.983602 -0.180354
vn -0.127462 -0.983619 -0.127462
vn -0.180354 -0.983602 0.000000
vn 0.000000 1.000000 0.000000
s 1
g Inkcap_3_LP:Shaggy_Inkcap_3Shaggy_Inkcaps Shaggy_Inkcaps
usemtl initialShadingGroup
f 1/1/1 2/2/2 12/3/3 11/4/4
f 2/5/2 3/6/5 13/7/6 12/8/3
f 3/6/5 4/9/7 14/10/8 13/7/6
f 4/9/7 5/11/9 15/12/10 14/10/8
f 5/11/9 6/13/11 16/14/12 15/12/10
f 6/13/11 7/15/13 17/16/14 16/14/12
f 7/15/13 8/17/15 18/18/16 17/16/14
f 8/17/15 9/19/17 19/20/18 18/18/16
f 9/19/17 10/21/19 20/22/20 19/20/18
f 10/21/19 1/1/1 11/4/4 20/22/20
f 12/3/3 22/23/21 21/24/22 11/4/4
f 13/7/6 23/25/23 22/26/21 12/8/3
f 14/10/8 24/27/24 23/25/23 13/7/6
f 15/12/10 25/28/25 24/27/24 14/10/8
f 16/14/12 26/29/26 25/28/25 15/12/10
f 17/16/14 27/30/27 26/29/26 16/14/12
f 18/18/16 28/31/28 27/30/27 17/16/14
f 19/20/18 29/32/29 28/31/28 18/18/16
f 20/22/20 30/33/30 29/32/29 19/20/18
f 11/4/4 21/24/22 30/33/30 20/22/20
f 21/24/22 22/23/21 32/34/31 31/35/32
f 22/26/21 23/25/23 33/36/33 32/37/31
f 23/25/23 24/27/24 34/38/34 33/36/33
f 24/27/24 25/28/25 35/39/35 34/38/34
f 25/28/25 26/29/26 36/40/36 35/39/35
f 26/29/26 27/30/27 37/41/37 36/40/36
f 27/30/27 28/31/28 38/42/38 37/41/37
f 28/31/28 29/32/29 39/43/39 38/42/38
f 29/32/29 30/33/30 40/44/40 39/43/39
f 30/33/30 21/24/22 31/35/32 40/44/40
f 32/34/31 42/45/41 41/46/42 31/35/32
f 33/36/33 43/47/43 42/48/41 32/37/31
f 34/38/34 44/49/44 43/47/43 33/36/33
f 35/39/35 45/50/45 44/49/44 34/38/34
f 36/40/36 46/51/46 45/50/45 35/39/35
f 37/41/37 47/52/47 46/51/46 36/40/36
f 38/42/38 48/53/48 47/52/47 37/41/37
f 39/43/39 49/54/49 48/53/48 38/42/38
f 40/44/40 50/55/50 49/54/49 39/43/39
f 31/35/32 41/46/42 50/55/50 40/44/40
f 41/46/42 42/45/41 52/56/51 51/57/52
f 42/48/41 43/47/43 53/58/53 52/59/51
f 43/47/43 44/49/44 54/60/54 53/58/53
f 44/49/44 45/50/45 55/61/55 54/60/54
f 45/50/45 46/51/46 56/62/56 55/61/55
f 46/51/46 47/52/47 57/63/57 56/62/56
f 47/52/47 48/53/48 58/64/58 57/63/57
f 48/53/48 49/54/49 59/65/59 58/64/58
f 49/54/49 50/55/50 60/66/60 59/65/59
f 50/55/50 41/46/42 51/57/52 60/66/60
s 2
f 61/67/61 62/68/62 70/69/63 69/70/64
f 62/68/62 63/71/65 71/72/66 70/69/63
f 63/71/65 64/73/67 72/74/68 71/72/66
f 64/73/67 65/75/69 73/76/70 72/74/68
f 65/75/69 66/77/71 74/78/72 73/76/70
f 66/79/71 67/80/73 75/81/74 74/82/72
f 67/80/73 68/83/75 76/84/76 75/81/74
f 68/83/75 61/67/61 69/70/64 76/84/76
f 69/70/64 70/69/63 78/85/77 77/86/78
f 70/69/63 71/72/66 79/87/79 78/85/77
f 71/72/66 72/74/68 80/88/80 79/87/79
f 72/74/68 73/76/70 81/89/81 80/88/80
f 73/76/70 74/78/72 82/90/82 81/89/81
f 74/82/72 75/81/74 83/91/83 82/92/82
f 75/81/74 76/84/76 84/93/84 83/91/83
f 76/84/76 69/70/64 77/86/78 84/93/84
f 77/86/78 78/85/77 86/94/85 85/95/86
f 78/85/77 79/87/79 87/96/87 86/94/85
f 79/87/79 80/88/80 88/97/88 87/96/87
f 80/88/80 81/89/81 89/98/89 88/97/88
f 81/89/81 82/90/82 90/99/90 89/98/89
f 82/92/82 83/91/83 91/100/91 90/101/90
f 83/91/83 84/93/84 92/102/92 91/100/91
f 84/93/84 77/86/78 85/95/86 92/102/92
f 85/95/86 86/94/85 94/103/93 93/104/94
f 86/94/85 87/96/87 95/105/95 94/103/93
f 87/96/87 88/97/88 96/106/96 95/105/95
f 88/97/88 89/98/89 97/107/97 96/106/96
f 89/98/89 90/99/90 98/108/98 97/107/97
f 90/101/90 91/100/91 99/109/99 98/110/98
f 91/100/91 92/102/92 100/111/100 99/109/99
f 92/102/92 85/95/86 93/104/94 100/111/100
f 93/104/94 94/103/93 102/112/101 101/113/102
f 94/103/93 95/105/95 103/114/103 102/112/101
f 95/105/95 96/106/96 104/115/104 103/114/103
f 96/106/96 97/107/97 105/116/105 104/115/104
f 97/107/97 98/108/98 106/117/106 105/116/105
f 98/110/98 99/109/99 107/118/107 106/119/106
f 99/109/99 100/111/100 108/120/108 107/118/107
f 100/111/100 93/104/94 101/113/102 108/120/108
f 101/113/102 102/112/101 110/121/109 109/122/110
f 102/112/101 103/114/103 111/123/111 110/121/109
f 103/114/103 104/115/104 112/124/112 111/123/111
f 104/115/104 105/116/105 113/125/113 112/124/112
f 105/116/105 106/117/106 114/126/114 113/125/113
f 106/119/106 107/118/107 115/127/115 114/128/114
f 107/118/107 108/120/108 116/129/116 115/127/115
f 108/120/108 101/113/102 109/122/110 116/129/116
f 119/130/117 118/131/118 120/132/119
f 121/133/120 119/130/117 120/132/119
f 122/134/121 121/133/120 120/132/119
f 123/135/122 122/134/121 120/132/119
f 124/136/123 123/135/122 120/132/119
f 125/137/124 124/136/123 120/132/119
f 126/138/125 125/137/124 120/132/119
f 118/131/118 126/138/125 120/132/119
f 109/122/110 110/121/109 117/139/126
f 110/121/109 111/123/111 117/140/126
f 111/123/111 112/124/112 117/140/126
f 112/124/112 113/125/113 117/141/126
f 113/125/113 114/126/114 117/141/126
f 114/128/114 115/127/115 117/142/126
f 115/127/115 116/129/116 117/142/126
f 116/129/116 109/122/110 117/139/126
f 62/68/62 61/67/61 118/143/118 119/144/117
f 63/71/65 62/68/62 119/145/117 121/146/120
f 64/73/67 63/71/65 121/146/120 122/147/121
f 65/75/69 64/73/67 122/147/121 123/148/122
f 66/77/71 65/75/69 123/148/122 124/149/123
f 67/80/73 66/79/71 124/150/123 125/151/124
f 68/83/75 67/80/73 125/151/124 126/152/125
f 61/67/61 68/83/75 126/152/125 118/143/118
