# This file uses centimeters as units for non-parametric coordinates.

mtllib Body_Snake_VTest.mtl
g default
v -2.256437 -0.148036 13.950636
v -2.214856 0.391499 13.980691
v 2.214856 0.391499 13.980691
v 2.256437 -0.148036 13.950636
v -2.166642 -0.530486 13.966465
v 2.166642 -0.530486 13.966465
v -2.125444 -0.620093 13.987215
v 2.125444 -0.620093 13.987215
v 2.052367 -0.745482 13.990223
v -2.052367 -0.745482 13.990223
v -0.921983 1.706823 14.177382
v -0.342698 1.829109 14.261016
v 0.000000 1.866290 14.253868
v 0.342698 1.829109 14.261016
v -2.034831 0.818218 14.042485
v 2.034831 0.818218 14.042485
v -1.645984 1.283419 14.149784
v 0.921983 1.706823 14.177382
v 1.645984 1.283419 14.149784
v -1.878121 -1.048053 14.023394
v -1.943676 -0.954259 14.004033
v 1.943676 -0.954259 14.004033
v 1.878121 -1.048053 14.023394
v -1.678453 -1.259454 14.054145
v 1.678453 -1.259454 14.054145
v -1.409586 -1.449912 14.105094
v 1.409586 -1.449912 14.105094
v -0.970004 -1.688588 14.210428
v 0.970004 -1.688588 14.210428
v -0.450135 -1.834378 14.132713
v 0.450135 -1.834378 14.132713
v -0.000000 -1.869012 14.082472
v -1.999793 -0.860165 14.012139
v 1.999793 -0.860165 14.012139
v -2.322140 0.583470 6.867402
v -2.428802 0.001570 6.834935
v 2.428802 0.001570 6.834935
v 2.322140 0.583470 6.867402
v -2.374987 -0.425823 6.838420
v 2.374987 -0.425823 6.838420
v -2.334569 -0.549286 6.822872
v 2.334569 -0.549286 6.822872
v 2.301704 -0.637359 6.822708
v -2.301704 -0.637359 6.822708
v -0.316513 1.985032 7.143579
v -0.892244 1.863846 7.065200
v 0.316513 1.985032 7.143579
v 0.000000 2.001373 7.140080
v -2.074960 1.044462 6.932806
v 2.074960 1.044462 6.932806
v -1.628903 1.476053 7.037491
v 1.628903 1.476053 7.037491
v 0.892244 1.863846 7.065200
v -2.174090 -0.924979 6.855118
v -2.099862 -1.045925 6.880228
v 2.099862 -1.045925 6.880228
v 2.174090 -0.924979 6.855118
v -1.870528 -1.298139 6.925396
v 1.870528 -1.298139 6.925396
v -1.541825 -1.556993 6.980110
v 1.541825 -1.556993 6.980110
v -1.072742 -1.796741 7.099028
v 1.072742 -1.796741 7.099028
v -0.484967 -1.959357 7.014534
v 0.484967 -1.959357 7.014534
v 0.000000 -2.002779 6.933005
v -2.227199 -0.788087 6.869968
v 2.227199 -0.788087 6.869968
v -2.104232 -0.211717 19.007090
v -2.089491 0.282410 19.034771
v 2.089491 0.282410 19.034771
v 2.104232 -0.211717 19.007090
v -2.011267 -0.550058 19.023123
v 2.011267 -0.550058 19.023123
v -1.977764 -0.631391 19.043125
v 1.977764 -0.631391 19.043125
v 1.918186 -0.738386 19.047844
v -1.918186 -0.738386 19.047844
v -0.933930 1.591907 19.240778
v -0.365890 1.743130 19.324881
v -0.000000 1.769424 19.317549
v 0.365890 1.743130 19.324881
v -1.955120 0.679846 19.099173
v 1.955120 0.679846 19.099173
v -1.617796 1.148366 19.211912
v 0.933930 1.591907 19.240778
v 1.617796 1.148366 19.211912
v -1.749653 -1.017814 19.077810
v -1.783975 -0.962547 19.052792
v 1.783975 -0.962547 19.052792
v 1.749653 -1.017814 19.077810
v -1.577383 -1.199512 19.112091
v 1.577383 -1.199512 19.112091
v -1.330378 -1.386470 19.163052
v 1.330378 -1.386470 19.163052
v -0.898939 -1.602529 19.263746
v 0.898939 -1.602529 19.263746
v -0.441068 -1.741163 19.191401
v 0.441068 -1.741163 19.191401
v -0.000000 -1.784923 19.140291
v -1.860533 -0.831346 19.073074
v 1.860533 -0.831346 19.073074
vt 0.465010 0.875459
vt 0.460089 0.900466
vt 0.776916 0.700455
vt 0.766194 0.700810
vt 0.672046 0.901008
vt 0.667252 0.875977
vt 0.653444 0.701957
vt 0.642717 0.701819
vt 0.462001 0.918897
vt 0.784679 0.701005
vt 0.670040 0.919429
vt 0.634967 0.702527
vt 0.462915 0.924450
vt 0.786616 0.701486
vt 0.628433 0.561194
vt 0.633040 0.703047
vt 0.915057 0.557166
vt 0.630175 0.703273
vt 0.464062 0.928328
vt 0.808430 0.702789
vt 0.552668 0.815467
vt 0.527673 0.820674
vt 0.728398 0.704490
vt 0.716691 0.706219
vt 0.579903 0.815537
vt 0.566287 0.814826
vt 0.709867 0.706133
vt 0.703047 0.706358
vt 0.476090 0.855675
vt 0.757011 0.701902
vt 0.656274 0.856136
vt 0.662647 0.702861
vt 0.495882 0.837198
vt 0.744997 0.703940
vt 0.636578 0.837559
vt 0.604871 0.820872
vt 0.691307 0.704867
vt 0.674700 0.704655
vt 0.470774 0.940405
vt 0.474144 0.945607
vt 0.815535 0.703263
vt 0.813209 0.702930
vt 0.657760 0.946077
vt 0.661157 0.940891
vt 0.903437 0.702421
vt 0.901115 0.702780
vt 0.484145 0.956505
vt 0.821435 0.703756
vt 0.647703 0.956924
vt 0.895221 0.703339
vt 0.498418 0.967718
vt 0.828123 0.704670
vt 0.633373 0.968064
vt 0.888544 0.704329
vt 0.519197 0.978105
vt 0.838282 0.706649
vt 0.612541 0.978344
vt 0.878408 0.706423
vt 0.544714 0.985195
vt 0.849196 0.704961
vt 0.586989 0.985303
vt 0.867475 0.704857
vt 0.565846 0.987296
vt 0.858330 0.703879
vt 0.468185 0.934608
vt 0.810996 0.703155
vt 0.663775 0.935109
vt 0.905652 0.702620
vt 0.685708 0.886484
vt 0.687075 0.905394
vt 0.849624 0.900823
vt 0.849927 0.881866
vt 0.688900 0.873418
vt 0.846006 0.869000
vt 0.784172 0.801626
vt 0.844926 0.865719
vt 0.843132 0.861382
vt 0.812482 0.805141
vt 0.733797 0.954331
vt 0.755917 0.959601
vt 0.769955 0.960191
vt 0.783937 0.958812
vt 0.693067 0.920503
vt 0.844491 0.916245
vt 0.707100 0.938121
vt 0.805726 0.952309
vt 0.831470 0.934624
vt 0.698838 0.855267
vt 0.697170 0.857350
vt 0.836846 0.853423
vt 0.835063 0.851437
vt 0.705380 0.848136
vt 0.828131 0.844684
vt 0.714844 0.840723
vt 0.818265 0.837815
vt 0.731591 0.832016
vt 0.801055 0.830063
vt 0.749188 0.826217
vt 0.783161 0.825262
vt 0.766125 0.823969
vt 0.693514 0.861941
vt 0.840754 0.857801
vt 0.635104 0.803357
vt 0.905319 0.804616
vt 0.903097 0.805093
vt 0.814710 0.805593
vt 0.786591 0.801817
vt 0.691341 0.865650
vt 0.900028 0.804633
vt 0.817773 0.805098
vt 0.867887 0.807295
vt 0.858909 0.806297
vt 0.849943 0.807397
vt 0.877573 0.808756
vt 0.840274 0.808967
vt 0.887348 0.806750
vt 0.830476 0.807071
vt 0.893627 0.805761
vt 0.824186 0.806153
vt 0.898704 0.805120
vt 0.819103 0.805570
vt 0.675806 0.804893
vt 0.664310 0.802996
vt 0.745929 0.804180
vt 0.729785 0.804745
vt 0.703623 0.806625
vt 0.691958 0.805130
vt 0.718153 0.806478
vt 0.710886 0.806396
vt 0.757384 0.802050
vt 0.655959 0.802031
vt 0.765714 0.800915
vt 0.689793 0.870080
vt 0.637518 0.803117
vt 0.639234 0.802622
vt 0.782447 0.801166
vt 0.646154 0.801929
vt 0.775515 0.800614
vt 0.626574 0.561288
vt 0.667931 0.928850
vt 0.911636 0.558060
vt 0.803379 0.558672
vt 0.790198 0.559624
vt 0.799948 0.557817
vt 0.908670 0.557699
vt 0.806341 0.558277
vt 0.867376 0.560714
vt 0.857512 0.559103
vt 0.847666 0.560826
vt 0.879725 0.562416
vt 0.835337 0.562667
vt 0.890398 0.560042
vt 0.824638 0.560414
vt 0.898877 0.558998
vt 0.816148 0.559466
vt 0.905789 0.558161
vt 0.809227 0.558707
vt 0.673996 0.563808
vt 0.661658 0.562047
vt 0.742837 0.563109
vt 0.726352 0.563666
vt 0.702161 0.565413
vt 0.690489 0.564030
vt 0.714711 0.565286
vt 0.708435 0.565274
vt 0.755138 0.561097
vt 0.651264 0.561087
vt 0.765510 0.559926
vt 0.788338 0.559569
vt 0.669097 0.924977
vt 0.631017 0.561370
vt 0.785757 0.559796
vt 0.639534 0.560903
vt 0.777233 0.559503
vt 0.789485 0.701654
vt 0.908214 0.702224
vn -0.963547 0.266580 0.022620
vn -0.999731 0.001632 0.023116
vn -0.999330 -0.026672 0.025078
vn -0.969363 0.244376 0.024807
vn 0.999731 0.001632 0.023116
vn 0.963547 0.266580 0.022620
vn 0.969363 0.244376 0.024807
vn 0.999330 -0.026672 0.025078
vn -0.976134 -0.215923 0.023209
vn -0.970463 -0.239973 0.024797
vn 0.976134 -0.215923 0.023209
vn 0.970463 -0.239973 0.024797
vn -0.914770 -0.403318 0.023029
vn -0.904604 -0.425581 0.023924
vn 0.914770 -0.403318 0.023029
vn 0.904604 -0.425581 0.023924
vn 0.899887 -0.435467 0.023919
vn 0.891663 -0.452047 0.024313
vn -0.899887 -0.435467 0.023919
vn -0.891663 -0.452047 0.024313
vn -0.165164 0.986052 0.020565
vn -0.381527 0.924133 0.020406
vn -0.387890 0.921476 0.020584
vn -0.170692 0.985131 0.019520
vn 0.165164 0.986052 0.020565
vn -0.000000 0.999794 0.020295
vn -0.000000 0.999815 0.019252
vn 0.170692 0.985131 0.019520
vn -0.825007 0.564701 0.021832
vn -0.834632 0.550302 0.023611
vn 0.825007 0.564701 0.021832
vn 0.834632 0.550302 0.023611
vn -0.604871 0.796054 0.020717
vn -0.618714 0.785310 0.021918
vn 0.604871 0.796054 0.020717
vn 0.381527 0.924133 0.020406
vn 0.387890 0.921476 0.020584
vn 0.618714 0.785310 0.021918
vn -0.874509 -0.484329 0.025695
vn -0.773232 -0.633671 0.023923
vn -0.762589 -0.646453 0.023590
vn -0.864679 -0.501663 0.025760
vn 0.773232 -0.633671 0.023923
vn 0.874509 -0.484329 0.025695
vn 0.864679 -0.501663 0.025760
vn 0.762589 -0.646453 0.023590
vn -0.672829 -0.739453 0.022568
vn -0.661657 -0.749479 0.022144
vn 0.672829 -0.739453 0.022568
vn 0.661657 -0.749479 0.022144
vn -0.535784 -0.844080 0.021541
vn -0.522049 -0.852657 0.020992
vn 0.535784 -0.844080 0.021541
vn 0.522049 -0.852657 0.020992
vn -0.367056 -0.929988 0.019809
vn -0.366848 -0.930072 0.019727
vn 0.367056 -0.929988 0.019809
vn 0.366848 -0.930072 0.019727
vn -0.174428 -0.984498 0.018397
vn -0.186477 -0.982287 0.018422
vn 0.174428 -0.984498 0.018397
vn 0.186478 -0.982287 0.018422
vn 0.000000 -0.999832 0.018330
vn -0.000000 -0.999837 0.018060
vn -0.903539 -0.427762 0.025241
vn -0.890774 -0.453724 0.025632
vn 0.903539 -0.427762 0.025241
vn 0.890774 -0.453724 0.025632
vn -0.996920 -0.073160 0.028262
vn -0.979128 0.201264 0.028297
vn 0.979128 0.201264 0.028297
vn 0.996920 -0.073160 0.028262
vn -0.959664 -0.279825 0.027261
vn 0.959664 -0.279825 0.027261
vn -0.887907 -0.459350 0.024877
vn 0.887907 -0.459350 0.024877
vn 0.877281 -0.479337 0.024808
vn -0.877281 -0.479337 0.024808
vn -0.402021 0.915398 0.020614
vn -0.177659 0.983923 0.018243
vn 0.000000 0.999841 0.017847
vn 0.177659 0.983923 0.018243
vn -0.855227 0.517591 0.026214
vn 0.855227 0.517591 0.026214
vn -0.637629 0.769988 0.023397
vn 0.402021 0.915398 0.020614
vn 0.637629 0.769988 0.023397
vn -0.749500 -0.661600 0.023126
vn -0.848684 -0.528269 0.025818
vn 0.848684 -0.528269 0.025818
vn 0.749500 -0.661600 0.023126
vn -0.650901 -0.758861 0.021392
vn 0.650901 -0.758861 0.021392
vn -0.510523 -0.859627 0.020186
vn 0.510523 -0.859627 0.020186
vn -0.369292 -0.929105 0.019703
vn 0.369292 -0.929105 0.019703
vn -0.196150 -0.980398 0.018592
vn 0.196150 -0.980398 0.018592
vn -0.000000 -0.999845 0.017601
vn -0.871735 -0.489283 0.026070
vn 0.871735 -0.489283 0.026070
vn 0.000000 0.044459 -0.999011
vn 0.052198 0.027808 -0.998250
vn 0.051136 0.027471 -0.998314
vn 0.000000 0.044459 -0.999011
vn -0.052198 0.027808 -0.998250
vn -0.051136 0.027471 -0.998314
vn -0.038183 0.009013 -0.999230
vn -0.041880 0.008691 -0.999085
vn 0.038183 0.009013 -0.999230
vn 0.041880 0.008691 -0.999085
vn -0.134262 0.005532 -0.990930
vn -0.134724 0.005657 -0.990867
vn 0.134262 0.005532 -0.990930
vn 0.134724 0.005657 -0.990867
vn -0.198895 0.022422 -0.979764
vn -0.199066 0.022418 -0.979730
vn 0.198895 0.022422 -0.979764
vn 0.199066 0.022418 -0.979730
vn -0.217467 0.022335 -0.975812
vn -0.217681 0.022462 -0.975762
vn 0.217465 0.022335 -0.975813
vn 0.217679 0.022462 -0.975762
vn -0.228857 0.029823 -0.973003
vn -0.228724 0.029781 -0.973036
vn 0.228854 0.029823 -0.973004
vn 0.228722 0.029781 -0.973036
vn 0.056149 -0.056207 -0.996839
vn 0.057146 -0.056591 -0.996761
vn -0.056141 -0.056207 -0.996840
vn -0.057138 -0.056591 -0.996761
vn -0.882218 0.330538 -0.335315
vn -0.882218 0.330538 -0.335315
vn 0.882220 0.330535 -0.335313
vn 0.882220 0.330535 -0.335313
vn -0.031506 -0.031158 0.999018
vn 0.000000 -0.044865 0.998993
vn 0.000000 -0.044865 0.998993
vn -0.031218 -0.031060 0.999030
vn 0.031506 -0.031158 0.999018
vn 0.031218 -0.031060 0.999030
vn 0.046464 -0.014556 0.998814
vn 0.047930 -0.014476 0.998746
vn -0.046464 -0.014556 0.998814
vn -0.047930 -0.014476 0.998746
vn 0.132368 -0.015711 0.991076
vn 0.133189 -0.015919 0.990963
vn -0.132368 -0.015711 0.991076
vn -0.133189 -0.015919 0.990963
vn 0.251598 -0.045434 0.966765
vn 0.251609 -0.045434 0.966762
vn -0.251598 -0.045434 0.966765
vn -0.251609 -0.045434 0.966762
vn 0.279886 -0.046681 0.958898
vn 0.281134 -0.047132 0.958511
vn -0.279886 -0.046681 0.958898
vn -0.281134 -0.047132 0.958511
vn 0.346632 -0.070332 0.935361
vn 0.343638 -0.068859 0.936574
vn -0.346632 -0.070332 0.935361
vn -0.343638 -0.068859 0.936574
vn -0.209001 0.184488 0.960356
vn -0.209277 0.184585 0.960277
vn 0.209022 0.184488 0.960351
vn 0.209298 0.184585 0.960272
vn 0.197226 0.031205 0.979861
vn 0.197226 0.031205 0.979861
vn -0.197356 0.031203 0.979835
vn -0.197356 0.031203 0.979835
s 1
g Bodypart
usemtl Snake_RetopoUnfixed:initialShadingGroup
f 35/168/1 36/174/2 1/3/3 2/4/4
f 37/173/5 38/167/6 3/7/7 4/8/8
f 36/174/2 39/172/9 5/10/10 1/3/3
f 40/171/11 37/173/5 4/8/8 6/12/12
f 39/172/9 41/169/13 7/14/14 5/10/10
f 42/15/15 40/171/11 6/12/12 8/16/16
f 43/139/17 42/15/15 8/16/16 9/18/18
f 41/169/13 44/143/19 10/175/20 7/14/14
f 45/164/21 46/161/22 11/23/23 12/24/24
f 47/162/25 48/165/26 13/27/27 14/28/28
f 49/166/29 35/168/1 2/4/4 15/30/30
f 38/167/6 50/159/31 16/32/32 3/7/7
f 51/160/33 49/166/29 15/30/30 17/34/34
f 52/158/35 53/163/36 18/37/37 19/38/38
f 48/165/26 45/164/21 12/24/24 13/27/27
f 53/163/36 47/162/25 14/28/28 18/37/37
f 46/161/22 51/160/33 17/34/34 11/23/23
f 50/159/31 52/158/35 19/38/38 16/32/32
f 54/146/39 55/157/40 20/41/41 21/42/42
f 56/156/43 57/145/44 22/45/45 23/46/46
f 55/157/40 58/155/47 24/48/48 20/41/41
f 59/154/49 56/156/43 23/46/46 25/50/50
f 58/155/47 60/153/51 26/52/52 24/48/48
f 61/152/53 59/154/49 25/50/50 27/54/54
f 60/153/51 62/151/55 28/56/56 26/52/52
f 63/150/57 61/152/53 27/54/54 29/58/58
f 62/151/55 64/149/59 30/60/60 28/56/56
f 65/147/61 63/150/57 29/58/58 31/62/62
f 64/149/59 66/148/63 32/64/64 30/60/60
f 66/148/63 65/147/61 31/62/62 32/64/64
f 67/142/65 54/146/39 21/42/42 33/66/66
f 57/145/44 68/141/67 34/68/68 22/45/45
f 44/144/19 67/142/65 33/66/66 10/20/20
f 68/141/67 43/17/17 9/176/18 34/68/68
f 2/4/4 1/3/3 69/138/69 70/132/70
f 4/8/8 3/7/7 71/131/71 72/137/72
f 1/3/3 5/10/10 73/136/73 69/138/69
f 6/12/12 4/8/8 72/137/72 74/135/74
f 5/10/10 7/14/14 75/75/75 73/136/73
f 8/16/16 6/12/12 74/135/74 76/134/76
f 9/18/18 8/16/16 76/134/76 77/103/77
f 7/14/14 10/175/20 78/107/78 75/75/75
f 12/24/24 11/23/23 79/125/79 80/128/80
f 14/28/28 13/27/27 81/129/81 82/126/82
f 15/30/30 2/4/4 70/132/70 83/130/83
f 3/7/7 16/32/32 84/123/84 71/131/71
f 17/34/34 15/30/30 83/130/83 85/124/85
f 19/38/38 18/37/37 86/127/86 87/122/87
f 13/27/27 12/24/24 80/128/80 81/129/81
f 18/37/37 14/28/28 82/126/82 86/127/86
f 11/23/23 17/34/34 85/124/85 79/125/79
f 16/32/32 19/38/38 87/122/87 84/123/84
f 21/42/42 20/41/41 88/121/88 89/110/89
f 23/46/46 22/45/45 90/109/90 91/120/91
f 20/41/41 24/48/48 92/119/92 88/121/88
f 25/50/50 23/46/46 91/120/91 93/118/93
f 24/48/48 26/52/52 94/117/94 92/119/92
f 27/54/54 25/50/50 93/118/93 95/116/95
f 26/52/52 28/56/56 96/115/96 94/117/94
f 29/58/58 27/54/54 95/116/95 97/114/97
f 28/56/56 30/60/60 98/113/98 96/115/96
f 31/62/62 29/58/58 97/114/97 99/111/99
f 30/60/60 32/64/64 100/112/100 98/113/98
f 32/64/64 31/62/62 99/111/99 100/112/100
f 33/66/66 21/42/42 89/110/89 101/106/101
f 22/45/45 34/68/68 102/105/102 90/109/90
f 10/20/20 33/66/66 101/106/101 78/78/78
f 34/68/68 9/176/18 77/104/77 102/105/102
s 6
f 48/26/103 47/25/104 65/61/105 66/63/106
f 45/21/107 48/26/103 66/63/106 64/59/108
f 47/25/104 53/36/109 63/57/110 65/61/105
f 46/22/111 45/21/107 64/59/108 62/55/112
f 53/36/109 52/35/113 61/53/114 63/57/110
f 51/33/115 46/22/111 62/55/112 60/51/116
f 52/35/113 50/31/117 59/49/118 61/53/114
f 49/29/119 51/33/115 60/51/116 58/47/120
f 50/31/117 38/6/121 56/43/122 59/49/118
f 35/1/123 49/29/119 58/47/120 55/40/124
f 38/6/121 37/5/125 57/44/126 56/43/122
f 36/2/127 35/1/123 55/40/124 54/39/128
f 37/5/125 40/11/129 68/67/130 57/44/126
f 39/9/131 36/2/127 54/39/128 67/65/132
f 40/11/129 42/170/133 43/140/134 68/67/130
f 41/13/135 39/9/131 67/65/132 44/19/136
s 7
f 82/82/137 81/81/138 100/100/139 99/99/140
f 81/81/138 80/80/141 98/98/142 100/100/139
f 86/86/143 82/82/137 99/99/140 97/97/144
f 80/80/141 79/79/145 96/96/146 98/98/142
f 87/87/147 86/86/143 97/97/144 95/95/148
f 79/79/145 85/85/149 94/94/150 96/96/146
f 84/84/151 87/87/147 95/95/148 93/93/152
f 85/85/149 83/83/153 92/92/154 94/94/150
f 71/71/155 84/84/151 93/93/152 91/91/156
f 83/83/153 70/70/157 88/88/158 92/92/154
f 72/72/159 71/71/155 91/91/156 90/90/160
f 70/70/157 69/69/161 89/89/162 88/88/158
f 74/74/163 72/72/159 90/90/160 102/102/164
f 69/69/161 73/73/165 101/101/166 89/89/162
f 76/76/167 74/74/163 102/102/164 77/77/168
f 73/73/165 75/133/169 78/108/170 101/101/166
