# This file uses centimeters as units for non-parametric coordinates.

g default
v -31.647520 0.000000 8.475764
v -20.647520 0.000000 3.531366
v -31.647520 11.000000 8.475764
v -20.647520 11.000000 3.531366
v -35.641307 11.000000 -6.476447
v -20.647520 11.000000 -3.531366
v -35.641307 0.000000 -6.476447
v -20.647520 0.000000 -3.531366
v -5.492187 0.000000 -7.447417
v -5.492187 0.000000 7.447417
v -5.492187 11.000000 -7.447417
v -5.492187 11.000000 7.447417
v -16.144507 0.000000 -3.295223
v -16.144507 11.000000 -3.295223
v -16.144507 11.000000 3.295223
v -16.144507 0.000000 3.295223
v 3.625515 0.000000 -8.168424
v 7.886347 0.000000 17.768669
v 3.625515 11.000000 -8.168424
v 7.886347 11.000000 17.768669
v 5.619365 0.000000 -9.572818
v 5.619365 11.000000 -9.572818
v 13.657611 10.733400 15.209805
v 13.657611 -0.266600 15.209805
v 8.381763 0.000000 -11.518548
v 21.623706 -0.651810 10.728296
v 21.623706 10.348190 10.728296
v 8.381763 11.000000 -11.518548
v 10.864383 0.000000 -13.267214
v 28.589296 -0.385211 5.006665
v 28.589296 10.614789 5.006665
v 10.864383 11.000000 -13.267214
v 31.415614 -0.192586 2.820467
v 31.339186 0.000000 -1.448500
v 31.415614 10.807414 2.820467
v 31.339186 11.000000 -1.448500
v 11.876396 0.000000 -13.980040
v 13.893614 0.000000 -13.971037
v 13.893614 11.000000 -13.971037
v 11.876396 11.000000 -13.980040
vt 0.375000 0.000000
vt 0.625000 0.000000
vt 0.375000 0.250000
vt 0.625000 0.250000
vt 0.375000 0.500000
vt 0.625000 0.500000
vt 0.375000 0.750000
vt 0.625000 0.750000
vt 0.875000 0.000000
vt 0.875000 0.250000
vt 0.125000 0.000000
vt 0.125000 0.250000
vt 0.625000 0.000000
vt 0.875000 0.000000
vt 0.875000 0.250000
vt 0.625000 0.250000
vt 0.875000 0.000000
vt 0.875000 0.250000
vt 0.625000 0.250000
vt 0.625000 0.000000
vt 0.625000 0.000000
vt 0.875000 0.000000
vt 0.875000 0.250000
vt 0.625000 0.250000
vt 0.875000 0.000000
vt 0.875000 0.250000
vt 0.625000 0.250000
vt 0.625000 0.000000
vt 0.875000 0.000000
vt 0.625000 0.000000
vt 0.625000 0.250000
vt 0.875000 0.250000
vt 0.625000 0.000000
vt 0.625000 0.250000
vt 0.875000 0.250000
vt 0.625000 0.000000
vt 0.625000 0.250000
vt 0.658978 0.250000
vt 0.658978 0.000000
vt 0.863229 0.000000
vt 0.875000 0.000000
vt 0.875000 0.250000
vt 0.875000 0.000000
vt 0.863229 0.250000
vn 0.409978 0.000000 0.912095
vn 0.316936 0.000000 0.948447
vn 0.316936 0.000000 0.948447
vn 0.409978 0.000000 0.912095
vn 0.000000 1.000000 0.000000
vn 0.000000 1.000000 0.000000
vn 0.000000 1.000000 0.000000
vn 0.000000 1.000000 0.000000
vn 0.192737 0.000000 -0.981250
vn 0.161037 0.000000 -0.986948
vn 0.161037 0.000000 -0.986948
vn 0.192737 0.000000 -0.981250
vn 0.583130 0.000000 -0.812379
vn 0.583130 0.000000 -0.812379
vn 0.583130 0.000000 -0.812379
vn 0.583130 0.000000 -0.812379
vn -0.966130 0.000000 0.258057
vn -0.966130 0.000000 0.258057
vn -0.966130 0.000000 0.258057
vn -0.966130 0.000000 0.258057
vn -0.250177 0.000000 -0.968200
vn -0.250177 0.000000 -0.968200
vn -0.239331 0.000000 -0.970938
vn -0.239331 0.000000 -0.970938
vn 0.000000 1.000000 0.000000
vn 0.000000 1.000000 0.000000
vn 0.000000 1.000000 0.000000
vn 0.000000 1.000000 0.000000
vn -0.250177 0.000000 0.968200
vn -0.250177 0.000000 0.968200
vn -0.515935 0.000000 0.856628
vn -0.515935 0.000000 0.856628
vn -0.187872 0.000000 -0.982193
vn -0.187872 0.000000 -0.982193
vn 0.015455 0.999880 -0.001281
vn 0.012556 0.999921 -0.001041
vn -0.610828 0.000000 0.791763
vn -0.610828 0.000000 0.791763
vn -0.575854 0.000000 -0.817553
vn -0.575854 0.000000 -0.817553
vn -0.575854 0.000000 -0.817553
vn -0.575854 0.000000 -0.817553
vn 0.035988 0.999352 0.000886
vn 0.035367 0.999374 0.000154
vn 0.017592 0.999731 0.015126
vn 0.015656 0.999744 0.016349
vn 0.454985 0.000000 0.890499
vn 0.457183 0.000000 0.889373
vn 0.564480 0.000000 0.825447
vn 0.563901 0.000000 0.825843
vn 0.405326 0.000000 0.914172
vn 0.405326 0.000000 0.914172
vn 0.628533 0.000000 0.777783
vn 0.628041 0.000000 0.778180
vn -0.009896 0.999431 0.032254
vn -0.008873 0.999459 0.031657
vn -0.575854 0.000000 -0.817552
vn -0.575854 0.000000 -0.817552
vn 0.611837 0.000000 0.790984
vn 0.611837 0.000000 0.790984
vn -0.021320 0.999061 0.037723
vn -0.021472 0.999071 0.037359
vn -0.022487 0.999137 0.034925
vn -0.022487 0.999137 0.034925
vn -0.575855 0.000000 -0.817552
vn -0.575855 0.000000 -0.817552
vn 0.999840 0.000000 -0.017900
vn 0.999840 0.000000 -0.017900
vn 0.999840 0.000000 -0.017900
vn 0.999840 0.000000 -0.017900
vn 0.004463 0.000000 -0.999990
vn 0.004463 0.000000 -0.999990
vn 0.004463 0.000000 -0.999990
vn 0.004463 0.000000 -0.999990
s 1
g CenterHub1S
f 1/1/1 2/2/2 4/4/3 3/3/4
s 2
f 3/3/5 4/4/6 6/6/7 5/5/8
s 3
f 5/5/9 6/6/10 8/8/11 7/7/12
s off
f 36/38/13 34/39/14 38/40/15 39/44/16
f 7/11/17 1/1/18 3/3/19 5/12/20
s 3
f 13/17/21 14/18/22 11/15/23 9/14/24
s 2
f 14/18/25 15/19/26 12/16/27 11/15/28
s 1
f 15/19/29 16/20/30 10/13/31 12/16/32
s 3
f 8/9/11 6/10/10 14/18/22 13/17/21
s 2
f 6/10/7 4/4/6 15/19/26 14/18/25
s 1
f 4/4/3 2/2/2 16/20/30 15/19/29
s 3
f 9/14/24 11/15/23 19/23/33 17/22/34
s 2
f 11/15/28 12/16/27 20/24/35 19/23/36
s 1
f 12/16/32 10/13/31 18/21/37 20/24/38
s 3
f 21/25/39 22/26/40 28/32/41 25/29/42
s 2
f 22/26/43 23/27/44 27/31/45 28/32/46
s 4
f 23/27/47 24/28/48 26/30/49 27/31/50
s 3
f 17/22/34 19/23/33 22/26/40 21/25/39
s 2
f 19/23/36 20/24/35 23/27/44 22/26/43
s 4
f 20/24/51 18/21/52 24/28/48 23/27/47
f 27/31/50 26/30/49 30/33/53 31/34/54
s 2
f 28/32/46 27/31/45 31/34/55 32/35/56
s 3
f 25/29/42 28/32/41 32/35/57 29/41/58
s 4
f 31/34/54 30/33/53 33/36/59 35/37/60
s 2
f 40/42/61 35/37/62 36/38/63 39/44/64
s 3
f 29/41/58 32/35/57 40/42/65 37/43/66
s off
f 33/36/67 34/39/68 36/38/69 35/37/70
f 38/40/71 37/43/72 40/42/73 39/44/74
s 2
f 32/35/56 31/34/55 35/37/62 40/42/61
