# This file uses centimeters as units for non-parametric coordinates.

g default
v 0.000000 0.646146 -7.427177
v 0.000000 0.646146 9.902389
v 0.951057 0.955163 -5.997151
v 0.475576 0.800670 -7.029202
v 0.809018 1.233932 -5.997151
v 0.404549 0.940068 -7.029202
v 0.587786 1.455163 -5.997151
v 0.293922 1.050695 -7.029202
v 0.309017 1.597203 -5.997151
v 0.154524 1.121722 -7.029202
v 0.000000 1.646146 -5.997151
v 0.000000 1.146196 -7.029202
v -0.309017 1.597203 -5.997151
v -0.154524 1.121722 -7.029202
v -0.587785 1.455163 -5.997151
v -0.293922 1.050695 -7.029202
v -0.809017 1.233931 -5.997151
v -0.404549 0.940068 -7.029202
v -0.951057 0.955163 -5.997151
v -0.475576 0.800670 -7.029202
v -1.000000 0.646146 -5.997151
v -0.500050 0.646146 -7.029202
v -0.951057 0.337129 -5.997151
v -0.475576 0.491622 -7.029202
v -0.809017 0.058361 -5.997151
v -0.404549 0.352224 -7.029202
v -0.587785 -0.162871 -5.997151
v -0.293922 0.241597 -7.029202
v -0.309017 -0.304911 -5.997151
v -0.154524 0.170570 -7.029202
v -0.000000 -0.353854 -5.997151
v -0.000000 0.146096 -7.029203
v 0.309017 -0.304911 -5.997151
v 0.154524 0.170570 -7.029203
v 0.587785 -0.162871 -5.997151
v 0.293922 0.241597 -7.029203
v 0.809017 0.058361 -5.997151
v 0.404549 0.352224 -7.029203
v 0.951057 0.337129 -5.997151
v 0.475576 0.491622 -7.029203
v 1.000000 0.646146 -5.997151
v 0.500050 0.646146 -7.029202
v 0.475576 0.800670 9.504416
v 0.951057 0.955163 8.472367
v 0.404549 0.940068 9.504416
v 0.809018 1.233932 8.472367
v 0.293922 1.050695 9.504416
v 0.587786 1.455163 8.472367
v 0.154524 1.121722 9.504416
v 0.309017 1.597203 8.472367
v 0.000000 1.146196 9.504416
v 0.000000 1.646146 8.472367
v -0.154524 1.121722 9.504416
v -0.309017 1.597203 8.472367
v -0.293922 1.050695 9.504416
v -0.587785 1.455163 8.472367
v -0.404549 0.940068 9.504416
v -0.809017 1.233931 8.472367
v -0.475576 0.800670 9.504416
v -0.951057 0.955163 8.472367
v -0.500050 0.646146 9.504416
v -1.000000 0.646146 8.472367
v -0.475576 0.491622 9.504416
v -0.951057 0.337129 8.472367
v -0.404549 0.352224 9.504416
v -0.809017 0.058361 8.472367
v -0.293922 0.241597 9.504416
v -0.587785 -0.162871 8.472367
v -0.154524 0.170570 9.504416
v -0.309017 -0.304911 8.472367
v -0.000000 0.146096 9.504416
v -0.000000 -0.353854 8.472367
v 0.154524 0.170570 9.504416
v 0.309017 -0.304911 8.472367
v 0.293922 0.241597 9.504416
v 0.587785 -0.162871 8.472367
v 0.404549 0.352224 9.504416
v 0.809017 0.058361 8.472367
v 0.475576 0.491622 9.504416
v 0.951057 0.337129 8.472367
v 0.500050 0.646146 9.504416
v 1.000000 0.646146 8.472367
vt 0.375000 0.327649
vt 0.378048 0.312500
vt 0.384144 0.312500
vt 0.621644 0.312500
vt 0.615547 0.312500
vt 0.390548 0.312500
vt 0.396644 0.312500
vt 0.403048 0.312500
vt 0.409144 0.312500
vt 0.415548 0.312500
vt 0.421644 0.312500
vt 0.428048 0.312500
vt 0.434144 0.312500
vt 0.440548 0.312500
vt 0.446644 0.312500
vt 0.453048 0.312500
vt 0.459144 0.312500
vt 0.465548 0.312500
vt 0.471644 0.312500
vt 0.478048 0.312500
vt 0.484144 0.312500
vt 0.490548 0.312500
vt 0.496644 0.312500
vt 0.503048 0.312500
vt 0.509144 0.312500
vt 0.515548 0.312500
vt 0.521644 0.312500
vt 0.528048 0.312500
vt 0.534144 0.312500
vt 0.540547 0.312500
vt 0.546644 0.312500
vt 0.553047 0.312500
vt 0.559144 0.312500
vt 0.565547 0.312500
vt 0.571644 0.312500
vt 0.578047 0.312500
vt 0.584144 0.312500
vt 0.590547 0.312500
vt 0.596644 0.312500
vt 0.603047 0.312500
vt 0.609144 0.312500
vt 0.574309 0.128981
vt 0.563211 0.107200
vt 0.545925 0.089914
vt 0.524144 0.078816
vt 0.500000 0.074992
vt 0.475856 0.078817
vt 0.454075 0.089915
vt 0.436789 0.107200
vt 0.425691 0.128981
vt 0.421867 0.153125
vt 0.425691 0.177270
vt 0.436789 0.199051
vt 0.454075 0.216336
vt 0.475856 0.227434
vt 0.500000 0.231258
vt 0.524144 0.227434
vt 0.545925 0.216336
vt 0.563211 0.199051
vt 0.574309 0.177270
vt 0.500000 0.150000
vt 0.578133 0.153125
vt 0.648512 0.892213
vt 0.626500 0.935413
vt 0.648634 0.891836
vt 0.656219 0.843948
vt 0.626267 0.935733
vt 0.591983 0.970017
vt 0.591663 0.970250
vt 0.548463 0.992262
vt 0.548086 0.992384
vt 0.500198 0.999969
vt 0.499802 0.999969
vt 0.451914 0.992384
vt 0.451537 0.992262
vt 0.408337 0.970250
vt 0.408017 0.970017
vt 0.373733 0.935733
vt 0.373500 0.935413
vt 0.351488 0.892213
vt 0.351366 0.891836
vt 0.343781 0.843948
vt 0.343781 0.843552
vt 0.351366 0.795664
vt 0.351488 0.795287
vt 0.373500 0.752087
vt 0.373733 0.751767
vt 0.408017 0.717483
vt 0.408337 0.717250
vt 0.451537 0.695238
vt 0.451914 0.695116
vt 0.499802 0.687531
vt 0.500198 0.687531
vt 0.548086 0.695116
vt 0.548463 0.695238
vt 0.591663 0.717250
vt 0.591983 0.717483
vt 0.626267 0.751767
vt 0.626500 0.752087
vt 0.648512 0.795287
vt 0.648634 0.795664
vt 0.656219 0.843552
vt 0.563211 0.886551
vt 0.545925 0.903836
vt 0.524144 0.914934
vt 0.500000 0.918758
vt 0.475856 0.914934
vt 0.454075 0.903836
vt 0.436789 0.886551
vt 0.425691 0.864770
vt 0.421867 0.840625
vt 0.425691 0.816481
vt 0.436789 0.794700
vt 0.454075 0.777415
vt 0.475856 0.766316
vt 0.500000 0.762492
vt 0.524144 0.766317
vt 0.545925 0.777415
vt 0.563211 0.794700
vt 0.574309 0.816481
vt 0.578133 0.840625
vt 0.574309 0.864770
vt 0.500000 0.837500
vt 0.387500 0.327649
vt 0.375000 0.673291
vt 0.400000 0.327648
vt 0.387500 0.673291
vt 0.412500 0.327649
vt 0.400000 0.673291
vt 0.425000 0.327649
vt 0.412500 0.673291
vt 0.437500 0.327649
vt 0.425000 0.673291
vt 0.450000 0.327648
vt 0.437500 0.673291
vt 0.462500 0.327649
vt 0.450000 0.673291
vt 0.475000 0.327648
vt 0.462500 0.673291
vt 0.487500 0.327649
vt 0.475000 0.673291
vt 0.500000 0.327649
vt 0.487500 0.673291
vt 0.512500 0.327649
vt 0.500000 0.673291
vt 0.525000 0.327648
vt 0.512500 0.673291
vt 0.537500 0.327649
vt 0.525000 0.673291
vt 0.550000 0.327648
vt 0.537500 0.673291
vt 0.562500 0.327649
vt 0.550000 0.673291
vt 0.575000 0.327649
vt 0.562500 0.673291
vt 0.587500 0.327649
vt 0.575000 0.673291
vt 0.600000 0.327649
vt 0.587500 0.673291
vt 0.612500 0.327648
vt 0.600000 0.673291
vt 0.625000 0.327648
vt 0.625000 0.673291
vt 0.612500 0.673291
vn 0.950820 0.308939 -0.022324
vn 0.830462 0.269833 -0.487364
vn 0.706433 0.513254 -0.487364
vn 0.808815 0.587639 -0.022324
vn 0.999751 -0.000001 -0.022324
vn 0.873199 -0.000000 -0.487363
vn 0.513253 0.706433 -0.487364
vn 0.587638 0.808816 -0.022324
vn 0.269833 0.830462 -0.487364
vn 0.308940 0.950820 -0.022324
vn -0.000000 0.873199 -0.487364
vn -0.000000 0.999751 -0.022324
vn -0.269834 0.830462 -0.487364
vn -0.308940 0.950819 -0.022324
vn -0.513254 0.706433 -0.487364
vn -0.587639 0.808815 -0.022324
vn -0.706433 0.513253 -0.487364
vn -0.808816 0.587639 -0.022324
vn -0.830462 0.269833 -0.487363
vn -0.950820 0.308940 -0.022324
vn -0.873199 0.000000 -0.487363
vn -0.999751 0.000000 -0.022324
vn -0.830462 -0.269833 -0.487364
vn -0.950820 -0.308940 -0.022324
vn -0.706433 -0.513254 -0.487363
vn -0.808815 -0.587639 -0.022324
vn -0.513254 -0.706433 -0.487363
vn -0.587639 -0.808815 -0.022324
vn -0.269834 -0.830462 -0.487363
vn -0.308940 -0.950820 -0.022324
vn -0.000000 -0.873199 -0.487363
vn 0.000000 -0.999751 -0.022324
vn 0.269834 -0.830462 -0.487363
vn 0.308940 -0.950820 -0.022324
vn 0.513254 -0.706433 -0.487363
vn 0.587639 -0.808815 -0.022324
vn 0.706433 -0.513253 -0.487363
vn 0.808815 -0.587639 -0.022324
vn 0.830462 -0.269832 -0.487363
vn 0.950820 -0.308940 -0.022324
vn -0.000001 0.000001 -1.000000
vn 0.830462 0.269832 0.487364
vn 0.950820 0.308939 0.022324
vn 0.808815 0.587639 0.022324
vn 0.706433 0.513253 0.487364
vn 0.873199 -0.000001 0.487364
vn 0.999751 -0.000001 0.022324
vn 0.587639 0.808816 0.022324
vn 0.513253 0.706433 0.487364
vn 0.308940 0.950820 0.022324
vn 0.269833 0.830461 0.487364
vn -0.000000 0.999751 0.022324
vn -0.000000 0.873199 0.487365
vn -0.308940 0.950820 0.022324
vn -0.269833 0.830461 0.487364
vn -0.587639 0.808815 0.022324
vn -0.513254 0.706432 0.487364
vn -0.808816 0.587639 0.022324
vn -0.706433 0.513252 0.487365
vn -0.950820 0.308940 0.022324
vn -0.830462 0.269833 0.487364
vn -0.999751 -0.000000 0.022324
vn -0.873199 -0.000001 0.487364
vn -0.950819 -0.308940 0.022324
vn -0.830461 -0.269833 0.487364
vn -0.808815 -0.587639 0.022324
vn -0.706433 -0.513253 0.487365
vn -0.587639 -0.808816 0.022324
vn -0.513253 -0.706433 0.487364
vn -0.308940 -0.950820 0.022324
vn -0.269833 -0.830461 0.487364
vn 0.000000 -0.999751 0.022324
vn 0.000000 -0.873199 0.487364
vn 0.308940 -0.950820 0.022324
vn 0.269833 -0.830461 0.487364
vn 0.587639 -0.808815 0.022324
vn 0.513253 -0.706432 0.487364
vn 0.808815 -0.587639 0.022324
vn 0.706433 -0.513254 0.487364
vn 0.950820 -0.308940 0.022324
vn 0.830461 -0.269834 0.487364
vn -0.000000 -0.000000 1.000000
s 1
g Crystal
f 3/1/1 4/2/2 6/3/3 5/124/4
f 4/4/2 3/162/1 41/160/5 42/5/6
f 5/124/4 6/6/3 8/7/7 7/126/8
f 7/126/8 8/8/7 10/9/9 9/128/10
f 9/128/10 10/10/9 12/11/11 11/130/12
f 11/130/12 12/12/11 14/13/13 13/132/14
f 13/132/14 14/14/13 16/15/15 15/134/16
f 15/134/16 16/16/15 18/17/17 17/136/18
f 17/136/18 18/18/17 20/19/19 19/138/20
f 19/138/20 20/20/19 22/21/21 21/140/22
f 21/140/22 22/22/21 24/23/23 23/142/24
f 23/142/24 24/24/23 26/25/25 25/144/26
f 25/144/26 26/26/25 28/27/27 27/146/28
f 27/146/28 28/28/27 30/29/29 29/148/30
f 29/148/30 30/30/29 32/31/31 31/150/32
f 31/150/32 32/32/31 34/33/33 33/152/34
f 33/152/34 34/34/33 36/35/35 35/154/36
f 35/154/36 36/36/35 38/37/37 37/156/38
f 37/156/38 38/38/37 40/39/39 39/158/40
f 39/158/40 40/40/39 42/41/6 41/160/5
f 6/43/3 4/42/2 1/61/41
f 8/44/7 6/43/3 1/61/41
f 10/45/9 8/44/7 1/61/41
f 12/46/11 10/45/9 1/61/41
f 14/47/13 12/46/11 1/61/41
f 16/48/15 14/47/13 1/61/41
f 18/49/17 16/48/15 1/61/41
f 20/50/19 18/49/17 1/61/41
f 22/51/21 20/50/19 1/61/41
f 24/52/23 22/51/21 1/61/41
f 26/53/25 24/52/23 1/61/41
f 28/54/27 26/53/25 1/61/41
f 30/55/29 28/54/27 1/61/41
f 32/56/31 30/55/29 1/61/41
f 34/57/33 32/56/31 1/61/41
f 36/58/35 34/57/33 1/61/41
f 38/59/37 36/58/35 1/61/41
f 40/60/39 38/59/37 1/61/41
f 42/62/6 40/60/39 1/61/41
f 4/42/2 42/62/6 1/61/41
f 43/122/42 44/63/43 46/64/44 45/103/45
f 44/65/43 43/122/42 81/121/46 82/66/47
f 45/103/45 46/67/44 48/68/48 47/104/49
f 47/104/49 48/69/48 50/70/50 49/105/51
f 49/105/51 50/71/50 52/72/52 51/106/53
f 51/106/53 52/73/52 54/74/54 53/107/55
f 53/107/55 54/75/54 56/76/56 55/108/57
f 55/108/57 56/77/56 58/78/58 57/109/59
f 57/109/59 58/79/58 60/80/60 59/110/61
f 59/110/61 60/81/60 62/82/62 61/111/63
f 61/111/63 62/83/62 64/84/64 63/112/65
f 63/112/65 64/85/64 66/86/66 65/113/67
f 65/113/67 66/87/66 68/88/68 67/114/69
f 67/114/69 68/89/68 70/90/70 69/115/71
f 69/115/71 70/91/70 72/92/72 71/116/73
f 71/116/73 72/93/72 74/94/74 73/117/75
f 73/117/75 74/95/74 76/96/76 75/118/77
f 75/118/77 76/97/76 78/98/78 77/119/79
f 77/119/79 78/99/78 80/100/80 79/120/81
f 79/120/81 80/101/80 82/102/47 81/121/46
f 43/122/42 45/103/45 2/123/82
f 45/103/45 47/104/49 2/123/82
f 47/104/49 49/105/51 2/123/82
f 49/105/51 51/106/53 2/123/82
f 51/106/53 53/107/55 2/123/82
f 53/107/55 55/108/57 2/123/82
f 55/108/57 57/109/59 2/123/82
f 57/109/59 59/110/61 2/123/82
f 59/110/61 61/111/63 2/123/82
f 61/111/63 63/112/65 2/123/82
f 63/112/65 65/113/67 2/123/82
f 65/113/67 67/114/69 2/123/82
f 67/114/69 69/115/71 2/123/82
f 69/115/71 71/116/73 2/123/82
f 71/116/73 73/117/75 2/123/82
f 73/117/75 75/118/77 2/123/82
f 75/118/77 77/119/79 2/123/82
f 77/119/79 79/120/81 2/123/82
f 79/120/81 81/121/46 2/123/82
f 81/121/46 43/122/42 2/123/82
f 3/1/1 5/124/4 46/127/44 44/125/43
f 5/124/4 7/126/8 48/129/48 46/127/44
f 7/126/8 9/128/10 50/131/50 48/129/48
f 9/128/10 11/130/12 52/133/52 50/131/50
f 11/130/12 13/132/14 54/135/54 52/133/52
f 13/132/14 15/134/16 56/137/56 54/135/54
f 15/134/16 17/136/18 58/139/58 56/137/56
f 17/136/18 19/138/20 60/141/60 58/139/58
f 19/138/20 21/140/22 62/143/62 60/141/60
f 21/140/22 23/142/24 64/145/64 62/143/62
f 23/142/24 25/144/26 66/147/66 64/145/64
f 25/144/26 27/146/28 68/149/68 66/147/66
f 27/146/28 29/148/30 70/151/70 68/149/68
f 29/148/30 31/150/32 72/153/72 70/151/70
f 31/150/32 33/152/34 74/155/74 72/153/72
f 33/152/34 35/154/36 76/157/76 74/155/74
f 35/154/36 37/156/38 78/159/78 76/157/76
f 37/156/38 39/158/40 80/161/80 78/159/78
f 39/158/40 41/160/5 82/164/47 80/161/80
f 41/160/5 3/162/1 44/163/43 82/164/47
