# This file uses centimeters as units for non-parametric coordinates.

g default
v -5.500000 -0.500000 5.500000
v 5.500000 -0.500000 5.500000
v -5.500000 10.500000 5.500000
v 5.500000 10.500000 5.500000
v -13.214660 10.500000 -12.265889
v 1.463903 10.500000 -12.265889
v -13.214660 -0.500000 -12.265889
v 1.463903 -0.500000 -12.265889
v 3.628187 10.500000 -2.739251
v 3.628187 -0.500000 -2.739251
v -9.876072 -0.500000 -8.844321
v 2.241223 -0.500000 -8.844321
v 2.241223 10.500000 -8.844321
v -9.876072 10.500000 -8.844321
v -6.243038 10.500000 1.171377
v 4.516613 10.500000 1.171377
v 4.516613 -0.500000 1.171377
v -6.243038 -0.500000 1.171377
v -8.179145 10.500000 -5.784790
v 2.936294 10.500000 -5.784790
v 2.936294 -0.500000 -5.784790
v -8.179145 -0.500000 -5.784790
v 4.267874 -0.500000 0.076491
v 4.267874 10.500000 0.076491
v -6.718481 10.500000 0.076491
v -6.718480 -0.500000 0.076491
v -7.231096 10.500000 -1.331521
v -6.253511 10.500000 -2.739251
v -7.955695 10.500000 -4.222287
v -7.955695 -0.500000 -4.222287
v -6.253511 -0.500000 -2.739251
v -7.231095 -0.500000 -1.331521
vt 0.375000 0.000000
vt 0.625000 0.000000
vt 0.375000 0.250000
vt 0.625000 0.250000
vt 0.375000 0.500000
vt 0.625000 0.500000
vt 0.375000 0.750000
vt 0.625000 0.750000
vt 0.375000 1.000000
vt 0.625000 1.000000
vt 0.875000 0.000000
vt 0.875000 0.250000
vt 0.125000 0.000000
vt 0.125000 0.250000
vt 0.740942 0.250000
vt 0.740942 0.000000
vt 0.173148 0.000000
vt 0.375000 0.798148
vt 0.625000 0.798148
vt 0.826852 0.000000
vt 0.625000 0.451852
vt 0.826852 0.250000
vt 0.173148 0.250000
vt 0.375000 0.451852
vt 0.314088 0.250000
vt 0.375000 0.310912
vt 0.625000 0.310912
vt 0.685912 0.250000
vt 0.625000 0.939088
vt 0.685912 0.000000
vt 0.314088 0.000000
vt 0.375000 0.939088
vt 0.216201 0.250000
vt 0.625000 0.408799
vt 0.783799 0.250000
vt 0.625000 0.841201
vt 0.783799 0.000000
vt 0.216201 0.000000
vt 0.375000 0.841201
vt 0.701319 0.000000
vt 0.625000 0.326319
vt 0.701319 0.250000
vt 0.298681 0.250000
vt 0.375000 0.326319
vt 0.298681 0.000000
vt 0.625000 0.365942
vt 0.375000 0.346133
vt 0.375000 0.408799
vt 0.375000 0.863189
vt 0.625000 0.884058
vt 0.625000 0.923681
vt 0.375000 0.923681
vt 0.278867 0.000000
vt 0.238189 0.250000
vt 0.278867 0.250000
vt 0.238189 0.000000
vt 0.407759 0.365942
vt 0.375000 0.386811
vt 0.407759 0.884058
vt 0.375000 0.903867
vn 0.000000 0.000000 1.000000
vn 0.000000 0.000000 1.000000
vn 0.000000 0.000000 1.000000
vn 0.000000 0.000000 1.000000
vn 0.000000 1.000000 0.000000
vn 0.000000 1.000000 0.000000
vn 0.000000 1.000000 0.000000
vn 0.000000 1.000000 0.000000
vn 0.000000 0.000000 -1.000000
vn 0.000000 0.000000 -1.000000
vn 0.000000 0.000000 -1.000000
vn 0.000000 0.000000 -1.000000
vn 0.000000 -1.000000 0.000000
vn 0.000000 -1.000000 0.000000
vn 0.000000 -1.000000 0.000000
vn 0.000000 -1.000000 0.000000
vn 0.975152 0.000000 -0.221537
vn 0.975152 0.000000 -0.221537
vn 0.975152 0.000000 -0.221537
vn 0.975152 0.000000 -0.221537
vn -0.789667 0.000000 0.613535
vn -0.789667 0.000000 0.613535
vn -0.923464 0.000000 0.383684
vn -0.923464 0.000000 0.383684
vn 0.000000 1.000000 0.000000
vn 0.000000 1.000000 0.000000
vn 0.000000 1.000000 -0.000000
vn 0.000000 1.000000 -0.000000
vn 0.975152 0.000000 -0.221537
vn 0.975152 0.000000 -0.221537
vn 0.975152 -0.000000 -0.221537
vn 0.975152 -0.000000 -0.221537
vn 0.000000 -1.000000 -0.000000
vn 0.000000 -1.000000 -0.000000
vn 0.000000 -1.000000 -0.000000
vn 0.000000 -1.000000 -0.000000
vn -0.930146 -0.000000 0.367190
vn -0.930146 -0.000000 0.367190
vn -0.975679 -0.000000 0.219202
vn -0.975679 -0.000000 0.219202
vn 0.000000 -1.000000 0.000000
vn 0.000000 -1.000000 0.000000
vn 0.975152 0.000000 -0.221537
vn 0.975152 0.000000 -0.221537
vn 0.000000 1.000000 0.000000
vn 0.000000 1.000000 0.000000
vn -0.715733 0.000000 0.698374
vn -0.715733 0.000000 0.698374
vn 0.000000 1.000000 0.000000
vn 0.000000 1.000000 0.000000
vn 0.975152 0.000000 -0.221537
vn 0.975152 0.000000 -0.221537
vn 0.000000 -1.000000 0.000000
vn 0.000000 -1.000000 0.000000
vn -0.985585 0.000000 0.169182
vn -0.985585 0.000000 0.169182
vn 0.975152 -0.000000 -0.221537
vn 0.975152 -0.000000 -0.221537
vn 0.000000 -1.000000 -0.000000
vn 0.000000 -1.000000 -0.000000
vn 0.000000 -1.000000 0.000000
vn -0.978082 -0.000000 0.208222
vn -0.978082 -0.000000 0.208222
vn 0.000000 1.000000 -0.000000
vn 0.000000 1.000000 0.000000
vn 0.000000 1.000000 -0.000000
vn -0.960991 -0.000000 0.276579
vn -0.960991 -0.000000 0.276579
vn 0.000000 1.000000 0.000000
vn 0.000000 -1.000000 -0.000000
s off
g pCube3
f 1/1/1 2/2/2 4/4/3 3/3/4
s 1
f 19/48/5 20/34/6 13/21/7 14/24/8
s off
f 5/5/9 6/6/10 8/8/11 7/7/12
s 2
f 11/18/13 12/19/14 21/36/15 22/39/16
s 3
f 20/35/17 21/37/18 12/20/19 13/22/20
s 4
f 14/23/21 11/17/22 22/38/23 19/33/24
s 1
f 15/26/25 16/27/26 24/41/27 25/44/28
s 3
f 16/28/29 17/30/30 23/40/31 24/42/32
s 2
f 26/52/33 23/51/34 17/29/35 18/32/36
s 4
f 25/43/37 26/45/38 18/31/39 15/25/40
s 2
f 7/7/41 8/8/42 12/19/14 11/18/13
s 3
f 13/22/20 12/20/19 8/11/43 6/12/44
s 1
f 14/24/8 13/21/7 6/6/45 5/5/46
s 4
f 7/13/47 11/17/22 14/23/21 5/14/48
s 1
f 3/3/49 4/4/50 16/27/26 15/26/25
s 3
f 2/2/51 17/30/30 16/28/29 4/4/52
s 2
f 18/32/36 17/29/35 2/10/53 1/9/54
s 4
f 15/25/40 18/31/39 1/1/55 3/3/56
s 3
f 9/15/57 10/16/58 21/37/18 20/35/17
s 2
f 22/39/16 21/36/15 10/50/59 31/59/60 30/49/61
s 4
f 19/33/24 22/38/23 30/56/62 29/54/63
s 3
f 24/42/32 23/40/31 10/16/58 9/15/57
s 1
f 25/44/28 24/41/27 9/46/64 28/57/65 27/47/66
s 4
f 27/55/67 32/53/68 26/45/38 25/43/37
s 1
f 29/58/69 28/57/65 9/46/64 20/34/6 19/48/5
s 2
f 32/60/70 31/59/60 10/50/59 23/51/34 26/52/33
s 4
f 27/55/67 29/54/63 30/56/62 32/53/68
s 1
f 27/47/66 28/57/65 29/58/69
s 2
f 30/49/61 31/59/60 32/60/70
