# This file uses centimeters as units for non-parametric coordinates.

g default
v -5.724775 0.372888 -11.950171
v 11.381497 0.372888 -16.533788
v -5.724775 11.372888 -11.950171
v 11.381497 11.372888 -16.533788
v -8.571781 11.372888 -22.575363
v -8.571781 0.372888 -22.575363
v -14.492681 0.372888 18.296850
v -14.492681 11.372888 18.296850
v -29.333670 0.372888 34.241390
v -29.333670 11.372888 34.241390
v -20.779683 0.372888 31.949367
v -7.214970 0.372888 24.272657
v -20.779683 11.372888 31.949367
v -7.214970 11.372888 24.272657
v -2.300203 0.372888 18.992418
v -5.584433 0.372888 15.909903
v 4.255700 0.372888 8.048336
v -2.300203 11.372888 18.992418
v 4.255700 11.372888 8.048336
v -5.584433 11.372888 15.909903
v -0.017792 11.372888 -24.867400
v 9.957854 11.372888 -21.846917
v 9.957854 0.372888 -21.846917
v -0.017792 0.372888 -24.867400
v -1.631433 11.372888 -13.046984
v -7.805617 0.372888 -4.771801
v 9.690367 0.372888 -10.699839
v 9.690367 11.372888 -10.699839
v -2.569579 11.372888 -6.174790
v -7.805618 11.372888 -4.771801
v -12.890019 0.372888 12.768078
v -12.890019 11.372888 12.768078
v -4.861875 11.372888 10.616954
vt 0.375000 0.000000
vt 0.125000 0.000000
vt 0.125000 0.250000
vt 0.375000 0.000000
vt 0.375000 0.000000
vt 0.500013 0.000000
vt 0.375000 0.250000
vt 0.500013 0.250000
vt 0.375000 0.250000
vt 0.625000 0.250000
vt 0.375000 0.250000
vt 0.505190 0.250000
vt 0.625000 0.000000
vt 0.625000 0.250000
vt 0.625000 0.000000
vt 0.625000 0.250000
vt 0.505190 0.000000
vt 0.625000 0.000000
vt 0.625000 0.250000
vt 0.375000 0.500000
vt 0.625000 0.874987
vt 0.625000 1.000000
vt 0.375000 1.000000
vt 0.500013 0.500000
vt 0.375000 0.750000
vt 0.625000 0.000000
vt 0.750013 0.000000
vt 0.750013 0.250000
vt 0.625000 0.375013
vt 0.500013 0.750000
vt 0.434822 0.250000
vt 0.375000 0.000000
vt 0.625000 0.000000
vt 0.625000 0.250000
vt 0.451522 0.250000
vt 0.375000 0.250000
vt 0.375000 0.000000
vt 0.375000 0.250000
vt 0.492328 0.250000
vn 0.258818 0.000000 0.965926
vn 0.410890 0.000000 0.911685
vn 0.410890 0.000000 0.911685
vn 0.258818 0.000000 0.965926
vn 0.000000 1.000000 0.000000
vn 0.000000 1.000000 0.000000
vn 0.000000 1.000000 0.000000
vn 0.000000 1.000000 0.000000
vn -0.258819 0.000000 -0.965926
vn -0.258819 0.000000 -0.965926
vn -0.258819 0.000000 -0.965926
vn -0.258819 0.000000 -0.965926
vn -0.000000 -1.000000 -0.000000
vn -0.000000 -1.000000 -0.000000
vn -0.000000 -1.000000 -0.000000
vn -0.000000 -1.000000 -0.000000
vn -0.000000 -1.000000 -0.000000
vn 0.999712 0.000000 0.023989
vn 0.965926 0.000000 -0.258818
vn 0.965926 0.000000 -0.258818
vn 0.999712 0.000000 0.023989
vn -0.965926 0.000000 0.258819
vn -0.999075 -0.000000 0.042994
vn -0.999075 -0.000000 0.042994
vn -0.965926 0.000000 0.258819
vn 0.000000 -1.000000 0.000000
vn -0.000000 -1.000000 -0.000000
vn 0.000000 -1.000000 0.000000
vn 0.000000 -1.000000 0.000000
vn 0.000000 -1.000000 0.000000
vn 0.000000 -1.000000 0.000000
vn 0.960461 0.000000 0.278416
vn 0.960461 0.000000 0.278416
vn 0.927248 0.000000 0.374449
vn 0.927248 0.000000 0.374449
vn 0.000000 1.000000 0.000000
vn 0.000000 1.000000 0.000000
vn 0.000000 1.000000 0.000000
vn 0.000000 1.000000 0.000000
vn -0.960461 -0.000000 -0.278415
vn -0.960461 -0.000000 -0.278415
vn -0.960461 -0.000000 -0.278415
vn -0.960461 -0.000000 -0.278415
vn 0.000000 -1.000000 0.000000
vn 0.000000 -1.000000 0.000000
vn 0.000000 -1.000000 0.000000
vn 0.000000 -1.000000 0.000000
vn 0.816536 0.000000 0.577295
vn 0.816536 0.000000 0.577295
vn 0.574096 0.000000 0.818788
vn 0.574096 0.000000 0.818788
vn -0.793949 0.000000 -0.607984
vn -0.793949 0.000000 -0.607984
vn -0.731984 0.000000 -0.681322
vn -0.731984 0.000000 -0.681322
vn 0.000000 1.000000 0.000000
vn 0.000000 1.000000 0.000000
vn 0.000000 1.000000 0.000000
vn 0.000000 1.000000 0.000000
vn 0.289793 0.000000 -0.957089
vn 0.289793 0.000000 -0.957089
vn 0.289793 0.000000 -0.957089
vn 0.289793 0.000000 -0.957089
vn 0.000000 1.000000 0.000000
vn 0.000000 1.000000 0.000000
vn 0.000000 1.000000 0.000000
vn 0.000000 1.000000 0.000000
vn 0.000000 1.000000 0.000000
vn 0.000000 1.000000 0.000000
s 1
g pCube4
f 9/5/1 11/6/2 13/8/3 10/7/4
s 2
f 21/24/5 25/31/6 4/14/7 22/29/8
s off
f 5/20/9 21/24/10 24/30/11 6/25/12
s 3
f 6/25/13 24/30/14 23/21/15 2/22/16 1/23/17
s 1
f 2/26/18 23/27/19 22/28/20 4/14/21
s 5
f 6/2/22 1/1/23 3/11/24 5/3/25
s 3
f 26/32/26 27/33/27 17/18/28 16/17/29 7/4/30 31/37/31
s 1
f 27/33/32 28/34/33 19/16/34 17/18/35
s 2
f 19/16/36 28/34/37 29/35/38 33/39/39
s 5
f 30/36/40 26/32/41 31/37/42 32/38/43
s 3
f 7/4/30 16/17/29 15/15/44 12/13/45 11/6/46 9/5/47
s 1
f 15/15/48 18/19/49 14/10/50 12/13/51
s 5
f 8/9/52 7/4/53 9/5/54 10/7/55
s 1
f 11/6/2 12/13/51 14/10/50 13/8/3
s 2
f 18/19/56 20/12/57 13/8/58 14/10/59
s 1
f 15/15/48 17/18/35 19/16/34 18/19/49
s 3
f 15/15/44 16/17/29 17/18/28
s off
f 21/24/60 22/29/61 23/21/62 24/30/63
s 2
f 3/11/64 25/31/6 21/24/5 5/20/65
f 32/38/66 33/39/39 29/35/38 30/36/67
f 13/8/58 20/12/57 8/9/68 10/7/69
s 3
f 1/1/17 2/26/16 27/33/27 26/32/26
s 1
f 2/26/18 4/14/21 28/34/33 27/33/32
s 2
f 4/14/7 25/31/6 29/35/38 28/34/37
f 30/36/67 29/35/38 25/31/6 3/11/64
s 5
f 3/11/24 1/1/23 26/32/41 30/36/40
f 32/38/43 31/37/42 7/4/53 8/9/52
s 2
f 20/12/57 33/39/39 32/38/66 8/9/68
f 19/16/36 33/39/39 20/12/57 18/19/56
