# This file uses centimeters as units for non-parametric coordinates.

g default
v 0.951057 0.063761 -0.309017
v 0.809018 0.063761 -0.587786
v 0.587786 0.063761 -0.809017
v 0.309017 0.063761 -0.951057
v 0.000000 0.063761 -1.000000
v -0.309017 0.063761 -0.951057
v -0.587785 0.063761 -0.809017
v -0.809017 0.063761 -0.587785
v -0.951057 0.063761 -0.309017
v -1.000000 0.063761 0.000000
v -0.951057 0.063761 0.309017
v -0.809017 0.063761 0.587785
v -0.587785 0.063761 0.809017
v -0.309017 0.063761 0.951057
v -0.000000 0.063761 1.000000
v 0.309017 0.063761 0.951057
v 0.587785 0.063761 0.809017
v 0.809017 0.063761 0.587785
v 0.951057 0.063761 0.309017
v 1.000000 0.063761 0.000000
v 0.951057 1.458295 -0.309017
v 0.809018 1.458295 -0.587786
v 0.587786 1.458295 -0.809017
v 0.309017 1.458295 -0.951057
v 0.000000 1.458295 -1.000000
v -0.309017 1.458295 -0.951057
v -0.587785 1.458295 -0.809017
v -0.809017 1.458295 -0.587785
v -0.951057 1.458295 -0.309017
v -1.000000 1.458295 0.000000
v -0.951057 1.458295 0.309017
v -0.809017 1.458295 0.587785
v -0.587785 1.458295 0.809017
v -0.309017 1.458295 0.951057
v -0.000000 1.458295 1.000000
v 0.309017 1.458295 0.951057
v 0.587785 1.458295 0.809017
v 0.809017 1.458295 0.587785
v 0.951057 1.458295 0.309017
v 1.000000 1.458295 0.000000
v 0.000000 0.063761 0.000000
v -0.000000 1.882268 -0.000000
v 0.687200 1.712373 -0.223285
v 0.255411 1.882268 -0.082989
v 0.217266 1.882268 -0.157853
v 0.584567 1.712373 -0.424713
v 0.157853 1.882268 -0.217266
v 0.424713 1.712373 -0.584567
v 0.082988 1.882268 -0.255411
v 0.223285 1.712373 -0.687200
v -0.000000 1.882268 -0.268555
v -0.000000 1.712373 -0.722564
v -0.082988 1.882268 -0.255411
v -0.223285 1.712373 -0.687200
v -0.157852 1.882268 -0.217266
v -0.424713 1.712373 -0.584567
v -0.217265 1.882268 -0.157853
v -0.584567 1.712373 -0.424713
v -0.255411 1.882268 -0.082988
v -0.687199 1.712373 -0.223285
v -0.268555 1.882268 -0.000000
v -0.722564 1.712373 -0.000000
v -0.255411 1.882268 0.082988
v -0.687199 1.712373 0.223285
v -0.217265 1.882268 0.157852
v -0.584567 1.712373 0.424712
v -0.157852 1.882268 0.217265
v -0.424712 1.712373 0.584567
v -0.082988 1.882268 0.255411
v -0.223285 1.712373 0.687199
v -0.000000 1.882268 0.268554
v -0.000000 1.712373 0.722564
v 0.082988 1.882268 0.255411
v 0.223285 1.712373 0.687199
v 0.157852 1.882268 0.217265
v 0.424712 1.712373 0.584567
v 0.217265 1.882268 0.157852
v 0.584566 1.712373 0.424712
v 0.255410 1.882268 0.082988
v 0.687199 1.712373 0.223285
v 0.268554 1.882268 -0.000000
v 0.722564 1.712373 -0.000000
v 0.951057 0.254789 -0.309017
v 0.809018 0.254789 -0.587786
v 0.587786 0.254789 -0.809017
v 0.309017 0.254789 -0.951057
v 0.000000 0.254789 -1.000000
v -0.309017 0.254789 -0.951057
v -0.587785 0.254789 -0.809017
v -0.809017 0.254789 -0.587785
v -0.951057 0.254789 -0.309017
v -1.000000 0.254789 0.000000
v -0.951057 0.254789 0.309017
v -0.809017 0.254789 0.587785
v -0.587785 0.254789 0.809017
v -0.309017 0.254789 0.951057
v -0.000000 0.254789 1.000000
v 0.309017 0.254789 0.951057
v 0.587785 0.254789 0.809017
v 0.809017 0.254789 0.587785
v 0.951057 0.254789 0.309017
v 1.000000 0.254789 0.000000
v 1.090266 0.063761 -0.354249
v 0.927436 0.063761 -0.673821
v 0.673821 0.063761 -0.927436
v 0.354249 0.063761 -1.090266
v 0.000000 0.063761 -1.146373
v -0.354249 0.063761 -1.090266
v -0.673821 0.063761 -0.927435
v -0.927435 0.063761 -0.673821
v -1.090266 0.063761 -0.354249
v -1.146373 0.063761 0.000000
v -1.090266 0.063761 0.354249
v -0.927435 0.063761 0.673821
v -0.673821 0.063761 0.927435
v -0.354249 0.063761 1.090265
v -0.000000 0.063761 1.146373
v 0.354249 0.063761 1.090265
v 0.673821 0.063761 0.927435
v 0.927435 0.063761 0.673821
v 1.090265 0.063761 0.354249
v 1.146373 0.063761 0.000000
v 0.868232 0.254789 -0.630808
v 0.927436 0.182511 -0.673821
v 1.090266 0.182511 -0.354249
v 1.020668 0.254789 -0.331635
v 0.630808 0.254789 -0.868232
v 0.673821 0.182511 -0.927436
v 0.331635 0.254789 -1.020668
v 0.354249 0.182511 -1.090266
v -0.000000 0.254789 -1.073194
v 0.000000 0.182511 -1.146373
v -0.331635 0.254789 -1.020668
v -0.354249 0.182511 -1.090266
v -0.630808 0.254789 -0.868232
v -0.673821 0.182511 -0.927435
v -0.868232 0.254789 -0.630808
v -0.927435 0.182511 -0.673821
v -1.020668 0.254789 -0.331635
v -1.090266 0.182511 -0.354249
v -1.073194 0.254789 0.000000
v -1.146373 0.182511 0.000000
v -1.020668 0.254789 0.331635
v -1.090266 0.182511 0.354249
v -0.868232 0.254789 0.630808
v -0.927435 0.182511 0.673821
v -0.630808 0.254789 0.868232
v -0.673821 0.182511 0.927435
v -0.331635 0.254789 1.020668
v -0.354249 0.182511 1.090265
v -0.000000 0.254789 1.073194
v -0.000000 0.182511 1.146373
v 0.331635 0.254789 1.020668
v 0.354249 0.182511 1.090265
v 0.630807 0.254789 0.868232
v 0.673821 0.182511 0.927435
v 0.868232 0.254789 0.630807
v 0.927435 0.182511 0.673821
v 1.020668 0.254789 0.331635
v 1.090265 0.182511 0.354249
v 1.073194 0.254789 0.000000
v 1.146373 0.182511 0.000000
vt 0.648603 0.107966
vt 0.626409 0.064408
vt 0.591842 0.029841
vt 0.548284 0.007647
vt 0.500000 -0.000000
vt 0.451716 0.007647
vt 0.408159 0.029841
vt 0.373591 0.064409
vt 0.351397 0.107966
vt 0.343750 0.156250
vt 0.351397 0.204534
vt 0.373591 0.248091
vt 0.408159 0.282659
vt 0.451716 0.304853
vt 0.500000 0.312500
vt 0.548284 0.304853
vt 0.591841 0.282659
vt 0.626409 0.248091
vt 0.648603 0.204534
vt 0.656250 0.156250
vt 0.375000 0.312500
vt 0.387500 0.312500
vt 0.400000 0.312500
vt 0.412500 0.312500
vt 0.425000 0.312500
vt 0.437500 0.312500
vt 0.450000 0.312500
vt 0.462500 0.312500
vt 0.475000 0.312500
vt 0.487500 0.312500
vt 0.500000 0.312500
vt 0.512500 0.312500
vt 0.525000 0.312500
vt 0.537500 0.312500
vt 0.550000 0.312500
vt 0.562500 0.312500
vt 0.575000 0.312500
vt 0.587500 0.312500
vt 0.600000 0.312500
vt 0.612500 0.312500
vt 0.625000 0.312500
vt 0.375000 0.688440
vt 0.387500 0.688440
vt 0.400000 0.688440
vt 0.412500 0.688440
vt 0.425000 0.688440
vt 0.437500 0.688440
vt 0.450000 0.688440
vt 0.462500 0.688440
vt 0.475000 0.688440
vt 0.487500 0.688440
vt 0.500000 0.688440
vt 0.512500 0.688440
vt 0.525000 0.688440
vt 0.537500 0.688440
vt 0.550000 0.688440
vt 0.562500 0.688440
vt 0.575000 0.688440
vt 0.587500 0.688440
vt 0.600000 0.688440
vt 0.612500 0.688440
vt 0.625000 0.688440
vt 0.500000 0.150000
vt 0.563211 0.886551
vt 0.545926 0.903837
vt 0.524145 0.914935
vt 0.500000 0.918759
vt 0.475855 0.914935
vt 0.454074 0.903837
vt 0.436789 0.886551
vt 0.425691 0.864770
vt 0.421866 0.840625
vt 0.425691 0.816481
vt 0.436788 0.794700
vt 0.454074 0.777414
vt 0.475855 0.766316
vt 0.500000 0.762492
vt 0.524145 0.766316
vt 0.545926 0.777414
vt 0.563211 0.794700
vt 0.574309 0.816481
vt 0.578134 0.840625
vt 0.574309 0.864770
vt 0.500000 0.837500
vt 0.626409 0.935591
vt 0.648603 0.892034
vt 0.591841 0.970159
vt 0.626409 0.935591
vt 0.548284 0.992353
vt 0.591841 0.970159
vt 0.500000 1.000000
vt 0.548284 0.992353
vt 0.451716 0.992353
vt 0.500000 1.000000
vt 0.408159 0.970159
vt 0.451716 0.992353
vt 0.373591 0.935591
vt 0.408159 0.970159
vt 0.351397 0.892034
vt 0.373591 0.935591
vt 0.343750 0.843750
vt 0.351397 0.892034
vt 0.351397 0.795466
vt 0.343750 0.843750
vt 0.373591 0.751909
vt 0.351397 0.795466
vt 0.408159 0.717341
vt 0.373591 0.751909
vt 0.451716 0.695147
vt 0.408159 0.717341
vt 0.500000 0.687500
vt 0.451716 0.695147
vt 0.548284 0.695147
vt 0.500000 0.687500
vt 0.591842 0.717341
vt 0.548284 0.695147
vt 0.626409 0.751908
vt 0.591842 0.717341
vt 0.648603 0.795466
vt 0.626409 0.751908
vt 0.656250 0.843750
vt 0.648603 0.795466
vt 0.648603 0.892034
vt 0.656250 0.843750
vt 0.625000 0.363997
vt 0.375000 0.312500
vt 0.375000 0.363997
vt 0.625000 0.344513
vt 0.387500 0.312500
vt 0.375000 0.344513
vt 0.400000 0.312500
vt 0.387500 0.344513
vt 0.412500 0.312500
vt 0.400000 0.344513
vt 0.425000 0.312500
vt 0.412500 0.344513
vt 0.437500 0.312500
vt 0.425000 0.344513
vt 0.450000 0.312500
vt 0.437500 0.344513
vt 0.462500 0.312500
vt 0.450000 0.344513
vt 0.475000 0.312500
vt 0.462500 0.344513
vt 0.487500 0.312500
vt 0.475000 0.344513
vt 0.500000 0.312500
vt 0.487500 0.344513
vt 0.512500 0.312500
vt 0.500000 0.344513
vt 0.525000 0.312500
vt 0.512500 0.344513
vt 0.537500 0.312500
vt 0.525000 0.344513
vt 0.550000 0.312500
vt 0.537500 0.344513
vt 0.562500 0.312500
vt 0.550000 0.344513
vt 0.575000 0.312500
vt 0.562500 0.344513
vt 0.587500 0.312500
vt 0.575000 0.344513
vt 0.600000 0.312500
vt 0.587500 0.344513
vt 0.612500 0.312500
vt 0.600000 0.344513
vt 0.625000 0.312500
vt 0.612500 0.344513
vt 0.375000 0.363997
vt 0.387500 0.363997
vt 0.387500 0.363997
vt 0.400000 0.363997
vt 0.400000 0.363997
vt 0.412500 0.363997
vt 0.412500 0.363997
vt 0.425000 0.363997
vt 0.425000 0.363997
vt 0.437500 0.363997
vt 0.437500 0.363997
vt 0.450000 0.363997
vt 0.450000 0.363997
vt 0.462500 0.363997
vt 0.462500 0.363997
vt 0.475000 0.363997
vt 0.475000 0.363997
vt 0.487500 0.363997
vt 0.487500 0.363997
vt 0.500000 0.363997
vt 0.500000 0.363997
vt 0.512500 0.363997
vt 0.512500 0.363997
vt 0.525000 0.363997
vt 0.525000 0.363997
vt 0.537500 0.363997
vt 0.537500 0.363997
vt 0.550000 0.363997
vt 0.550000 0.363997
vt 0.562500 0.363997
vt 0.562500 0.363997
vt 0.575000 0.363997
vt 0.575000 0.363997
vt 0.587500 0.363997
vt 0.587500 0.363997
vt 0.600000 0.363997
vt 0.600000 0.363997
vt 0.612500 0.363997
vt 0.612500 0.363997
vt 0.625000 0.363997
vn 0.951057 -0.000000 -0.309016
vn 0.809017 0.000000 -0.587785
vn 0.809017 0.000000 -0.587785
vn 0.951057 -0.000000 -0.309016
vn 0.587785 -0.000000 -0.809017
vn 0.587785 -0.000000 -0.809017
vn 0.309017 -0.000000 -0.951057
vn 0.309017 -0.000000 -0.951057
vn 0.000000 -0.000000 -1.000000
vn 0.000000 -0.000000 -1.000000
vn -0.309017 -0.000000 -0.951056
vn -0.309017 -0.000000 -0.951056
vn -0.587785 -0.000000 -0.809017
vn -0.587785 -0.000000 -0.809017
vn -0.809017 -0.000000 -0.587785
vn -0.809017 -0.000000 -0.587785
vn -0.951057 -0.000000 -0.309017
vn -0.951057 -0.000000 -0.309017
vn -1.000000 0.000000 -0.000000
vn -1.000000 0.000000 -0.000000
vn -0.951057 0.000000 0.309017
vn -0.951057 0.000000 0.309017
vn -0.809017 0.000000 0.587785
vn -0.809017 0.000000 0.587785
vn -0.587785 -0.000000 0.809017
vn -0.587785 -0.000000 0.809017
vn -0.309017 -0.000000 0.951057
vn -0.309017 -0.000000 0.951057
vn 0.000000 -0.000000 1.000000
vn 0.000000 -0.000000 1.000000
vn 0.309017 -0.000000 0.951057
vn 0.309017 -0.000000 0.951057
vn 0.587785 -0.000000 0.809017
vn 0.587785 -0.000000 0.809017
vn 0.809017 0.000000 0.587785
vn 0.809017 0.000000 0.587785
vn 0.951057 0.000000 0.309017
vn 0.951057 0.000000 0.309017
vn 1.000000 -0.000000 0.000001
vn 1.000000 -0.000000 0.000001
vn 0.000000 -1.000000 -0.000000
vn 0.000000 -1.000000 0.000000
vn 0.000000 -1.000000 0.000000
vn 0.000000 -1.000000 -0.000000
vn 0.000000 -1.000000 -0.000000
vn 0.000000 -1.000000 -0.000000
vn 0.000000 -1.000000 0.000000
vn 0.000000 -1.000000 -0.000000
vn 0.000000 -1.000000 -0.000000
vn 0.000000 -1.000000 -0.000000
vn 0.000000 -1.000000 -0.000000
vn 0.000000 -1.000000 0.000000
vn 0.000000 -1.000000 0.000000
vn 0.000000 -1.000000 0.000000
vn 0.000000 -1.000000 0.000000
vn 0.000000 -1.000000 0.000000
vn 0.000000 -1.000000 -0.000000
vn 0.000000 -1.000000 0.000000
vn 0.000000 -1.000000 0.000000
vn 0.000000 -1.000000 0.000000
vn 0.000000 -1.000000 0.000000
vn 0.531264 0.829434 -0.172617
vn 0.298370 0.949514 -0.096946
vn 0.313724 0.949514 -0.000000
vn 0.558604 0.829435 0.000000
vn 0.451920 0.829434 -0.328339
vn 0.253808 0.949514 -0.184402
vn 0.328339 0.829435 -0.451920
vn 0.184403 0.949514 -0.253808
vn 0.172618 0.829434 -0.531264
vn 0.096946 0.949514 -0.298370
vn -0.000000 0.829435 -0.558604
vn -0.000000 0.949514 -0.313724
vn -0.172618 0.829434 -0.531264
vn -0.096946 0.949514 -0.298370
vn -0.328339 0.829434 -0.451920
vn -0.184403 0.949514 -0.253808
vn -0.451920 0.829434 -0.328339
vn -0.253808 0.949514 -0.184403
vn -0.531264 0.829434 -0.172618
vn -0.298370 0.949514 -0.096946
vn -0.558604 0.829435 -0.000000
vn -0.313724 0.949514 -0.000000
vn -0.531264 0.829434 0.172618
vn -0.298370 0.949514 0.096946
vn -0.451920 0.829434 0.328339
vn -0.253808 0.949514 0.184403
vn -0.328339 0.829434 0.451920
vn -0.184403 0.949514 0.253808
vn -0.172618 0.829434 0.531264
vn -0.096946 0.949514 0.298370
vn 0.000000 0.829435 0.558604
vn 0.000000 0.949514 0.313724
vn 0.172618 0.829434 0.531264
vn 0.096946 0.949514 0.298370
vn 0.328339 0.829434 0.451920
vn 0.184403 0.949514 0.253808
vn 0.451920 0.829434 0.328339
vn 0.253808 0.949514 0.184403
vn 0.531264 0.829434 0.172618
vn 0.298370 0.949514 0.096946
vn 0.000000 1.000000 -0.000000
vn 0.642325 0.737470 -0.208703
vn 0.546394 0.737470 -0.396979
vn 0.396979 0.737470 -0.546394
vn 0.208704 0.737470 -0.642325
vn 0.000000 0.737469 -0.675380
vn -0.208704 0.737470 -0.642325
vn -0.396979 0.737469 -0.546394
vn -0.546394 0.737469 -0.396979
vn -0.642325 0.737469 -0.208704
vn -0.675381 0.737469 0.000000
vn -0.642325 0.737469 0.208704
vn -0.546394 0.737469 0.396979
vn -0.396979 0.737470 0.546394
vn -0.208704 0.737470 0.642325
vn 0.000000 0.737470 0.675380
vn 0.208704 0.737470 0.642325
vn 0.396979 0.737469 0.546394
vn 0.546394 0.737470 0.396979
vn 0.642325 0.737470 0.208704
vn 0.675381 0.737470 0.000001
vn 0.000000 -1.000000 -0.000000
vn 0.000000 -1.000000 0.000000
vn 0.000000 -1.000000 -0.000000
vn 0.000000 -1.000000 -0.000000
vn 0.000000 -1.000000 -0.000000
vn 0.000000 -1.000000 0.000000
vn 0.000000 -1.000000 -0.000000
vn 0.000000 -1.000000 -0.000000
vn 0.000000 -1.000000 -0.000000
vn 0.000000 -1.000000 -0.000000
vn 0.000000 -1.000000 0.000000
vn 0.000000 -1.000000 0.000000
vn 0.000000 -1.000000 0.000000
vn 0.000000 -1.000000 0.000000
vn 0.000000 -1.000000 0.000000
vn 0.000000 -1.000000 -0.000000
vn 0.000000 -1.000000 0.000000
vn 0.000000 -1.000000 0.000000
vn 0.000000 -1.000000 0.000000
vn 0.000000 -1.000000 0.000000
vn 0.568507 0.711473 -0.413045
vn 0.568507 0.711473 -0.413045
vn 0.413045 0.711473 -0.568507
vn 0.413045 0.711473 -0.568507
vn 0.668320 0.711473 -0.217150
vn 0.668320 0.711473 -0.217150
vn 0.702714 0.711473 0.000001
vn 0.702714 0.711473 0.000001
vn 0.217150 0.711472 -0.668321
vn 0.217150 0.711473 -0.668321
vn -0.000000 0.711472 -0.702714
vn -0.000000 0.711472 -0.702714
vn -0.217151 0.711472 -0.668321
vn -0.217151 0.711472 -0.668321
vn -0.413045 0.711473 -0.568507
vn -0.413045 0.711473 -0.568507
vn -0.568508 0.711473 -0.413045
vn -0.568507 0.711473 -0.413045
vn -0.668321 0.711473 -0.217150
vn -0.668321 0.711473 -0.217151
vn -0.702713 0.711473 0.000000
vn -0.702713 0.711473 0.000000
vn -0.668320 0.711473 0.217150
vn -0.668320 0.711473 0.217150
vn -0.568507 0.711473 0.413045
vn -0.568507 0.711473 0.413045
vn -0.413045 0.711473 0.568508
vn -0.413045 0.711473 0.568508
vn -0.217151 0.711472 0.668321
vn -0.217151 0.711472 0.668321
vn 0.000000 0.711473 0.702714
vn 0.000000 0.711473 0.702714
vn 0.217151 0.711473 0.668321
vn 0.217151 0.711473 0.668321
vn 0.413045 0.711473 0.568507
vn 0.413045 0.711473 0.568507
vn 0.568507 0.711473 0.413045
vn 0.568508 0.711473 0.413045
vn 0.668321 0.711472 0.217151
vn 0.668321 0.711472 0.217151
vn 0.951057 0.000000 -0.309016
vn 0.809017 0.000000 -0.587785
vn 0.809017 0.000000 -0.587785
vn 0.951057 0.000000 -0.309016
vn 0.587785 0.000000 -0.809017
vn 0.587785 0.000000 -0.809017
vn 0.309017 0.000000 -0.951057
vn 0.309017 0.000000 -0.951057
vn 0.000000 0.000000 -1.000000
vn 0.000000 0.000000 -1.000000
vn -0.309017 0.000000 -0.951056
vn -0.309017 0.000000 -0.951056
vn -0.587785 0.000000 -0.809017
vn -0.587786 0.000000 -0.809017
vn -0.809017 0.000001 -0.587785
vn -0.809017 0.000001 -0.587785
vn -0.951057 0.000000 -0.309017
vn -0.951057 0.000000 -0.309017
vn -1.000000 0.000000 0.000000
vn -1.000000 0.000000 0.000000
vn -0.951057 0.000000 0.309017
vn -0.951057 0.000000 0.309017
vn -0.809017 0.000000 0.587785
vn -0.809017 0.000000 0.587785
vn -0.587785 0.000000 0.809017
vn -0.587785 0.000000 0.809017
vn -0.309017 0.000000 0.951057
vn -0.309017 0.000000 0.951057
vn 0.000000 0.000000 1.000000
vn 0.000000 0.000000 1.000000
vn 0.309017 0.000001 0.951057
vn 0.309017 0.000001 0.951057
vn 0.587785 0.000001 0.809017
vn 0.587785 0.000001 0.809017
vn 0.809017 0.000000 0.587785
vn 0.809017 0.000000 0.587785
vn 0.951057 0.000000 0.309017
vn 0.951057 0.000000 0.309017
vn 1.000000 0.000000 0.000001
vn 1.000000 0.000000 0.000001
vn 0.000000 1.000000 -0.000000
vn 0.000000 1.000000 -0.000000
vn 0.000000 1.000000 -0.000000
vn 0.000000 1.000000 -0.000000
vn 0.000000 1.000000 -0.000000
vn 0.000000 1.000000 -0.000000
vn 0.000000 1.000000 -0.000000
vn 0.000000 1.000000 -0.000000
vn 0.000000 1.000000 0.000000
vn 0.000000 1.000000 0.000000
vn 0.000000 1.000000 0.000000
vn 0.000000 1.000000 0.000000
vn 0.000000 1.000000 -0.000000
vn 0.000000 1.000000 -0.000000
vn 0.000000 1.000000 -0.000000
vn 0.000000 1.000000 0.000000
vn 0.000000 1.000000 0.000000
vn 0.000000 1.000000 0.000000
vn 0.000000 1.000000 0.000000
vn 0.000000 1.000000 0.000000
vn 0.000000 1.000000 0.000000
vn 0.000000 1.000000 0.000000
vn 0.000000 1.000000 -0.000000
vn 0.000000 1.000000 -0.000000
vn 0.000000 1.000000 -0.000000
vn 0.000000 1.000000 -0.000000
vn 0.000000 1.000000 0.000000
vn 0.000000 1.000000 0.000000
vn 0.000000 1.000000 0.000000
vn 0.000000 1.000000 0.000000
vn 0.000000 1.000000 0.000000
vn 0.000000 1.000000 0.000000
vn 0.000000 1.000000 -0.000000
vn 0.000000 1.000000 -0.000000
vn 0.000000 1.000000 -0.000000
vn 0.000000 1.000000 -0.000000
vn 0.000000 1.000000 0.000000
vn 0.000000 1.000000 0.000000
vn 0.000000 1.000000 -0.000000
vn 0.000000 1.000000 -0.000000
s 1
g MushroomJump
f 83/169/1 84/171/2 22/43/3 21/42/4
f 84/171/2 85/173/5 23/44/6 22/43/3
f 85/173/5 86/175/7 24/45/8 23/44/6
f 86/175/7 87/177/9 25/46/10 24/45/8
f 87/177/9 88/179/11 26/47/12 25/46/10
f 88/179/11 89/181/13 27/48/14 26/47/12
f 89/181/13 90/183/15 28/49/16 27/48/14
f 90/183/15 91/185/17 29/50/18 28/49/16
f 91/185/17 92/187/19 30/51/20 29/50/18
f 92/187/19 93/189/21 31/52/22 30/51/20
f 93/189/21 94/191/23 32/53/24 31/52/22
f 94/191/23 95/193/25 33/54/26 32/53/24
f 95/193/25 96/195/27 34/55/28 33/54/26
f 96/195/27 97/197/29 35/56/30 34/55/28
f 97/197/29 98/199/31 36/57/32 35/56/30
f 98/199/31 99/201/33 37/58/34 36/57/32
f 99/201/33 100/203/35 38/59/36 37/58/34
f 100/203/35 101/205/37 39/60/38 38/59/36
f 101/205/37 102/207/39 40/61/40 39/60/38
f 102/207/39 83/125/1 21/62/4 40/61/40
s 2
f 2/2/41 1/1/42 41/63/43
f 3/3/44 2/2/41 41/63/43
f 4/4/45 3/3/44 41/63/43
f 5/5/46 4/4/45 41/63/43
f 6/6/47 5/5/46 41/63/43
f 7/7/48 6/6/47 41/63/43
f 8/8/49 7/7/48 41/63/43
f 9/9/50 8/8/49 41/63/43
f 10/10/51 9/9/50 41/63/43
f 11/11/52 10/10/51 41/63/43
f 12/12/53 11/11/52 41/63/43
f 13/13/54 12/12/53 41/63/43
f 14/14/55 13/13/54 41/63/43
f 15/15/56 14/14/55 41/63/43
f 16/16/57 15/15/56 41/63/43
f 17/17/58 16/16/57 41/63/43
f 18/18/59 17/17/58 41/63/43
f 19/19/60 18/18/59 41/63/43
f 20/20/61 19/19/60 41/63/43
f 1/1/42 20/20/61 41/63/43
s 3
f 43/86/62 44/83/63 81/82/64 82/124/65
f 44/83/63 43/86/62 46/88/66 45/64/67
f 45/64/67 46/88/66 48/90/68 47/65/69
f 47/65/69 48/90/68 50/92/70 49/66/71
f 49/66/71 50/92/70 52/94/72 51/67/73
f 51/67/73 52/94/72 54/96/74 53/68/75
f 53/68/75 54/96/74 56/98/76 55/69/77
f 55/69/77 56/98/76 58/100/78 57/70/79
f 57/70/79 58/100/78 60/102/80 59/71/81
f 59/71/81 60/102/80 62/104/82 61/72/83
f 61/72/83 62/104/82 64/106/84 63/73/85
f 63/73/85 64/106/84 66/108/86 65/74/87
f 65/74/87 66/108/86 68/110/88 67/75/89
f 67/75/89 68/110/88 70/112/90 69/76/91
f 69/76/91 70/112/90 72/114/92 71/77/93
f 71/77/93 72/114/92 74/116/94 73/78/95
f 73/78/95 74/116/94 76/118/96 75/79/97
f 75/79/97 76/118/96 78/120/98 77/80/99
f 77/80/99 78/120/98 80/122/100 79/81/101
f 79/81/101 80/122/100 82/124/65 81/82/64
f 44/83/63 45/64/67 42/84/102
f 45/64/67 47/65/69 42/84/102
f 47/65/69 49/66/71 42/84/102
f 49/66/71 51/67/73 42/84/102
f 51/67/73 53/68/75 42/84/102
f 53/68/75 55/69/77 42/84/102
f 55/69/77 57/70/79 42/84/102
f 57/70/79 59/71/81 42/84/102
f 59/71/81 61/72/83 42/84/102
f 61/72/83 63/73/85 42/84/102
f 63/73/85 65/74/87 42/84/102
f 65/74/87 67/75/89 42/84/102
f 67/75/89 69/76/91 42/84/102
f 69/76/91 71/77/93 42/84/102
f 71/77/93 73/78/95 42/84/102
f 73/78/95 75/79/97 42/84/102
f 75/79/97 77/80/99 42/84/102
f 77/80/99 79/81/101 42/84/102
f 79/81/101 81/82/64 42/84/102
f 81/82/64 44/83/63 42/84/102
f 21/123/103 22/85/104 46/88/66 43/86/62
f 22/85/104 23/87/105 48/90/68 46/88/66
f 23/87/105 24/89/106 50/92/70 48/90/68
f 24/89/106 25/91/107 52/94/72 50/92/70
f 25/91/107 26/93/108 54/96/74 52/94/72
f 26/93/108 27/95/109 56/98/76 54/96/74
f 27/95/109 28/97/110 58/100/78 56/98/76
f 28/97/110 29/99/111 60/102/80 58/100/78
f 29/99/111 30/101/112 62/104/82 60/102/80
f 30/101/112 31/103/113 64/106/84 62/104/82
f 31/103/113 32/105/114 66/108/86 64/106/84
f 32/105/114 33/107/115 68/110/88 66/108/86
f 33/107/115 34/109/116 70/112/90 68/110/88
f 34/109/116 35/111/117 72/114/92 70/112/90
f 35/111/117 36/113/118 74/116/94 72/114/92
f 36/113/118 37/115/119 76/118/96 74/116/94
f 37/115/119 38/117/120 78/120/98 76/118/96
f 38/117/120 39/119/121 80/122/100 78/120/98
f 39/119/121 40/121/122 82/124/65 80/122/100
f 40/121/122 21/123/103 43/86/62 82/124/65
s 2
f 1/21/42 2/22/41 104/129/123 103/126/124
f 2/22/41 3/23/44 105/131/125 104/129/123
f 3/23/44 4/24/45 106/133/126 105/131/125
f 4/24/45 5/25/46 107/135/127 106/133/126
f 5/25/46 6/26/47 108/137/128 107/135/127
f 6/26/47 7/27/48 109/139/129 108/137/128
f 7/27/48 8/28/49 110/141/130 109/139/129
f 8/28/49 9/29/50 111/143/131 110/141/130
f 9/29/50 10/30/51 112/145/132 111/143/131
f 10/30/51 11/31/52 113/147/133 112/145/132
f 11/31/52 12/32/53 114/149/134 113/147/133
f 12/32/53 13/33/54 115/151/135 114/149/134
f 13/33/54 14/34/55 116/153/136 115/151/135
f 14/34/55 15/35/56 117/155/137 116/153/136
f 15/35/56 16/36/57 118/157/138 117/155/137
f 16/36/57 17/37/58 119/159/139 118/157/138
f 17/37/58 18/38/59 120/161/140 119/159/139
f 18/38/59 19/39/60 121/163/141 120/161/140
f 19/39/60 20/40/61 122/165/142 121/163/141
f 20/40/61 1/41/42 103/167/124 122/165/142
s 4
f 123/170/143 124/132/144 128/134/145 127/172/146
f 124/132/144 123/170/143 126/127/147 125/130/148
f 125/128/148 126/208/147 161/206/149 162/168/150
f 127/172/146 128/134/145 130/136/151 129/174/152
f 129/174/152 130/136/151 132/138/153 131/176/154
f 131/176/154 132/138/153 134/140/155 133/178/156
f 133/178/156 134/140/155 136/142/157 135/180/158
f 135/180/158 136/142/157 138/144/159 137/182/160
f 137/182/160 138/144/159 140/146/161 139/184/162
f 139/184/162 140/146/161 142/148/163 141/186/164
f 141/186/164 142/148/163 144/150/165 143/188/166
f 143/188/166 144/150/165 146/152/167 145/190/168
f 145/190/168 146/152/167 148/154/169 147/192/170
f 147/192/170 148/154/169 150/156/171 149/194/172
f 149/194/172 150/156/171 152/158/173 151/196/174
f 151/196/174 152/158/173 154/160/175 153/198/176
f 153/198/176 154/160/175 156/162/177 155/200/178
f 155/200/178 156/162/177 158/164/179 157/202/180
f 157/202/180 158/164/179 160/166/181 159/204/182
f 159/204/182 160/166/181 162/168/150 161/206/149
s 5
f 103/126/183 104/129/184 124/132/185 125/130/186
f 104/129/184 105/131/187 128/134/188 124/132/185
f 105/131/187 106/133/189 130/136/190 128/134/188
f 106/133/189 107/135/191 132/138/192 130/136/190
f 107/135/191 108/137/193 134/140/194 132/138/192
f 108/137/193 109/139/195 136/142/196 134/140/194
f 109/139/195 110/141/197 138/144/198 136/142/196
f 110/141/197 111/143/199 140/146/200 138/144/198
f 111/143/199 112/145/201 142/148/202 140/146/200
f 112/145/201 113/147/203 144/150/204 142/148/202
f 113/147/203 114/149/205 146/152/206 144/150/204
f 114/149/205 115/151/207 148/154/208 146/152/206
f 115/151/207 116/153/209 150/156/210 148/154/208
f 116/153/209 117/155/211 152/158/212 150/156/210
f 117/155/211 118/157/213 154/160/214 152/158/212
f 118/157/213 119/159/215 156/162/216 154/160/214
f 119/159/215 120/161/217 158/164/218 156/162/216
f 120/161/217 121/163/219 160/166/220 158/164/218
f 121/163/219 122/165/221 162/168/222 160/166/220
f 122/165/221 103/167/183 125/128/186 162/168/222
s 6
f 84/171/223 83/169/224 126/127/225 123/170/226
f 85/173/227 84/171/223 123/170/226 127/172/228
f 86/175/229 85/173/227 127/172/228 129/174/230
f 87/177/231 86/175/229 129/174/230 131/176/232
f 88/179/233 87/177/231 131/176/232 133/178/234
f 89/181/235 88/179/233 133/178/234 135/180/236
f 90/183/237 89/181/235 135/180/236 137/182/238
f 91/185/239 90/183/237 137/182/238 139/184/240
f 92/187/241 91/185/239 139/184/240 141/186/242
f 93/189/243 92/187/241 141/186/242 143/188/244
f 94/191/245 93/189/243 143/188/244 145/190/246
f 95/193/247 94/191/245 145/190/246 147/192/248
f 96/195/249 95/193/247 147/192/248 149/194/250
f 97/197/251 96/195/249 149/194/250 151/196/252
f 98/199/253 97/197/251 151/196/252 153/198/254
f 99/201/255 98/199/253 153/198/254 155/200/256
f 100/203/257 99/201/255 155/200/256 157/202/258
f 101/205/259 100/203/257 157/202/258 159/204/260
f 102/207/261 101/205/259 159/204/260 161/206/262
f 83/125/224 102/207/261 161/206/262 126/208/225
