# This file uses centimeters as units for non-parametric coordinates.

g default
v 0.951057 0.913164 2.137131
v 0.809018 0.634396 2.137131
v 0.587786 0.413164 2.137131
v 0.309017 0.271125 2.137131
v 0.000000 0.222181 2.137131
v -0.309017 0.271125 2.137131
v -0.587785 0.413164 2.137131
v -0.809017 0.634396 2.137131
v -0.951057 0.913165 2.137131
v -1.000000 1.222182 2.137131
v -0.951057 1.531199 2.137131
v -0.809017 1.809967 2.137131
v -0.587785 2.031199 2.137131
v -0.309017 2.173238 2.137131
v -0.000000 2.222182 2.137131
v 0.309017 2.173238 2.137131
v 0.587785 2.031199 2.137131
v 0.809017 1.809967 2.137131
v 0.951057 1.531199 2.137131
v 1.000000 1.222182 2.137131
v 0.951057 0.913164 -2.137131
v 0.809018 0.634396 -2.137131
v 0.587786 0.413164 -2.137131
v 0.309017 0.271125 -2.137131
v 0.000000 0.222181 -2.137131
v -0.309017 0.271125 -2.137131
v -0.587785 0.413164 -2.137131
v -0.809017 0.634396 -2.137131
v -0.951057 0.913165 -2.137131
v -1.000000 1.222182 -2.137131
v -0.951057 1.531199 -2.137131
v -0.809017 1.809967 -2.137131
v -0.587785 2.031199 -2.137131
v -0.309017 2.173238 -2.137131
v -0.000000 2.222182 -2.137131
v 0.309017 2.173238 -2.137131
v 0.587785 2.031199 -2.137131
v 0.809017 1.809967 -2.137131
v 0.951057 1.531199 -2.137131
v 1.000000 1.222182 -2.137131
v 1.054558 0.879535 2.137131
v 0.897060 0.570429 2.137131
v 0.897060 0.570429 -2.137131
v 1.054558 0.879535 -2.137131
v 0.651752 0.325121 2.137131
v 0.651752 0.325121 -2.137131
v 0.342647 0.167624 2.137131
v 0.342647 0.167624 -2.137131
v -0.000000 0.113354 2.137131
v -0.000000 0.113354 -2.137131
v -0.342647 0.167624 2.137131
v -0.342647 0.167624 -2.137131
v -0.651752 0.325121 2.137131
v -0.651752 0.325121 -2.137131
v -0.897060 0.570429 2.137131
v -0.897060 0.570429 -2.137131
v -1.054557 0.879535 2.137131
v -1.054557 0.879535 -2.137131
v -1.108827 1.222182 2.137131
v -1.108827 1.222182 -2.137131
v -1.054557 1.564828 2.137131
v -1.054557 1.564828 -2.137131
v -0.897060 1.873934 2.137131
v -0.897060 1.873934 -2.137131
v -0.651752 2.119242 2.137131
v -0.651752 2.119242 -2.137131
v -0.342646 2.276739 2.137131
v -0.342646 2.276739 -2.137131
v -0.000000 2.331009 2.137131
v -0.000000 2.331009 -2.137131
v 0.342646 2.276739 2.137131
v 0.342646 2.276739 -2.137131
v 0.651752 2.119241 2.137131
v 0.651752 2.119241 -2.137131
v 0.897060 1.873934 2.137131
v 0.897060 1.873934 -2.137131
v 1.054557 1.564828 2.137131
v 1.054557 1.564828 -2.137131
v 1.108827 1.222182 2.137131
v 1.108827 1.222182 -2.137131
vt 0.375000 0.312500
vt 0.387500 0.312500
vt 0.400000 0.312500
vt 0.412500 0.312500
vt 0.425000 0.312500
vt 0.437500 0.312500
vt 0.450000 0.312500
vt 0.462500 0.312500
vt 0.475000 0.312500
vt 0.487500 0.312500
vt 0.500000 0.312500
vt 0.512500 0.312500
vt 0.525000 0.312500
vt 0.537500 0.312500
vt 0.550000 0.312500
vt 0.562500 0.312500
vt 0.575000 0.312500
vt 0.587500 0.312500
vt 0.600000 0.312500
vt 0.612500 0.312500
vt 0.625000 0.312500
vt 0.375000 0.688440
vt 0.387500 0.688440
vt 0.400000 0.688440
vt 0.412500 0.688440
vt 0.425000 0.688440
vt 0.437500 0.688440
vt 0.450000 0.688440
vt 0.462500 0.688440
vt 0.475000 0.688440
vt 0.487500 0.688440
vt 0.500000 0.688440
vt 0.512500 0.688440
vt 0.525000 0.688440
vt 0.537500 0.688440
vt 0.550000 0.688440
vt 0.562500 0.688440
vt 0.575000 0.688440
vt 0.587500 0.688440
vt 0.600000 0.688440
vt 0.612500 0.688440
vt 0.625000 0.688440
vt 0.375000 0.312500
vt 0.387500 0.312500
vt 0.387500 0.688440
vt 0.375000 0.688440
vt 0.400000 0.312500
vt 0.400000 0.688440
vt 0.412500 0.312500
vt 0.412500 0.688440
vt 0.425000 0.312500
vt 0.425000 0.688440
vt 0.437500 0.312500
vt 0.437500 0.688440
vt 0.450000 0.312500
vt 0.450000 0.688440
vt 0.462500 0.312500
vt 0.462500 0.688440
vt 0.475000 0.312500
vt 0.475000 0.688440
vt 0.487500 0.312500
vt 0.487500 0.688440
vt 0.500000 0.312500
vt 0.500000 0.688440
vt 0.512500 0.312500
vt 0.512500 0.688440
vt 0.525000 0.312500
vt 0.525000 0.688440
vt 0.537500 0.312500
vt 0.537500 0.688440
vt 0.550000 0.312500
vt 0.550000 0.688440
vt 0.562500 0.312500
vt 0.562500 0.688440
vt 0.575000 0.312500
vt 0.575000 0.688440
vt 0.587500 0.312500
vt 0.587500 0.688440
vt 0.600000 0.312500
vt 0.600000 0.688440
vt 0.612500 0.312500
vt 0.612500 0.688440
vt 0.625000 0.312500
vt 0.625000 0.688440
vt 0.375000 0.312500
vt 0.387500 0.312500
vt 0.387500 0.688440
vt 0.375000 0.688440
vt 0.400000 0.312500
vt 0.400000 0.688440
vt 0.412500 0.312500
vt 0.412500 0.688440
vt 0.425000 0.312500
vt 0.425000 0.688440
vt 0.437500 0.312500
vt 0.437500 0.688440
vt 0.450000 0.312500
vt 0.450000 0.688440
vt 0.462500 0.312500
vt 0.462500 0.688440
vt 0.475000 0.312500
vt 0.475000 0.688440
vt 0.487500 0.312500
vt 0.487500 0.688440
vt 0.500000 0.312500
vt 0.500000 0.688440
vt 0.512500 0.312500
vt 0.512500 0.688440
vt 0.525000 0.312500
vt 0.525000 0.688440
vt 0.537500 0.312500
vt 0.537500 0.688440
vt 0.550000 0.312500
vt 0.550000 0.688440
vt 0.562500 0.312500
vt 0.562500 0.688440
vt 0.575000 0.312500
vt 0.575000 0.688440
vt 0.587500 0.312500
vt 0.587500 0.688440
vt 0.600000 0.312500
vt 0.600000 0.688440
vt 0.612500 0.312500
vt 0.612500 0.688440
vt 0.625000 0.312500
vt 0.625000 0.688440
vn 0.951057 -0.309016 0.000000
vn 0.809017 -0.587785 0.000000
vn 0.809017 -0.587785 0.000000
vn 0.951057 -0.309016 0.000000
vn 0.587785 -0.809017 0.000000
vn 0.587785 -0.809017 0.000000
vn 0.309017 -0.951057 0.000000
vn 0.309017 -0.951057 0.000000
vn -0.000000 -1.000000 0.000000
vn -0.000000 -1.000000 0.000000
vn -0.309017 -0.951057 0.000000
vn -0.309017 -0.951057 0.000000
vn -0.587785 -0.809017 0.000000
vn -0.587785 -0.809017 0.000000
vn -0.809017 -0.587785 0.000000
vn -0.809017 -0.587785 0.000000
vn -0.951056 -0.309017 0.000000
vn -0.951056 -0.309017 0.000000
vn -1.000000 -0.000000 0.000000
vn -1.000000 -0.000000 0.000000
vn -0.951057 0.309017 -0.000000
vn -0.951057 0.309017 -0.000000
vn -0.809017 0.587785 -0.000000
vn -0.809017 0.587785 -0.000000
vn -0.587785 0.809017 -0.000000
vn -0.587785 0.809017 -0.000000
vn -0.309017 0.951056 -0.000000
vn -0.309017 0.951056 -0.000000
vn 0.000000 1.000000 -0.000000
vn 0.000000 1.000000 -0.000000
vn 0.309018 0.951056 -0.000000
vn 0.309018 0.951056 -0.000000
vn 0.587785 0.809017 -0.000000
vn 0.587785 0.809017 -0.000000
vn 0.809017 0.587785 -0.000000
vn 0.809017 0.587785 -0.000000
vn 0.951057 0.309017 -0.000000
vn 0.951057 0.309017 -0.000000
vn 1.000000 0.000001 -0.000000
vn 1.000000 0.000001 -0.000000
vn -0.951057 0.309016 -0.000000
vn -0.951057 0.309016 -0.000000
vn -0.809017 0.587785 -0.000000
vn -0.809017 0.587785 -0.000000
vn -0.587785 0.809017 -0.000000
vn -0.587785 0.809017 -0.000000
vn -0.309017 0.951057 -0.000000
vn -0.309017 0.951057 -0.000000
vn 0.000000 1.000000 -0.000000
vn 0.000000 1.000000 -0.000000
vn 0.309017 0.951057 -0.000000
vn 0.309017 0.951057 -0.000000
vn 0.587785 0.809017 -0.000000
vn 0.587785 0.809017 -0.000000
vn 0.809017 0.587785 -0.000000
vn 0.809017 0.587785 -0.000000
vn 0.951057 0.309017 -0.000000
vn 0.951057 0.309017 -0.000000
vn 1.000000 0.000000 0.000000
vn 1.000000 0.000000 0.000000
vn 0.951057 -0.309017 0.000000
vn 0.951057 -0.309017 0.000000
vn 0.809017 -0.587785 0.000000
vn 0.809017 -0.587785 0.000000
vn 0.587785 -0.809017 0.000000
vn 0.587785 -0.809017 0.000000
vn 0.309017 -0.951057 0.000000
vn 0.309017 -0.951057 0.000000
vn 0.000000 -1.000000 0.000000
vn 0.000000 -1.000000 0.000000
vn -0.309017 -0.951056 0.000000
vn -0.309017 -0.951056 0.000000
vn -0.587785 -0.809017 0.000000
vn -0.587785 -0.809017 0.000000
vn -0.809017 -0.587785 0.000000
vn -0.809017 -0.587785 0.000000
vn -0.951057 -0.309017 0.000000
vn -0.951057 -0.309017 0.000000
vn -1.000000 -0.000001 0.000000
vn -1.000000 -0.000001 0.000000
vn 0.000000 -0.000000 1.000000
vn 0.000000 -0.000000 1.000000
vn 0.000000 -0.000000 1.000000
vn 0.000000 -0.000000 1.000000
vn 0.000000 -0.000000 -1.000000
vn 0.000000 -0.000000 -1.000000
vn 0.000000 -0.000000 -1.000000
vn 0.000000 -0.000000 -1.000000
vn 0.000000 -0.000000 1.000000
vn 0.000000 -0.000000 1.000000
vn 0.000000 0.000000 -1.000000
vn 0.000000 0.000000 -1.000000
vn 0.000000 -0.000000 1.000000
vn 0.000000 -0.000000 1.000000
vn 0.000000 -0.000000 -1.000000
vn 0.000000 -0.000000 -1.000000
vn 0.000000 0.000000 1.000000
vn 0.000000 0.000000 1.000000
vn 0.000000 -0.000000 -1.000000
vn 0.000000 -0.000000 -1.000000
vn 0.000000 0.000000 1.000000
vn 0.000000 0.000000 1.000000
vn 0.000000 -0.000000 -1.000000
vn 0.000000 -0.000000 -1.000000
vn 0.000000 0.000000 1.000000
vn 0.000000 0.000000 1.000000
vn 0.000000 -0.000000 -1.000000
vn 0.000000 -0.000000 -1.000000
vn 0.000000 -0.000000 1.000000
vn 0.000000 -0.000000 1.000000
vn 0.000000 -0.000000 -1.000000
vn 0.000000 -0.000000 -1.000000
vn 0.000000 -0.000000 1.000000
vn 0.000000 -0.000000 1.000000
vn 0.000000 -0.000000 -1.000000
vn 0.000000 -0.000000 -1.000000
vn 0.000000 -0.000000 1.000000
vn 0.000000 -0.000000 1.000000
vn 0.000000 0.000000 -1.000000
vn 0.000000 0.000000 -1.000000
vn 0.000000 0.000000 1.000000
vn 0.000000 0.000000 1.000000
vn 0.000000 0.000000 -1.000000
vn 0.000000 0.000000 -1.000000
vn 0.000000 0.000000 1.000000
vn 0.000000 0.000000 1.000000
vn 0.000000 0.000000 -1.000000
vn 0.000000 -0.000000 -1.000000
vn 0.000000 0.000000 1.000000
vn 0.000000 0.000000 1.000000
vn 0.000000 -0.000000 -1.000000
vn 0.000000 -0.000000 -1.000000
vn 0.000000 0.000000 1.000000
vn 0.000000 0.000000 1.000000
vn 0.000000 -0.000000 -1.000000
vn 0.000000 -0.000000 -1.000000
vn 0.000000 0.000000 1.000000
vn 0.000000 0.000000 1.000000
vn 0.000000 0.000000 -1.000000
vn 0.000000 0.000000 -1.000000
vn 0.000000 -0.000000 1.000000
vn 0.000000 -0.000000 1.000000
vn 0.000000 0.000000 -1.000000
vn 0.000000 0.000000 -1.000000
vn 0.000000 -0.000000 1.000000
vn 0.000000 -0.000000 1.000000
vn 0.000000 0.000000 -1.000000
vn 0.000000 0.000000 -1.000000
vn 0.000000 0.000000 1.000000
vn 0.000000 -0.000000 1.000000
vn 0.000000 0.000000 -1.000000
vn 0.000000 0.000000 -1.000000
vn 0.000000 0.000000 1.000000
vn 0.000000 0.000000 1.000000
vn 0.000000 0.000000 -1.000000
vn 0.000000 0.000000 -1.000000
vn 0.000000 0.000000 1.000000
vn 0.000000 0.000000 1.000000
vn 0.000000 -0.000000 -1.000000
vn 0.000000 -0.000000 -1.000000
s 1
g pCylinder2
f 41/85/1 42/86/2 43/87/3 44/88/4
f 42/86/2 45/89/5 46/90/6 43/87/3
f 45/89/5 47/91/7 48/92/8 46/90/6
f 47/91/7 49/93/9 50/94/10 48/92/8
f 49/93/9 51/95/11 52/96/12 50/94/10
f 51/95/11 53/97/13 54/98/14 52/96/12
f 53/97/13 55/99/15 56/100/16 54/98/14
f 55/99/15 57/101/17 58/102/18 56/100/16
f 57/101/17 59/103/19 60/104/20 58/102/18
f 59/103/19 61/105/21 62/106/22 60/104/20
f 61/105/21 63/107/23 64/108/24 62/106/22
f 63/107/23 65/109/25 66/110/26 64/108/24
f 65/109/25 67/111/27 68/112/28 66/110/26
f 67/111/27 69/113/29 70/114/30 68/112/28
f 69/113/29 71/115/31 72/116/32 70/114/30
f 71/115/31 73/117/33 74/118/34 72/116/32
f 73/117/33 75/119/35 76/120/36 74/118/34
f 75/119/35 77/121/37 78/122/38 76/120/36
f 77/121/37 79/123/39 80/124/40 78/122/38
f 79/123/39 41/125/1 44/126/4 80/124/40
s 2
f 1/43/41 21/46/42 22/45/43 2/44/44
f 2/44/44 22/45/43 23/48/45 3/47/46
f 3/47/46 23/48/45 24/50/47 4/49/48
f 4/49/48 24/50/47 25/52/49 5/51/50
f 5/51/50 25/52/49 26/54/51 6/53/52
f 6/53/52 26/54/51 27/56/53 7/55/54
f 7/55/54 27/56/53 28/58/55 8/57/56
f 8/57/56 28/58/55 29/60/57 9/59/58
f 9/59/58 29/60/57 30/62/59 10/61/60
f 10/61/60 30/62/59 31/64/61 11/63/62
f 11/63/62 31/64/61 32/66/63 12/65/64
f 12/65/64 32/66/63 33/68/65 13/67/66
f 13/67/66 33/68/65 34/70/67 14/69/68
f 14/69/68 34/70/67 35/72/69 15/71/70
f 15/71/70 35/72/69 36/74/71 16/73/72
f 16/73/72 36/74/71 37/76/73 17/75/74
f 17/75/74 37/76/73 38/78/75 18/77/76
f 18/77/76 38/78/75 39/80/77 19/79/78
f 19/79/78 39/80/77 40/82/79 20/81/80
f 20/81/80 40/82/79 21/84/42 1/83/41
s 3
f 1/1/81 2/2/82 42/86/83 41/85/84
s 4
f 22/23/85 21/22/86 44/88/87 43/87/88
s 3
f 2/2/82 3/3/89 45/89/90 42/86/83
s 4
f 23/24/91 22/23/85 43/87/88 46/90/92
s 3
f 3/3/89 4/4/93 47/91/94 45/89/90
s 4
f 24/25/95 23/24/91 46/90/92 48/92/96
s 3
f 4/4/93 5/5/97 49/93/98 47/91/94
s 4
f 25/26/99 24/25/95 48/92/96 50/94/100
s 3
f 5/5/97 6/6/101 51/95/102 49/93/98
s 4
f 26/27/103 25/26/99 50/94/100 52/96/104
s 3
f 6/6/101 7/7/105 53/97/106 51/95/102
s 4
f 27/28/107 26/27/103 52/96/104 54/98/108
s 3
f 7/7/105 8/8/109 55/99/110 53/97/106
s 4
f 28/29/111 27/28/107 54/98/108 56/100/112
s 3
f 8/8/109 9/9/113 57/101/114 55/99/110
s 4
f 29/30/115 28/29/111 56/100/112 58/102/116
s 3
f 9/9/113 10/10/117 59/103/118 57/101/114
s 4
f 30/31/119 29/30/115 58/102/116 60/104/120
s 3
f 10/10/117 11/11/121 61/105/122 59/103/118
s 4
f 31/32/123 30/31/119 60/104/120 62/106/124
s 3
f 11/11/121 12/12/125 63/107/126 61/105/122
s 4
f 32/33/127 31/32/123 62/106/124 64/108/128
s 3
f 12/12/125 13/13/129 65/109/130 63/107/126
s 4
f 33/34/131 32/33/127 64/108/128 66/110/132
s 3
f 13/13/129 14/14/133 67/111/134 65/109/130
s 4
f 34/35/135 33/34/131 66/110/132 68/112/136
s 3
f 14/14/133 15/15/137 69/113/138 67/111/134
s 4
f 35/36/139 34/35/135 68/112/136 70/114/140
s 3
f 15/15/137 16/16/141 71/115/142 69/113/138
s 4
f 36/37/143 35/36/139 70/114/140 72/116/144
s 3
f 16/16/141 17/17/145 73/117/146 71/115/142
s 4
f 37/38/147 36/37/143 72/116/144 74/118/148
s 3
f 17/17/145 18/18/149 75/119/150 73/117/146
s 4
f 38/39/151 37/38/147 74/118/148 76/120/152
s 3
f 18/18/149 19/19/153 77/121/154 75/119/150
s 4
f 39/40/155 38/39/151 76/120/152 78/122/156
s 3
f 19/19/153 20/20/157 79/123/158 77/121/154
s 4
f 40/41/159 39/40/155 78/122/156 80/124/160
s 3
f 20/20/157 1/21/81 41/125/84 79/123/158
s 4
f 21/42/86 40/41/159 80/124/160 44/126/87
