# author: headus 3D tools
#  using: ply2obj v1.8
#   from: uvlayout v2.09.04
# 104 vertices
v 0.9110000 0.0620000 -0.2960000
v 0.5628570 0.0621079 -0.7751770
v -0.0004490 0.0620000 -0.9582060
v -0.5637551 0.0620000 -0.7751770
v -0.9118984 0.0620000 -0.2960000
v -0.9118984 0.0620000 0.2962960
v -0.5637551 0.0620000 0.7754730
v -0.0004490 0.0620000 0.9585021
v 0.5628570 0.0620000 0.7754730
v 0.9109991 0.0620000 0.2962960
v 1.6012279 -0.0777540 -0.5202689
v 0.9894419 -0.0777540 -1.3623197
v -0.0004490 -0.0777540 -1.6839541
v -0.9903400 -0.0777540 -1.3623191
v -1.6021250 -0.0777540 -0.5202680
v -1.6021250 -0.0777540 0.5205640
v -0.9903400 -0.0777540 1.3626151
v -0.0004490 -0.0777540 1.6842502
v 0.9894419 -0.0777540 1.3626151
v 1.6012270 -0.0777540 0.5205640
v 2.3960851 0.0956139 -0.7785330
v 1.4806899 0.0956139 -2.0384650
v -0.0004490 0.0956139 -2.5197170
v -1.4815876 0.0956139 -2.0384650
v -2.3969824 0.0956139 -0.7785330
v -2.3969824 0.0956139 0.7788290
v -1.4815876 0.0956139 2.0387612
v -0.0004490 0.0956139 2.5200124
v 1.4806899 0.0956139 2.0387612
v 2.3960841 0.0956139 0.7788290
v 3.0193602 0.7470450 -0.9810470
v 1.8658961 0.7470450 -2.5686550
v -0.0004490 0.7470450 -3.1750674
v -1.8667942 0.7470450 -2.5686550
v -3.0202584 0.7470450 -0.9810470
v -3.0202584 0.7470450 0.9813431
v -1.8667930 0.7470450 2.5689504
v -0.0004490 0.7470450 3.1753620
v 1.8658950 0.7470450 2.5689504
v 3.0193584 0.7470450 0.9813431
v 3.3470356 1.5128480 -1.0875160
v 2.0684102 1.5128480 -2.8473916
v -0.0004490 1.5128480 -3.5196050
v -2.0693082 1.5128480 -2.8473916
v -3.3479336 1.5128480 -1.0875151
v -3.3479336 1.5128480 1.0878113
v -2.0693066 1.5128480 2.8476872
v -0.0004490 1.5128480 3.5199008
v 2.0684092 1.5128480 2.8476872
v 3.3470332 1.5128480 1.0878113
v 3.3470356 2.3180606 -1.0875160
v 2.0684102 2.3180606 -2.8473916
v -0.0004490 2.3180606 -3.5196050
v -2.0693082 2.3180606 -2.8473916
v -3.3479336 2.3180606 -1.0875151
v -3.3479336 2.3180606 1.0878113
v -2.0693066 2.3180606 2.8476872
v -0.0004490 2.3180606 3.5199008
v 2.0684092 2.3180606 2.8476872
v 3.3470332 2.3180606 1.0878113
v 3.0193610 3.0838632 -0.9810470
v 1.8658961 3.0838632 -2.5686550
v -0.0004490 3.0838632 -3.1750674
v -1.8667930 3.0838632 -2.5686550
v -3.0202584 3.0838632 -0.9810470
v -3.0202584 3.0838632 0.9813431
v -1.8667930 3.0838632 2.5689504
v -0.0004490 3.0838632 3.1753620
v 1.8658950 3.0838632 2.5689504
v 3.0193584 3.0838632 0.9813431
v 2.3960851 3.7352948 -0.7785330
v 1.4806899 3.7352948 -2.0384650
v -0.0004490 3.7352948 -2.5197170
v -1.4815876 3.7352948 -2.0384650
v -2.3969824 3.7352948 -0.7785330
v -2.3969824 3.7352948 0.7788290
v -1.4815876 3.7352948 2.0387612
v -0.0004490 3.7352948 2.5200124
v 1.4806899 3.7352948 2.0387612
v 2.3960841 3.7352948 0.7788290
v 1.5382209 4.2085860 -0.4997960
v 0.9505010 4.2085860 -1.3087230
v -0.0004490 4.2085860 -1.6177052
v -0.9513992 4.2085860 -1.3087220
v -1.5391184 4.2085860 -0.4997960
v -1.5391184 4.2085860 0.5000920
v -0.9513992 4.2085860 1.3090179
v -0.0004490 4.2085860 1.6180002
v 0.9505010 4.2085860 1.3090179
v 1.5382200 4.2085860 0.5000920
v 0.5297400 4.4574108 -0.1721210
v 0.3272260 4.4574108 -0.4508580
v -0.0004490 4.4574108 -0.5573260
v -0.3281241 4.4574108 -0.4508580
v -0.5306381 4.4574108 -0.1721210
v -0.5306381 4.4574108 0.1724170
v -0.3281241 4.4574108 0.4511540
v -0.0004490 4.4574108 0.5576220
v 0.3272260 4.4574108 0.4511540
v 0.5297400 4.4574108 0.1724170
v -0.0004490 4.4890956 0.0001480
v -0.0004490 0.0620000 0.0001480
v -0.0004010 0.0620000 0.0001319
v -0.0004191 0.0620000 0.0001580
# 114 normals
vn 0.094671 -0.994964 -0.030733
vn -0.179821 -0.981932 0.058414
vn -0.111091 -0.981932 0.152933
vn 0.058445 -0.994964 -0.080541
vn 0.000000 -0.981932 0.189068
vn 0.000000 -0.994964 -0.099554
vn 0.111060 -0.981932 0.152902
vn -0.058445 -0.994964 -0.080541
vn 0.179760 -0.981932 0.058414
vn -0.094671 -0.994964 -0.030733
vn 0.179760 -0.981932 -0.058414
vn -0.094671 -0.994964 0.030733
vn 0.111060 -0.981932 -0.152902
vn -0.058445 -0.994964 0.080541
vn 0.000000 -0.981932 -0.189007
vn 0.000000 -0.994964 0.099554
vn -0.111060 -0.981932 -0.152902
vn 0.058445 -0.994964 0.080541
vn -0.179760 -0.981932 -0.058414
vn 0.094671 -0.994964 0.030733
vn 0.534884 -0.826772 -0.173778
vn 0.330495 -0.826772 -0.454984
vn 0.000000 -0.826772 -0.562412
vn -0.330495 -0.826772 -0.454984
vn -0.534884 -0.826772 -0.173778
vn -0.534884 -0.826772 0.173778
vn -0.330495 -0.826772 0.454984
vn 0.000000 -0.826772 0.562412
vn 0.330495 -0.826772 0.454984
vn 0.534884 -0.826772 0.173778
vn 0.796313 -0.546725 -0.258713
vn 0.492126 -0.546725 -0.677379
vn 0.000000 -0.546725 -0.837270
vn -0.492126 -0.546725 -0.677379
vn -0.796313 -0.546725 -0.258713
vn -0.796313 -0.546725 0.258713
vn -0.492126 -0.546725 0.677379
vn 0.000000 -0.546725 0.837270
vn 0.492126 -0.546725 0.677379
vn 0.796313 -0.546725 0.258713
vn 0.931759 -0.200085 -0.302722
vn 0.575871 -0.200085 -0.792651
vn 0.000000 -0.200085 -0.979766
vn -0.575871 -0.200085 -0.792651
vn -0.931759 -0.200085 -0.302722
vn -0.931759 -0.200085 0.302722
vn -0.575871 -0.200085 0.792651
vn 0.000000 -0.200085 0.979766
vn 0.575871 -0.200085 0.792651
vn 0.931759 -0.200085 0.302722
vn 0.931759 0.200085 -0.302722
vn 0.575871 0.200085 -0.792651
vn 0.000000 0.200085 -0.979766
vn -0.575871 0.200085 -0.792651
vn -0.931759 0.200085 -0.302722
vn -0.931759 0.200085 0.302722
vn -0.575871 0.200085 0.792651
vn 0.000000 0.200085 0.979766
vn 0.575871 0.200085 0.792651
vn 0.931759 0.200085 0.302722
vn 0.796313 0.546725 -0.258713
vn 0.492126 0.546725 -0.677379
vn 0.000000 0.546725 -0.837270
vn -0.492126 0.546725 -0.677379
vn -0.796313 0.546725 -0.258713
vn -0.796313 0.546725 0.258713
vn -0.492126 0.546725 0.677379
vn 0.000000 0.546725 0.837270
vn 0.492126 0.546725 0.677379
vn 0.796313 0.546725 0.258713
vn 0.592871 0.781847 -0.192547
vn 0.366325 0.781847 -0.504242
vn 0.000000 0.781847 -0.623299
vn -0.366325 0.781847 -0.504242
vn -0.592871 0.781847 -0.192547
vn -0.592871 0.781847 0.192547
vn -0.366325 0.781847 0.504242
vn 0.000000 0.781847 0.623299
vn 0.366325 0.781847 0.504242
vn 0.592871 0.781847 0.192547
vn 0.381829 0.915827 -0.124000
vn 0.235946 0.915827 -0.324849
vn 0.000000 0.915827 -0.401483
vn -0.235946 0.915827 -0.324849
vn -0.381829 0.915827 -0.124000
vn -0.381829 0.915827 0.124000
vn -0.235946 0.915827 0.324849
vn 0.000000 0.915827 0.401483
vn 0.235946 0.915827 0.324849
vn 0.381829 0.915827 0.124000
vn 0.193188 0.979064 -0.062717
vn 0.118415 0.979399 -0.163065
vn 0.000000 0.979064 -0.203107
vn -0.118415 0.979399 -0.163065
vn -0.193188 0.979064 -0.062717
vn -0.191693 0.979399 0.062229
vn -0.119362 0.979064 0.164347
vn 0.000000 0.979399 0.201550
vn 0.119362 0.979064 0.164347
vn 0.191693 0.979399 0.062229
vn 0.000000 1.000000 0.000000
vn 0.000000 -1.000000 0.000000
vn 0.000000 -1.000000 0.000000
vn 0.000000 -1.000000 0.000000
vn 0.000000 -1.000000 0.000000
vn 0.000000 -1.000000 0.000000
vn 0.000000 -1.000000 0.000000
vn 0.000000 -1.000000 0.000000
vn 0.000000 -1.000000 0.000000
vn 0.000000 -1.000000 0.000000
vn 0.000000 -1.000000 0.000000
vn 0.000000 -1.000000 0.000000
vn 0.000000 -1.000000 0.000000
vn 0.000000 -1.000000 -0.000031
# 140 uv coords
vt 0.479417 0.748211
vt 0.443776 0.774198
vt 0.430051 0.816108
vt 0.443779 0.858028
vt 0.479404 0.884032
vt 0.523510 0.883937
vt 0.559247 0.858088
vt 0.572785 0.816108
vt 0.559255 0.774122
vt 0.523524 0.748280
vt 0.462406 0.695861
vt 0.399201 0.741806
vt 0.375023 0.816110
vt 0.399198 0.890416
vt 0.462397 0.936370
vt 0.540537 0.936341
vt 0.603769 0.890434
vt 0.627889 0.816108
vt 0.603778 0.741781
vt 0.540546 0.695876
vt 0.907323 0.607649
vt 0.091706 0.607646
vt 0.065060 0.459513
vt 0.065060 0.307805
vt 0.091703 0.159673
vt 0.907320 0.159675
vt 0.933961 0.307808
vt 0.933962 0.459516
vt 0.846295 0.609736
vt 0.152732 0.609733
vt 0.118787 0.459654
vt 0.118788 0.307664
vt 0.152731 0.157587
vt 0.846294 0.157588
vt 0.880232 0.307667
vt 0.880233 0.459656
vt 0.790508 0.603005
vt 0.208519 0.603000
vt 0.169050 0.457617
vt 0.169050 0.309702
vt 0.208518 0.164319
vt 0.790507 0.164319
vt 0.829968 0.309705
vt 0.829968 0.457619
vt 0.734962 0.582918
vt 0.264064 0.582914
vt 0.223018 0.451404
vt 0.223019 0.315916
vt 0.264062 0.184406
vt 0.734961 0.184406
vt 0.776000 0.315919
vt 0.775999 0.451406
vt 0.676209 0.547786
vt 0.322814 0.547781
vt 0.285443 0.440196
vt 0.285443 0.327123
vt 0.322813 0.219539
vt 0.676209 0.219538
vt 0.713576 0.327125
vt 0.713576 0.440199
vt 0.614503 0.499601
vt 0.384517 0.499596
vt 0.357465 0.424338
vt 0.357465 0.342981
vt 0.384518 0.267723
vt 0.614503 0.267723
vt 0.641555 0.342983
vt 0.641553 0.424341
vt 0.501482 0.816148
vt 0.501531 0.816306
vt 0.501476 0.816305
vt 0.954682 0.957173
vt 0.816374 0.001815
vt 0.896200 0.012423
vt 0.975426 0.159666
vt 0.997205 0.305803
vt 0.969749 0.031936
vt 0.734203 0.017398
vt 0.997205 0.461520
vt 0.659154 0.063470
vt 0.975428 0.607657
vt 0.896200 0.754900
vt 0.816374 0.765508
vt 0.599474 0.134050
vt 0.969751 0.735386
vt 0.734204 0.749925
vt 0.558006 0.217226
vt 0.659154 0.703854
vt 0.562622 0.360708
vt 0.551193 0.321325
vt 0.529947 0.300304
vt 0.599475 0.633273
vt 0.562622 0.406617
vt 0.558006 0.550098
vt 0.551192 0.445999
vt 0.529946 0.467021
vt 0.436396 0.406612
vt 0.447826 0.445992
vt 0.469073 0.467013
vt 0.441016 0.550091
vt 0.436397 0.360706
vt 0.399552 0.633267
vt 0.447827 0.321326
vt 0.339874 0.703849
vt 0.441016 0.217228
vt 0.469075 0.300305
vt 0.264825 0.749920
vt 0.399550 0.134052
vt 0.182656 0.765503
vt 0.339872 0.063471
vt 0.102831 0.754898
vt 0.023599 0.607656
vt 0.001816 0.461518
vt 0.264824 0.017398
vt 0.029281 0.735386
vt 0.001815 0.305800
vt 0.182653 0.001815
vt 0.023597 0.159663
vt 0.102828 0.012421
vt 0.029277 0.031932
vt 0.988495 0.932606
vt 0.996474 0.957173
vt 0.988495 0.981740
vt 0.941765 0.917423
vt 0.967596 0.917427
vt 0.967596 0.996920
vt 0.941766 0.996923
vt 0.912886 0.957174
vt 0.920871 0.932609
vt 0.920872 0.981739
vt 0.655371 0.704300
vt 0.691673 0.816111
vt 0.655361 0.927918
vt 0.560253 0.635215
vt 0.442698 0.635209
vt 0.560247 0.997003
vt 0.442690 0.997020
vt 0.311253 0.816109
vt 0.347601 0.704313
vt 0.347596 0.927907
# 101 polygons
s 1
g Lycoperdon_nigrescens_Ball_low
f 11/11/1 1/1/2 2/2/3 12/12/4
f 12/12/4 2/2/3 3/3/5 13/13/6
f 13/13/6 3/3/5 4/4/7 14/14/8
f 14/14/8 4/4/7 5/5/9 15/15/10
f 15/15/10 5/5/9 6/6/11 16/16/12
f 16/16/12 6/6/11 7/7/13 17/17/14
f 17/17/14 7/7/13 8/8/15 18/18/16
f 18/18/16 8/8/15 9/9/17 19/19/18
f 19/19/18 9/9/17 10/10/19 20/20/20
f 20/20/20 10/10/19 1/1/2 11/11/1
f 21/135/21 11/11/1 12/12/4 22/139/22
f 22/139/22 12/12/4 13/13/6 23/138/23
f 23/138/23 13/13/6 14/14/8 24/140/24
f 24/140/24 14/14/8 15/15/10 25/137/25
f 25/137/25 15/15/10 16/16/12 26/136/26
f 26/136/26 16/16/12 17/17/14 27/133/27
f 27/133/27 17/17/14 18/18/16 28/132/28
f 28/132/28 18/18/16 19/19/18 29/131/29
f 29/131/29 19/19/18 20/20/20 30/134/30
f 30/134/30 20/20/20 11/11/1 21/135/21
f 31/21/31 21/81/21 22/85/22 32/82/32
f 32/111/32 22/115/22 23/112/23 33/22/33
f 33/22/33 23/112/23 24/113/24 34/23/34
f 34/23/34 24/113/24 25/116/25 35/24/35
f 35/24/35 25/116/25 26/118/26 36/25/36
f 36/25/36 26/118/26 27/120/27 37/119/37
f 37/74/37 27/77/27 28/75/28 38/26/38
f 38/26/38 28/75/28 29/76/29 39/27/39
f 39/27/39 29/76/29 30/79/30 40/28/40
f 40/28/40 30/79/30 21/81/21 31/21/31
f 41/29/41 31/21/31 32/82/32 42/83/42
f 42/109/42 32/111/32 33/22/33 43/30/43
f 43/30/43 33/22/33 34/23/34 44/31/44
f 44/31/44 34/23/34 35/24/35 45/32/45
f 45/32/45 35/24/35 36/25/36 46/33/46
f 46/33/46 36/25/36 37/119/37 47/117/47
f 47/73/47 37/74/37 38/26/38 48/34/48
f 48/34/48 38/26/38 39/27/39 49/35/49
f 49/35/49 39/27/39 40/28/40 50/36/50
f 50/36/50 40/28/40 31/21/31 41/29/41
f 51/37/51 41/29/41 42/83/42 52/86/52
f 52/107/52 42/109/42 43/30/43 53/38/53
f 53/38/53 43/30/43 44/31/44 54/39/54
f 54/39/54 44/31/44 45/32/45 55/40/55
f 55/40/55 45/32/45 46/33/46 56/41/56
f 56/41/56 46/33/46 47/117/47 57/114/57
f 57/78/57 47/73/47 48/34/48 58/42/58
f 58/42/58 48/34/48 49/35/49 59/43/59
f 59/43/59 49/35/49 50/36/50 60/44/60
f 60/44/60 50/36/50 41/29/41 51/37/51
f 61/45/61 51/37/51 52/86/52 62/88/62
f 62/104/62 52/107/52 53/38/53 63/46/63
f 63/46/63 53/38/53 54/39/54 64/47/64
f 64/47/64 54/39/54 55/40/55 65/48/65
f 65/48/65 55/40/55 56/41/56 66/49/66
f 66/49/66 56/41/56 57/114/57 67/110/67
f 67/80/67 57/78/57 58/42/58 68/50/68
f 68/50/68 58/42/58 59/43/59 69/51/69
f 69/51/69 59/43/59 60/44/60 70/52/70
f 70/52/70 60/44/60 51/37/51 61/45/61
f 71/53/71 61/45/61 62/88/62 72/92/72
f 72/102/72 62/104/62 63/46/63 73/54/73
f 73/54/73 63/46/63 64/47/64 74/55/74
f 74/55/74 64/47/64 65/48/65 75/56/75
f 75/56/75 65/48/65 66/49/66 76/57/76
f 76/57/76 66/49/66 67/110/67 77/108/77
f 77/84/77 67/80/67 68/50/68 78/58/78
f 78/58/78 68/50/68 69/51/69 79/59/79
f 79/59/79 69/51/69 70/52/70 80/60/80
f 80/60/80 70/52/70 61/45/61 71/53/71
f 81/61/81 71/53/71 72/92/72 82/94/82
f 82/100/82 72/102/72 73/54/73 83/62/83
f 83/62/83 73/54/73 74/55/74 84/63/84
f 84/63/84 74/55/74 75/56/75 85/64/85
f 85/64/85 75/56/75 76/57/76 86/65/86
f 86/65/86 76/57/76 77/108/77 87/105/87
f 87/87/87 77/84/77 78/58/78 88/66/88
f 88/66/88 78/58/78 79/59/79 89/67/89
f 89/67/89 79/59/79 80/60/80 90/68/90
f 90/68/90 80/60/80 71/53/71 81/61/81
f 91/95/91 81/61/81 82/94/82 92/96/92
f 92/99/92 82/100/82 83/62/83 93/98/93
f 93/98/93 83/62/83 84/63/84 94/97/94
f 94/97/94 84/63/84 85/64/85 95/101/95
f 95/101/95 85/64/85 86/65/86 96/103/96
f 96/103/96 86/65/86 87/105/87 97/106/97
f 97/91/97 87/87/87 88/66/88 98/90/98
f 98/90/98 88/66/88 89/67/89 99/89/99
f 99/89/99 89/67/89 90/68/90 100/93/100
f 100/93/100 90/68/90 81/61/81 91/95/91
f 101/72/101 92/121/92 93/122/93 94/123/94
f 101/72/101 94/123/94 95/126/95 96/127/96
f 101/72/101 96/127/96 97/130/97 98/128/98
f 101/72/101 98/128/98 99/129/99 100/124/100
f 101/72/101 100/124/100 91/125/91 92/121/92
s 2
f 10/10/102 9/9/103 102/69/104 104/71/105 103/70/106 1/1/107
f 6/6/108 5/5/109 102/69/104 7/7/110
f 4/4/111 3/3/112 102/69/104 5/5/109
f 103/70/106 104/71/105 102/69/104
f 102/69/104 9/9/103 8/8/113 7/7/110
f 103/70/106 102/69/104 3/3/112 2/2/114 1/1/107
# totals: 104 140 114 101
