# This file uses centimeters as units for non-parametric coordinates.

g default
v -8.398235 -1.117723 -0.400486
v -8.745922 -1.117723 -0.653095
v -9.175689 -1.117723 -0.653095
v -9.523375 -1.117723 -0.400486
v -9.656180 -1.108026 0.008245
v -9.523375 -1.108026 0.416975
v -9.175689 -1.108026 0.669584
v -8.745922 -1.108026 0.669584
v -8.398235 -1.117723 0.416975
v -8.265432 -1.117723 0.008245
v -8.960807 -1.807631 0.008245
v -8.483693 -1.482534 -0.338398
v -8.778565 -1.482534 -0.552637
v -9.143046 -1.482534 -0.552637
v -9.437918 -1.482534 -0.338398
v -9.550550 -1.482534 0.008245
v -9.437918 -1.482534 0.354889
v -9.143046 -1.482534 0.569126
v -8.778565 -1.482534 0.569126
v -8.483693 -1.482534 0.354889
v -8.371062 -1.482534 0.008245
v -8.644245 -1.702609 -0.221749
v -8.839888 -1.702609 -0.363894
v -9.081725 -1.702609 -0.363894
v -9.277363 -1.702609 -0.221749
v -9.352095 -1.702609 0.008245
v -9.277362 -1.702609 0.238240
v -9.081725 -1.702609 0.380384
v -8.839888 -1.702609 0.380384
v -8.644245 -1.702609 0.238240
v -8.569520 -1.702609 0.008245
v -8.409855 -0.015449 0.008245
v -8.409855 3.282163 0.008245
v -8.515077 -0.015449 0.332086
v -8.515077 3.282163 0.332086
v -8.790552 -0.015449 0.532231
v -8.790552 3.282163 0.532231
v -9.131060 -0.015449 0.532231
v -9.131060 3.282163 0.532231
v -9.406535 -0.015449 0.332086
v -9.406535 3.282163 0.332086
v -9.511758 -0.015449 0.008245
v -9.511758 3.282163 0.008245
v -9.406536 -0.015449 -0.315595
v -9.406536 3.282163 -0.315595
v -9.131060 -0.015449 -0.515741
v -9.131060 3.282163 -0.515741
v -8.790552 -0.015449 -0.515741
v -8.790552 3.282163 -0.515741
v -8.515076 -0.015449 -0.315595
v -8.515076 3.282163 -0.315595
v -7.502108 2.173670 -0.465715
v -7.559895 1.743243 -0.446939
v -8.094994 1.743243 -1.183442
v -8.059280 2.173670 -1.232599
v -8.960807 1.743243 -1.464758
v -8.960807 2.173670 -1.525522
v -9.826615 1.743243 -1.183439
v -9.862332 2.173670 -1.232597
v -10.361718 1.743243 -0.446939
v -10.419504 2.173670 -0.465715
v -10.361718 1.743243 0.463428
v -10.419504 2.173670 0.482204
v -9.826615 1.743243 1.199929
v -9.862331 2.173670 1.249086
v -8.960807 1.743243 1.481248
v -8.960807 2.173670 1.542009
v -8.094994 1.743243 1.199929
v -8.059281 2.173670 1.249086
v -7.559896 1.743243 0.463428
v -7.502108 2.173670 0.482204
v -8.539063 3.838722 -0.128787
v -8.960807 3.838722 0.008245
v -8.700154 3.838722 -0.350507
v -8.960807 3.838722 -0.435198
v -9.221456 3.838722 -0.350507
v -9.382546 3.838722 -0.128787
v -9.382546 3.838722 0.145277
v -9.221456 3.838722 0.366998
v -8.960807 3.838722 0.451688
v -8.700154 3.838722 0.366998
v -8.539063 3.838722 0.145275
v -7.735924 1.386979 -0.389744
v -7.856685 1.411272 -0.350506
v -8.203784 1.386979 -1.033706
v -8.278422 1.411272 -0.930977
v -8.960807 1.386979 -1.279672
v -8.960807 1.411272 -1.152696
v -9.717824 1.386979 -1.033706
v -9.643190 1.411272 -0.930977
v -10.185690 1.386979 -0.389744
v -10.064927 1.411272 -0.350506
v -10.185690 1.386979 0.406233
v -10.064927 1.411272 0.366995
v -9.717824 1.386979 1.050195
v -9.643190 1.411272 0.947466
v -8.960807 1.386979 1.296163
v -8.960807 1.411272 1.169187
v -8.203785 1.386979 1.050195
v -8.278423 1.411272 0.947466
v -7.735924 1.386979 0.406233
v -7.856685 1.411272 0.366995
v -8.117537 3.647144 -0.265748
v -8.117538 3.647144 0.282238
v -8.439637 3.647144 0.725571
v -8.960807 3.647144 0.894908
v -9.481975 3.647144 0.725571
v -9.804074 3.647144 0.282238
v -9.804074 3.647144 -0.265748
v -9.481975 3.647144 -0.709082
v -8.960807 3.647144 -0.878419
v -8.439636 3.647144 -0.709082
v -7.700271 3.086165 -0.401327
v -7.700271 3.086165 0.417816
v -8.181752 3.086165 1.080521
v -8.960807 3.086165 1.333648
v -9.739860 3.086165 1.080521
v -10.221342 3.086165 0.417816
v -10.221342 3.086165 -0.401327
v -9.739860 3.086165 -1.064031
v -8.960807 3.086165 -1.317158
v -8.181751 3.086165 -1.064031
v -7.728563 2.390504 -0.392136
v -7.909621 3.126156 -0.333306
v -8.199239 2.390500 -1.039962
v -8.311137 3.126152 -0.885944
v -8.960808 2.390500 -1.287411
v -8.960804 3.126151 -1.097034
v -9.722375 2.390500 -1.039962
v -9.610473 3.126152 -0.885946
v -10.193049 2.390500 -0.392135
v -10.011991 3.126152 -0.333306
v -10.193048 2.390500 0.408623
v -10.011990 3.126152 0.349795
v -9.722375 2.390500 1.056452
v -9.610472 3.126152 0.902437
v -8.960806 2.390500 1.303901
v -8.960807 3.126152 1.113526
v -8.199239 2.390500 1.056451
v -8.311138 3.126151 0.902435
v -7.728563 2.390500 0.408625
v -7.909623 3.126152 0.349795
v -8.442049 3.266809 -0.160308
v -8.640201 3.266809 -0.433034
v -8.960805 3.266809 -0.537205
v -9.281414 3.266810 -0.433034
v -9.479566 3.266810 -0.160310
v -9.479562 3.266809 0.176799
v -9.281418 3.266810 0.449523
v -8.960804 3.266810 0.553697
v -8.640196 3.266809 0.449526
v -8.442054 3.266809 0.176798
vt 0.891907 0.160147
vt 0.905006 0.159127
vt 0.917961 0.158520
vt 0.930858 0.158253
vt 0.943753 0.158616
vt 0.956705 0.159009
vt 0.969805 0.159812
vt 0.983164 0.161238
vt 0.996776 0.163480
vt 0.865048 0.164549
vt 0.878561 0.161795
vt 0.036797 0.036773
vt 0.069373 0.025074
vt 0.058158 0.029410
vt 0.060589 0.011499
vt 0.052378 0.020272
vt 0.046348 0.003284
vt 0.043042 0.014836
vt 0.029811 0.002614
vt 0.032245 0.014382
vt 0.014751 0.009455
vt 0.022502 0.019017
vt 0.004799 0.022604
vt 0.016039 0.027626
vt 0.001942 0.038572
vt 0.014255 0.038253
vt 0.005996 0.053638
vt 0.017328 0.048721
vt 0.014343 0.065497
vt 0.024140 0.057826
vt 0.068502 0.054702
vt 0.056542 0.051312
vt 0.071416 0.040503
vt 0.059361 0.040282
vt 0.049459 0.032901
vt 0.046056 0.027209
vt 0.040513 0.023889
vt 0.034128 0.023596
vt 0.028364 0.026357
vt 0.024555 0.031563
vt 0.023626 0.038118
vt 0.025868 0.044712
vt 0.030917 0.050218
vt 0.047388 0.046884
vt 0.049938 0.039858
vt 0.884718 0.196698
vt 0.889986 0.301664
vt 0.873765 0.198242
vt 0.879140 0.302829
vt 0.988590 0.197306
vt 0.984868 0.301964
vt 0.977615 0.195936
vt 0.974005 0.300973
vt 0.966293 0.194847
vt 0.963344 0.299918
vt 0.954703 0.194135
vt 0.952821 0.299222
vt 0.942960 0.193768
vt 0.942381 0.298864
vt 0.931149 0.193715
vt 0.931977 0.298807
vt 0.919337 0.193964
vt 0.921574 0.299037
vt 0.907599 0.194523
vt 0.911141 0.299568
vt 0.896021 0.195425
vt 0.900629 0.300436
vt 0.199939 0.180909
vt 0.197670 0.168205
vt 0.227653 0.169925
vt 0.227917 0.183450
vt 0.256368 0.176156
vt 0.255655 0.190672
vt 0.285162 0.179673
vt 0.284645 0.196973
vt 0.107755 0.329710
vt 0.091003 0.325366
vt 0.095680 0.296737
vt 0.109816 0.300113
vt 0.097725 0.267423
vt 0.110636 0.271458
vt 0.104452 0.238150
vt 0.116014 0.243880
vt 0.118655 0.211003
vt 0.128422 0.218884
vt 0.140340 0.188887
vt 0.147802 0.198834
vt 0.167638 0.174252
vt 0.172472 0.185835
vt 0.196222 0.263379
vt 0.200881 0.248283
vt 0.207691 0.250919
vt 0.213203 0.255908
vt 0.216156 0.263322
vt 0.190598 0.282504
vt 0.184305 0.277596
vt 0.181053 0.270909
vt 0.180425 0.263634
vt 0.182536 0.256745
vt 0.187196 0.251353
vt 0.193674 0.248384
vt 0.195084 0.153299
vt 0.194531 0.148121
vt 0.227583 0.148717
vt 0.227200 0.154132
vt 0.256148 0.155251
vt 0.255850 0.160413
vt 0.280462 0.160076
vt 0.282125 0.165560
vt 0.078297 0.318525
vt 0.073420 0.315409
vt 0.075632 0.290632
vt 0.080688 0.291824
vt 0.077675 0.261323
vt 0.082801 0.262554
vt 0.086122 0.229331
vt 0.090857 0.231454
vt 0.103147 0.198570
vt 0.107152 0.201756
vt 0.128604 0.173057
vt 0.131587 0.177180
vt 0.160252 0.155834
vt 0.162024 0.160620
vt 0.203405 0.231512
vt 0.189615 0.232525
vt 0.182457 0.211230
vt 0.203333 0.208661
vt 0.177468 0.238385
vt 0.164048 0.220493
vt 0.168447 0.248409
vt 0.150007 0.235576
vt 0.163619 0.261366
vt 0.141703 0.254902
vt 0.163422 0.275808
vt 0.139542 0.276710
vt 0.167915 0.290384
vt 0.142898 0.299656
vt 0.177742 0.303627
vt 0.151156 0.323212
vt 0.240029 0.256880
vt 0.230061 0.243744
vt 0.245960 0.222314
vt 0.266268 0.236827
vt 0.217325 0.235359
vt 0.224871 0.212680
vt 0.088056 0.621397
vt 0.073849 0.601807
vt 0.092992 0.589671
vt 0.104709 0.610878
vt 0.072751 0.633834
vt 0.056258 0.616290
vt 0.058914 0.648251
vt 0.040332 0.633288
vt 0.047912 0.665995
vt 0.025249 0.652800
vt 0.227505 0.571213
vt 0.220339 0.596439
vt 0.200107 0.591293
vt 0.203106 0.567626
vt 0.180139 0.590513
vt 0.179841 0.566435
vt 0.160487 0.592176
vt 0.157123 0.568211
vt 0.141194 0.596158
vt 0.134916 0.572757
vt 0.122509 0.602421
vt 0.113443 0.579947
vt 0.113543 0.626889
vt 0.098773 0.636200
vt 0.085334 0.647031
vt 0.073851 0.658608
vt 0.066960 0.669645
vt 0.209153 0.612283
vt 0.196535 0.609115
vt 0.180235 0.608746
vt 0.163043 0.610274
vt 0.145945 0.613816
vt 0.129352 0.619380
vt 0.056194 0.575387
vt 0.078831 0.561189
vt 0.035535 0.592076
vt 0.018501 0.609807
vt 0.004640 0.628495
vt 0.203816 0.535513
vt 0.226663 0.539350
vt 0.179034 0.534543
vt 0.153168 0.536618
vt 0.127792 0.541746
vt 0.102528 0.550073
vn 0.993704 -0.112039 0.000000
vn 0.808736 0.026416 -0.587579
vn 0.808882 0.017061 -0.587723
vn 0.999855 0.017060 0.000000
vn 0.307004 -0.112009 -0.945094
vn 0.308902 0.017061 -0.950941
vn -0.307004 -0.112009 -0.945094
vn -0.308902 0.017061 -0.950941
vn -0.804694 -0.114730 -0.582499
vn -0.808882 0.017061 -0.587723
vn -0.993680 -0.112254 0.000000
vn -0.999855 0.017060 0.000000
vn -0.803934 -0.112258 0.584028
vn -0.808882 0.017061 0.587723
vn -0.307005 -0.112255 0.945065
vn -0.308902 0.017061 0.950941
vn 0.307005 -0.112255 0.945065
vn 0.308902 0.017061 0.950941
vn 0.802688 -0.114727 0.585261
vn 0.808882 0.017061 0.587723
vn 0.000000 -1.000000 0.000000
vn 0.552508 -0.730503 -0.401372
vn 0.682916 -0.730497 0.000000
vn 0.210957 -0.730507 -0.649505
vn -0.210957 -0.730507 -0.649505
vn -0.552508 -0.730503 -0.401372
vn -0.682916 -0.730497 0.000000
vn -0.552508 -0.730503 0.401372
vn -0.210957 -0.730507 0.649505
vn 0.210957 -0.730507 0.649505
vn 0.552508 -0.730503 0.401372
vn 0.732203 -0.425404 -0.531893
vn 0.905000 -0.425412 0.000000
vn 0.279598 -0.425393 -0.860736
vn -0.279598 -0.425393 -0.860736
vn -0.734455 -0.423861 -0.530017
vn -0.908003 -0.418963 0.000000
vn -0.734590 -0.419002 0.533681
vn -0.280539 -0.418992 0.863564
vn 0.280539 -0.418992 0.863564
vn 0.731050 -0.423869 0.534698
vn 0.808999 0.000000 -0.587811
vn 1.000000 0.000000 0.000000
vn 0.808999 0.000000 0.587811
vn 0.308957 0.000000 0.951076
vn -0.308957 0.000000 0.951076
vn -0.808999 0.000000 0.587811
vn -1.000000 0.000000 0.000000
vn -0.808999 0.000000 -0.587811
vn -0.308957 0.000000 -0.951076
vn 0.308957 0.000000 -0.951076
vn 0.945913 0.103868 -0.307345
vn 0.912618 -0.281427 -0.296526
vn 0.573840 -0.216797 -0.789751
vn 0.586650 -0.061748 -0.807483
vn 0.000000 -0.216785 -0.976219
vn 0.000000 -0.061742 -0.998092
vn -0.573840 -0.216797 -0.789751
vn -0.586650 -0.061748 -0.807483
vn -0.928431 -0.216801 -0.301684
vn -0.949248 -0.061743 -0.308409
vn -0.928431 -0.216801 0.301684
vn -0.949248 -0.061743 0.308409
vn -0.573840 -0.216797 0.789751
vn -0.586650 -0.061748 0.807483
vn 0.000000 -0.216785 0.976219
vn 0.000000 -0.061742 0.998092
vn 0.573840 -0.216797 0.789751
vn 0.586650 -0.061748 0.807483
vn 0.928431 -0.216801 0.301684
vn 0.949248 -0.061743 0.308409
vn 0.000000 1.000000 0.000000
vn 0.168930 0.984098 -0.054906
vn 0.104441 0.984096 -0.143690
vn 0.000000 0.984087 -0.177687
vn -0.104441 0.984096 -0.143690
vn -0.168930 0.984098 -0.054906
vn -0.168930 0.984098 0.054906
vn -0.104441 0.984096 0.143690
vn 0.000000 0.984087 0.177687
vn 0.104441 0.984096 0.143690
vn 0.168930 0.984098 0.054906
vn 0.440186 -0.886444 -0.143015
vn -0.948728 0.069953 0.308256
vn -0.586334 0.069958 0.807043
vn 0.272058 -0.886462 -0.374393
vn 0.000000 0.069953 0.997550
vn 0.000000 -0.886446 -0.462832
vn 0.586334 0.069958 0.807043
vn -0.272058 -0.886462 -0.374393
vn 0.948728 0.069953 0.308256
vn -0.440197 -0.886438 -0.143019
vn 0.948728 0.069953 -0.308256
vn -0.440186 -0.886444 0.143015
vn 0.586334 0.069958 -0.807043
vn -0.272065 -0.886456 0.374403
vn 0.000000 0.069953 -0.997550
vn 0.000000 -0.886440 0.462844
vn -0.586334 0.069958 -0.807043
vn 0.272058 -0.886462 0.374393
vn -0.948728 0.069953 -0.308256
vn 0.440186 -0.886444 0.143015
vn 0.634045 0.745351 -0.206007
vn 0.634045 0.745351 0.206007
vn 0.858243 0.430861 0.278888
vn 0.858250 0.430864 -0.278860
vn 0.391807 0.745401 0.539319
vn 0.530423 0.430833 0.730092
vn 0.000000 0.745382 0.666638
vn 0.000000 0.430841 0.902428
vn -0.391807 0.745401 0.539319
vn -0.530423 0.430833 0.730092
vn -0.634045 0.745351 0.206007
vn -0.858243 0.430861 0.278888
vn -0.634045 0.745351 -0.206007
vn -0.858243 0.430861 -0.278888
vn -0.391807 0.745401 -0.539319
vn -0.530423 0.430833 -0.730092
vn 0.000000 0.745382 -0.666638
vn 0.000000 0.430841 -0.902428
vn 0.391807 0.745401 -0.539319
vn 0.530423 0.430833 -0.730092
vn -0.799177 -0.542093 0.259713
vn -0.950996 0.009950 0.309042
vn -0.951010 0.009949 -0.309002
vn -0.799190 -0.542093 -0.259673
vn -0.493931 -0.542099 0.679824
vn -0.587698 0.009949 0.809019
vn 0.000008 -0.542099 0.840315
vn -0.000072 0.009949 0.999951
vn 0.493892 -0.542093 0.679857
vn 0.587722 0.009981 0.809001
vn 0.799190 -0.542093 0.259673
vn 0.951009 0.009980 0.309002
vn 0.799177 -0.542093 -0.259713
vn 0.950996 0.009950 -0.309042
vn 0.493931 -0.542099 -0.679824
vn 0.587697 0.009980 -0.809019
vn -0.000008 -0.542099 -0.840315
vn 0.000072 0.009980 -0.999950
vn -0.493892 -0.542093 -0.679857
vn -0.587722 0.009950 -0.809002
vn -0.231717 -0.969865 -0.075289
vn -0.231714 -0.969872 0.075217
vn -0.143160 -0.969865 0.197148
vn -0.000062 -0.969865 0.243644
vn 0.143239 -0.969867 0.197079
vn 0.231717 -0.969865 0.075289
vn 0.231723 -0.969867 -0.075247
vn 0.143160 -0.969865 -0.197148
vn 0.000062 -0.969865 -0.243644
vn -0.143239 -0.969867 -0.197079
s 1
g Small_WaxCap_low
f 10/11/1 1/1/2 50/66/3 32/46/4
f 1/1/2 2/2/5 48/64/6 50/66/3
f 2/2/5 3/3/7 46/62/8 48/64/6
f 3/3/7 4/4/9 44/60/10 46/62/8
f 4/4/9 5/5/11 42/58/12 44/60/10
f 5/5/11 6/6/13 40/56/14 42/58/12
f 6/6/13 7/7/15 38/54/16 40/56/14
f 7/7/15 8/8/17 36/52/18 38/54/16
f 8/8/17 9/9/19 34/50/20 36/52/18
f 9/10/19 10/11/1 32/46/4 34/48/20
f 11/12/21 22/35/22 31/45/23
f 11/12/21 23/36/24 22/35/22
f 11/12/21 24/37/25 23/36/24
f 11/12/21 25/38/26 24/37/25
f 11/12/21 26/39/27 25/38/26
f 11/12/21 27/40/28 26/39/27
f 11/12/21 28/41/29 27/40/28
f 11/12/21 29/42/30 28/41/29
f 11/12/21 30/43/31 29/42/30
f 11/12/21 31/45/23 30/44/31
f 12/14/32 1/13/2 10/33/1 21/34/33
f 2/15/5 1/13/2 12/14/32 13/16/34
f 3/17/7 2/15/5 13/16/34 14/18/35
f 4/19/9 3/17/7 14/18/35 15/20/36
f 5/21/11 4/19/9 15/20/36 16/22/37
f 6/23/13 5/21/11 16/22/37 17/24/38
f 7/25/15 6/23/13 17/24/38 18/26/39
f 8/27/17 7/25/15 18/26/39 19/28/40
f 9/29/19 8/27/17 19/28/40 20/30/41
f 10/33/1 9/31/19 20/32/41 21/34/33
f 22/35/22 12/14/32 21/34/33 31/45/23
f 13/16/34 12/14/32 22/35/22 23/36/24
f 14/18/35 13/16/34 23/36/24 24/37/25
f 15/20/36 14/18/35 24/37/25 25/38/26
f 16/22/37 15/20/36 25/38/26 26/39/27
f 17/24/38 16/22/37 26/39/27 27/40/28
f 18/26/39 17/24/38 27/40/28 28/41/29
f 19/28/40 18/26/39 28/41/29 29/42/30
f 20/30/41 19/28/40 29/42/30 30/43/31
f 21/34/33 20/32/41 30/44/31 31/45/23
f 51/67/42 33/47/43 32/46/4 50/66/3
f 32/46/4 33/47/43 35/49/44 34/48/20
f 34/50/20 35/51/44 37/53/45 36/52/18
f 36/52/18 37/53/45 39/55/46 38/54/16
f 38/54/16 39/55/46 41/57/47 40/56/14
f 40/56/14 41/57/47 43/59/48 42/58/12
f 42/58/12 43/59/48 45/61/49 44/60/10
f 44/60/10 45/61/49 47/63/50 46/62/8
f 46/62/8 47/63/50 49/65/51 48/64/6
f 48/64/6 49/65/51 51/67/42 50/66/3
s 3
f 52/68/52 53/69/53 54/70/54 55/71/55
f 55/71/55 54/70/54 56/72/56 57/73/57
f 57/73/57 56/72/56 58/74/58 59/75/59
f 59/76/59 58/77/58 60/78/60 61/79/61
f 61/79/61 60/78/60 62/80/62 63/81/63
f 63/81/63 62/80/62 64/82/64 65/83/65
f 65/83/65 64/82/64 66/84/66 67/85/67
f 67/85/67 66/84/66 68/86/68 69/87/69
f 69/87/69 68/86/68 70/88/70 71/89/71
f 71/89/71 70/88/70 53/69/53 52/68/52
f 73/90/72 72/91/73 74/92/74
f 73/90/72 74/92/74 75/93/75
f 73/90/72 75/93/75 76/94/76
f 73/90/72 76/95/76 77/96/77
f 73/90/72 77/96/77 78/97/78
f 73/90/72 78/97/78 79/98/79
f 73/90/72 79/98/79 80/99/80
f 73/90/72 80/99/80 81/100/81
f 73/90/72 81/100/81 82/101/82
f 73/90/72 82/101/82 72/91/73
f 83/102/83 84/103/84 86/104/85 85/105/86
f 85/105/86 86/104/85 88/106/87 87/107/88
f 87/107/88 88/106/87 90/108/89 89/109/90
f 89/110/90 90/111/89 92/112/91 91/113/92
f 91/113/92 92/112/91 94/114/93 93/115/94
f 93/115/94 94/114/93 96/116/95 95/117/96
f 95/117/96 96/116/95 98/118/97 97/119/98
f 97/119/98 98/118/97 100/120/99 99/121/100
f 99/121/100 100/120/99 102/122/101 101/123/102
f 101/123/102 102/122/101 84/103/84 83/102/83
f 103/124/103 104/125/104 114/126/105 113/127/106
f 104/125/104 105/128/107 115/129/108 114/126/105
f 105/128/107 106/130/109 116/131/110 115/129/108
f 106/130/109 107/132/111 117/133/112 116/131/110
f 107/132/111 108/134/113 118/135/114 117/133/112
f 108/134/113 109/136/115 119/137/116 118/135/114
f 109/136/115 110/138/117 120/139/118 119/137/116
f 110/140/117 111/141/119 121/142/120 120/143/118
f 111/141/119 112/144/121 122/145/122 121/142/120
f 112/144/121 103/124/103 113/127/106 122/145/122
f 104/125/104 103/124/103 72/91/73 82/101/82
f 105/128/107 104/125/104 82/101/82 81/100/81
f 106/130/109 105/128/107 81/100/81 80/99/80
f 107/132/111 106/130/109 80/99/80 79/98/79
f 108/134/113 107/132/111 79/98/79 78/97/78
f 109/136/115 108/134/113 78/97/78 77/96/77
f 110/138/117 109/136/115 77/96/77 76/95/76
f 111/141/119 110/140/117 76/94/76 75/93/75
f 112/144/121 111/141/119 75/93/75 74/92/74
f 103/124/103 112/144/121 74/92/74 72/91/73
f 54/70/54 53/69/53 83/102/83 85/105/86
f 56/72/56 54/70/54 85/105/86 87/107/88
f 58/74/58 56/72/56 87/107/88 89/109/90
f 60/78/60 58/77/58 89/110/90 91/113/92
f 62/80/62 60/78/60 91/113/92 93/115/94
f 64/82/64 62/80/62 93/115/94 95/117/96
f 66/84/66 64/82/64 95/117/96 97/119/98
f 68/86/68 66/84/66 97/119/98 99/121/100
f 70/88/70 68/86/68 99/121/100 101/123/102
f 53/69/53 70/88/70 101/123/102 83/102/83
f 113/127/106 114/126/105 71/89/71 52/68/52
f 114/126/105 115/129/108 69/87/69 71/89/71
f 115/129/108 116/131/110 67/85/67 69/87/69
f 116/131/110 117/133/112 65/83/65 67/85/67
f 117/133/112 118/135/114 63/81/63 65/83/65
f 118/135/114 119/137/116 61/79/61 63/81/63
f 119/137/116 120/139/118 59/76/59 61/79/61
f 120/143/118 121/142/120 57/73/57 59/75/59
f 121/142/120 122/145/122 55/71/55 57/73/57
f 122/145/122 113/127/106 52/68/52 55/71/55
f 124/146/123 123/147/124 141/148/125 142/149/126
f 123/147/124 124/146/123 126/150/127 125/151/128
f 125/151/128 126/150/127 128/152/129 127/153/130
f 127/153/130 128/152/129 130/154/131 129/155/132
f 129/156/132 130/157/131 132/158/133 131/159/134
f 131/159/134 132/158/133 134/160/135 133/161/136
f 133/161/136 134/160/135 136/162/137 135/163/138
f 135/163/138 136/162/137 138/164/139 137/165/140
f 137/165/140 138/164/139 140/166/141 139/167/142
f 139/167/142 140/166/141 142/149/126 141/148/125
f 152/168/143 143/169/144 124/146/123 142/149/126
f 126/150/127 124/146/123 143/169/144 144/170/145
f 128/152/129 126/150/127 144/170/145 145/171/146
f 130/154/131 128/152/129 145/171/146 146/172/147
f 132/158/133 130/157/131 146/173/147 147/174/148
f 134/160/135 132/158/133 147/174/148 148/175/149
f 136/162/137 134/160/135 148/175/149 149/176/150
f 138/164/139 136/162/137 149/176/150 150/177/151
f 140/166/141 138/164/139 150/177/151 151/178/152
f 142/149/126 140/166/141 151/178/152 152/168/143
f 141/148/125 123/147/124 84/179/84 102/180/101
f 86/181/85 84/179/84 123/147/124 125/151/128
f 88/182/87 86/181/85 125/151/128 127/153/130
f 90/183/89 88/182/87 127/153/130 129/155/132
f 92/184/91 90/185/89 129/156/132 131/159/134
f 94/186/93 92/184/91 131/159/134 133/161/136
f 96/187/95 94/186/93 133/161/136 135/163/138
f 98/188/97 96/187/95 135/163/138 137/165/140
f 100/189/99 98/188/97 137/165/140 139/167/142
f 102/180/101 100/189/99 139/167/142 141/148/125
