# This file uses centimeters as units for non-parametric coordinates.

mtllib DirtPatchLower.mtl
g default
v 5.652390 0.000000 2.210958
v 4.570510 -0.000000 2.154656
v 8.445131 0.000000 1.199139
v 0.748183 0.000000 -1.521594
v 7.048767 0.000000 -3.788813
v 2.513801 -0.000000 -3.292617
v 2.433443 0.000000 -2.040159
v 5.716044 0.000000 -6.130188
v 3.757668 0.000000 -4.712065
v 3.168170 -0.000000 -4.130935
v 7.007530 0.269086 -0.191944
v 6.929965 0.282263 0.405171
v 4.757907 0.383888 -1.484101
v 4.117074 0.371726 -1.444197
v 6.647759 -0.001834 -2.506305
v 5.488812 0.267576 -1.874084
v 4.548980 0.435933 -0.034011
v 6.561979 0.300132 0.705332
v 0.061570 0.000000 -0.131934
v 1.008698 -0.000000 2.011911
v 2.423579 -0.000000 2.502763
v 3.158936 0.510035 0.586310
v 3.642571 0.342460 -1.690586
v 1.575597 0.000000 -1.915696
v 5.197936 0.000000 -6.063114
v 2.937469 -0.000000 -3.736897
v 3.648061 0.336547 -3.309742
v 6.259194 0.000000 -5.894717
v 4.829597 0.442851 0.038576
v 4.841230 0.065253 1.455877
v 5.118218 0.175103 1.726758
v 6.118758 0.289080 0.984398
v 2.679484 0.528300 -0.602541
v 6.643443 0.243233 -0.349016
v 5.647924 0.265016 -0.207175
v 6.592808 0.287279 0.219239
v 6.228371 0.361968 0.510027
v 3.493625 0.368973 -1.084355
v 5.031746 0.114829 -5.175704
v 4.259570 0.343173 -3.884551
v 4.482708 0.359208 -4.282246
v 8.541027 0.000000 0.069193
v 8.317962 0.000000 -1.520015
v 7.443649 -0.000004 -2.308408
v 7.094189 -0.000301 -2.381629
v 5.351884 0.434859 -0.110380
v 4.147970 -0.000000 2.185827
v 5.791177 0.285425 0.778149
v 6.606002 -0.000000 1.774894
v 7.737801 -0.000000 1.936984
v 8.153526 0.000000 1.726980
v 0.797601 0.000000 1.020053
v 1.364498 0.385199 0.549778
v 1.468891 -0.000000 2.253944
v 1.730790 0.422078 0.738445
v 2.249072 0.408908 0.894786
v 3.237914 -0.000000 2.422005
v 3.762890 -0.000000 2.441204
v 4.000455 0.256472 0.187962
v 3.065313 0.426627 -1.347173
v 2.074912 0.430740 -0.819915
v 5.563540 0.242394 -4.997763
v 4.570669 0.195895 -5.153304
v 3.541210 -0.000000 -4.582841
v 3.853320 0.308585 -3.859731
v 4.067748 0.345601 -4.263732
v 4.060341 0.544734 -3.332430
v 4.459298 0.566076 -3.347096
v 4.773582 0.498471 -3.781028
v 4.998994 0.436982 -4.170053
v 6.927465 -0.001250 -3.186663
vt 0.271553 0.212045
vt 0.211432 0.248051
vt 0.055099 0.120547
vt 0.171754 0.057398
vt 0.353636 0.006915
vt 0.480979 0.064379
vt 0.505104 0.099307
vt 0.305820 0.243791
vt 0.247071 0.275656
vt 0.337968 0.355951
vt 0.540521 0.142653
vt 0.526577 0.300153
vt 0.340485 0.396295
vt 0.518676 0.398312
vt 0.542867 0.470576
vt 0.369538 0.484486
vt 0.349512 0.457577
vt 0.222412 0.387557
vt 0.190877 0.522519
vt 0.142002 0.630155
vt 0.126861 0.582904
vt 0.149320 0.502202
vt 0.185699 0.361380
vt 0.070624 0.468994
vt 0.073498 0.346046
vt 0.007853 0.230290
vt 0.196093 0.301250
vt 0.011808 0.176101
vt 0.232604 0.328557
vt 0.446706 0.856825
vt 0.579457 0.974171
vt 0.417579 0.949984
vt 0.299099 0.968637
vt 0.253051 0.928976
vt 0.183796 0.835891
vt 0.370724 0.778695
vt 0.410785 0.825943
vt 0.156766 0.742884
vt 0.365138 0.667150
vt 0.131974 0.685008
vt 0.366697 0.555246
vt 0.513197 0.664550
vt 0.531015 0.553998
vt 0.591711 0.511877
vt 0.577337 0.590742
vt 0.563712 0.720719
vt 0.690931 0.630824
vt 0.713608 0.730810
vt 0.705009 0.838823
vt 0.831711 0.301367
vt 0.794586 0.251717
vt 0.859166 0.152819
vt 0.905193 0.201235
vt 0.927133 0.036261
vt 0.977013 0.084692
vt 0.993573 0.143748
vt 0.922254 0.252955
vt 0.849022 0.346091
vt 0.922676 0.364577
vt 0.918492 0.394287
vt 0.885913 0.456007
vt 0.852962 0.498777
vt 0.821832 0.564024
vt 0.768425 0.437108
vt 0.817840 0.388988
vt 0.747255 0.389216
vt 0.801199 0.344146
vt 0.731094 0.346743
vt 0.763228 0.293570
vt 0.662846 0.042864
vt 0.602443 0.082247
vn 0.120805 0.991417 -0.049993
vn 0.147915 0.988397 0.034521
vn 0.155790 0.986708 0.046231
vn 0.154317 0.987520 -0.031483
vn 0.138268 0.988337 -0.063819
vn 0.092264 0.992193 -0.083903
vn 0.167859 0.985209 -0.034437
vn 0.163325 0.984766 -0.059666
vn 0.011550 0.993504 -0.113207
vn 0.009423 0.993219 -0.115874
vn 0.037028 0.995416 -0.088181
vn 0.055726 0.997878 -0.033682
vn 0.227908 0.973681 0.001862
vn 0.106592 0.993737 0.033543
vn 0.067623 0.997690 0.006386
vn -0.089524 0.994921 0.046028
vn -0.044699 0.995070 0.088526
vn 0.032655 0.993024 0.113302
vn -0.089980 0.985566 0.143402
vn -0.008409 0.985633 0.168694
vn -0.036017 0.992668 0.115384
vn -0.078852 0.987966 0.133065
vn -0.029497 0.979714 0.198216
vn 0.013428 0.974547 0.223780
vn 0.053518 0.956479 0.286853
vn 0.038716 0.946713 0.319744
vn 0.071923 0.978175 0.194937
vn 0.097601 0.988240 0.117711
vn 0.114335 0.986744 0.115171
vn -0.220455 0.962676 -0.157018
vn -0.269129 0.960557 -0.070003
vn -0.258673 0.965864 0.013933
vn -0.181203 0.970403 -0.159637
vn -0.436871 0.878574 0.193005
vn -0.238349 0.946040 0.219540
vn -0.092735 0.964687 0.246536
vn -0.021975 0.966206 0.256831
vn -0.036530 0.980548 0.192850
vn -0.099674 0.985419 0.137889
vn 0.058986 0.997723 -0.032707
vn 0.119657 0.984303 0.129729
vn 0.112679 0.967700 0.225522
vn 0.137196 0.974797 0.175920
vn 0.056481 0.994899 0.083583
vn 0.055248 0.998397 -0.012331
vn -0.215532 0.975175 -0.050795
vn -0.072212 0.951156 -0.300148
vn -0.144369 0.936106 -0.320724
vn -0.214389 0.958968 -0.185523
vn -0.050321 0.977832 -0.203257
vn 0.168087 0.984652 -0.046978
vn 0.139628 0.986321 -0.087609
vn -0.010446 0.977868 -0.208960
vn 0.121472 0.986962 -0.105598
vn -0.009216 0.981571 -0.190876
vn 0.029019 0.988296 -0.149765
vn -0.184138 0.929409 -0.319832
vn -0.249733 0.940063 -0.232196
vn -0.451427 0.735491 -0.505239
vn -0.369255 0.864161 -0.341871
vn -0.359994 0.906212 -0.221776
vn -0.316789 0.925829 -0.206121
vn -0.281575 0.958788 -0.037958
vn -0.283168 0.957699 -0.051275
vn -0.302541 0.933359 -0.193157
vn -0.156553 0.987656 -0.005129
vn -0.165940 0.966605 -0.195289
vn 0.095008 0.995200 0.023466
vn 0.191974 0.981389 -0.004609
vn 0.216343 0.976227 -0.013338
vn 0.199416 0.978701 -0.048758
s 1
g DirtPatchLow
usemtl initialShadingGroup
f 11/1/1 12/2/2 3/3/3 42/4/4
f 11/1/1 42/4/4 43/5/5 44/6/6
f 15/11/7 35/10/8 34/8/9 45/7/10
f 34/8/9 11/1/1 44/6/6 45/7/10
f 36/9/11 34/8/9 35/10/8 37/29/12
f 36/9/11 12/2/2 11/1/1 34/8/9
f 15/11/7 16/12/13 46/13/14 35/10/8
f 13/14/15 14/15/16 17/16/17 29/17/18
f 13/14/15 29/17/18 46/13/14 16/12/13
f 29/17/18 17/16/17 47/20/19 30/19/20
f 46/13/14 29/17/18 30/19/20 48/18/21
f 35/10/8 46/13/14 48/18/21 37/29/12
f 47/20/19 2/21/22 31/22/23 30/19/20
f 31/22/23 32/23/24 48/18/21 30/19/20
f 31/22/23 2/21/22 1/24/25 49/25/26
f 50/26/27 32/23/24 31/22/23 49/25/26
f 3/3/3 12/2/2 18/27/28 51/28/29
f 18/27/28 32/23/24 50/26/27 51/28/29
f 18/27/28 12/2/2 36/9/11 37/29/12
f 48/18/21 32/23/24 18/27/28 37/29/12
f 4/49/30 19/31/31 53/30/32 61/46/33
f 53/30/32 19/31/31 52/32/34 20/33/35
f 54/34/36 21/35/37 56/36/38 55/37/39
f 54/34/36 55/37/39 53/30/32 20/33/35
f 53/30/32 55/37/39 33/42/40 61/46/33
f 22/39/41 56/36/38 21/35/37 57/38/42
f 58/40/43 47/20/19 17/16/17 59/41/44
f 58/40/43 59/41/44 22/39/41 57/38/42
f 59/41/44 17/16/17 14/15/16 38/43/45
f 22/39/41 59/41/44 38/43/45 33/42/40
f 56/36/38 22/39/41 33/42/40 55/37/39
f 14/15/16 23/44/46 60/45/47 38/43/45
f 60/45/47 61/46/33 33/42/40 38/43/45
f 24/48/48 60/45/47 23/44/46 7/47/49
f 24/48/48 4/49/30 61/46/33 60/45/47
f 41/50/50 70/51/51 62/52/52 39/53/53
f 62/52/52 28/54/54 8/55/55 39/53/53
f 8/55/55 25/56/56 63/57/57 39/53/53
f 63/57/57 66/58/58 41/50/50 39/53/53
f 63/57/57 25/56/56 9/59/59 64/60/60
f 63/57/57 64/60/60 10/61/61 66/58/58
f 26/62/62 6/63/63 27/64/64 65/65/65
f 26/62/62 65/65/65 66/58/58 10/61/61
f 65/65/65 27/64/64 67/66/66 40/67/67
f 67/66/66 68/68/68 69/69/69 40/67/67
f 69/69/69 70/51/51 41/50/50 40/67/67
f 41/50/50 66/58/58 65/65/65 40/67/67
f 7/47/49 23/44/46 27/64/64 6/63/63
f 14/15/16 13/14/15 68/68/68 67/66/66
f 27/64/64 23/44/46 14/15/16 67/66/66
f 68/68/68 13/14/15 16/12/13 69/69/69
f 16/12/13 15/11/7 70/51/51 69/69/69
f 71/71/70 5/70/71 28/54/54 62/52/52
f 15/11/7 71/71/70 62/52/52 70/51/51
