# This file uses centimeters as units for non-parametric coordinates.

g default
v -61.929994 45.312507 35.240843
v -61.929994 32.654617 36.605643
v -61.929994 24.432892 36.605643
v -61.929994 18.053839 36.605643
v -61.070512 45.312507 10.517234
v -61.929994 33.715500 11.882033
v -61.528932 22.764379 11.882033
v -61.929994 18.053839 11.882033
v -61.929994 18.053841 24.252341
v -9.891130 29.400469 15.986640
v -9.290544 19.869314 17.283431
v -8.823411 6.813129 17.235976
v -9.643449 -0.131104 16.161391
v -5.359834 0.305828 8.885527
v -0.007554 0.851258 -0.162904
v -1.603974 7.002117 -0.644594
v -2.836457 12.844698 -1.096406
v -5.029115 29.967789 -3.803502
v -26.291322 34.319851 21.939292
v -27.179689 23.822031 23.257109
v -26.545167 12.260473 23.224318
v -25.101609 7.195433 22.456992
v -22.359101 6.491242 13.597792
v -18.928224 6.240330 3.505362
v -19.977433 11.045159 1.655085
v -20.952867 18.467102 1.342959
v -22.354920 34.711777 0.623912
v -44.839875 38.802982 28.862235
v -46.793519 28.419048 29.599700
v -46.489228 18.595743 29.583983
v -44.923295 10.118055 29.888053
v -43.635057 10.332395 19.210387
v -42.016786 9.745449 7.932479
v -41.676728 17.542591 7.732161
v -42.353242 26.801334 7.582480
v -42.504884 38.990929 5.772998
v -53.746019 42.788177 32.186301
v -53.650727 30.626320 33.540312
v -53.505021 21.637646 33.532790
v -53.635118 15.168930 33.362303
v -52.955552 15.238247 21.814513
v -52.106446 15.324774 9.971198
v -52.022279 20.263811 11.310378
v -52.555238 30.404499 11.238700
v -52.179948 42.878178 8.245352
v -36.223176 36.365246 25.646193
v -35.923890 26.283512 26.977103
v -35.466188 15.652706 26.953459
v -35.715165 7.971776 26.435973
v -33.751344 8.716936 16.603072
v -31.291047 8.156541 5.875868
v -31.667436 14.909813 3.606814
v -32.482820 23.315273 3.381671
v -33.144258 36.647953 3.380999
v -30.049211 34.460903 23.341864
v -30.981324 24.753376 24.664633
v -30.413713 13.543985 24.635306
v -29.117433 7.489177 23.962508
v -26.669557 7.468773 14.734893
v -23.605912 7.037345 4.402281
v -24.495668 13.023395 2.107634
v -25.410524 20.817470 1.828417
v -26.437257 34.811504 1.667102
v -24.566209 32.271950 21.295424
v -24.131211 23.394485 22.610968
v -23.465974 11.671262 22.576590
v -23.429566 6.402957 21.776023
v -20.559465 5.838359 13.090956
v -16.881669 5.794570 3.108584
v -17.973527 10.518062 1.236190
v -18.976762 17.769174 0.908953
v -20.480882 32.682846 0.145022
v -22.357926 31.590813 20.471221
v -21.897218 22.847191 21.783850
v -21.192674 10.917023 21.747443
v -21.289231 5.388525 20.904334
v -18.166642 5.047335 12.435622
v -14.261918 4.906744 2.600676
v -15.561357 10.673370 0.879798
v -16.600175 17.705805 0.533221
v -18.081941 32.025993 -0.468000
v -17.749024 31.685003 18.751021
v -17.234651 21.704933 19.075988
v -16.448060 9.342848 19.035346
v -16.822129 3.271300 19.085028
v -13.254182 3.127749 11.073874
v -8.794221 4.291904 1.540618
v -10.207582 9.265147 -0.239347
v -11.320680 15.841177 -0.626291
v -13.075135 32.170872 -1.747434
v -12.964860 30.348553 17.133856
v -12.400041 20.631098 17.453116
v -11.987641 7.862965 17.408492
v -12.622605 1.280897 17.374694
v -8.635987 1.834501 9.793692
v -3.654023 2.526109 0.544058
v -5.174470 7.941276 0.101775
v -6.357423 14.088240 -0.323114
v -8.368211 30.882070 -2.950231
v -49.914460 40.368225 30.756232
v -51.927186 29.676716 31.500395
v -51.713243 20.328970 31.489348
v -49.887147 12.362367 31.867629
v -48.945726 12.611531 20.694174
v -47.765718 12.924459 9.094107
v -47.571458 19.093098 10.379988
v -48.166169 28.854360 10.274748
v -48.017579 40.500362 7.181708
vt 0.929007 0.276145
vt 0.911602 0.190843
vt 0.976021 0.189788
vt 0.993840 0.278846
vt 0.895081 0.129146
vt 0.961826 0.132579
vt 0.883062 0.084620
vt 0.950212 0.088300
vt 0.128779 0.286601
vt 0.078306 0.449983
vt 0.013851 0.456737
vt 0.061115 0.286870
vt 0.417970 0.136293
vt 0.427098 0.045577
vt 0.494695 0.040837
vt 0.487699 0.124198
vt 0.401059 0.206331
vt 0.471147 0.201309
vt 0.393191 0.241987
vt 0.467536 0.235022
vt 0.909497 0.406688
vt 0.889935 0.324377
vt 0.963793 0.325669
vt 0.978540 0.412504
vt 0.927927 0.487074
vt 0.993529 0.499231
vt 0.693946 0.257844
vt 0.678783 0.195706
vt 0.701052 0.193540
vt 0.710303 0.268808
vt 0.654297 0.115889
vt 0.677026 0.114447
vt 0.642950 0.079708
vt 0.656926 0.082111
vt 0.689390 0.443282
vt 0.658868 0.385505
vt 0.672961 0.386802
vt 0.703176 0.445846
vt 0.622578 0.318888
vt 0.637727 0.319405
vt 0.126836 0.261331
vt 0.138394 0.226200
vt 0.153394 0.225317
vt 0.142143 0.261108
vt 0.154223 0.176477
vt 0.169300 0.174262
vt 0.183230 0.073440
vt 0.199552 0.061869
vt 0.377465 0.288102
vt 0.316047 0.428845
vt 0.296467 0.427460
vt 0.357647 0.285572
vt 0.787611 0.264614
vt 0.770916 0.194043
vt 0.851707 0.189939
vt 0.855889 0.265301
vt 0.749701 0.121300
vt 0.832953 0.122448
vt 0.736899 0.067965
vt 0.808845 0.065967
vt 0.782358 0.461985
vt 0.758287 0.394573
vt 0.831922 0.401335
vt 0.852630 0.475261
vt 0.728206 0.322050
vt 0.806694 0.323945
vt 0.233379 0.263824
vt 0.241310 0.213607
vt 0.320655 0.210522
vt 0.312293 0.265645
vt 0.257674 0.155746
vt 0.337250 0.146234
vt 0.280299 0.063253
vt 0.351309 0.059359
vt 0.276572 0.286651
vt 0.219488 0.436350
vt 0.152075 0.443729
vt 0.205719 0.287260
vt 0.896430 0.266245
vt 0.891577 0.188926
vt 0.874143 0.124996
vt 0.849988 0.072058
vt 0.893214 0.482611
vt 0.874407 0.404894
vt 0.854096 0.324322
vt 0.357985 0.251877
vt 0.367838 0.208299
vt 0.384692 0.141219
vt 0.393488 0.056079
vt 0.163764 0.287523
vt 0.112116 0.447985
vt 0.738381 0.262895
vt 0.730651 0.193031
vt 0.707687 0.116238
vt 0.687226 0.076791
vt 0.733156 0.451858
vt 0.705445 0.389725
vt 0.672028 0.320504
vt 0.176747 0.261843
vt 0.187631 0.217082
vt 0.203737 0.163554
vt 0.229237 0.066795
vt 0.327617 0.286323
vt 0.268108 0.431212
vt 0.676377 0.257245
vt 0.661403 0.196026
vt 0.636318 0.114892
vt 0.625058 0.076836
vt 0.671739 0.440054
vt 0.640333 0.383837
vt 0.602584 0.318515
vt 0.106853 0.263782
vt 0.121487 0.222157
vt 0.137284 0.173831
vt 0.164994 0.074714
vt 0.395723 0.287948
vt 0.333435 0.426986
vt 0.642357 0.266170
vt 0.622180 0.197719
vt 0.595871 0.113316
vt 0.588049 0.070625
vt 0.634892 0.433531
vt 0.601514 0.380662
vt 0.562829 0.315729
vt 0.066627 0.260172
vt 0.081503 0.224482
vt 0.096979 0.179686
vt 0.128986 0.066758
vt 0.432551 0.286814
vt 0.368172 0.422172
vt 0.605103 0.265671
vt 0.585042 0.199058
vt 0.560487 0.111172
vt 0.553335 0.064536
vt 0.600220 0.427698
vt 0.566249 0.376989
vt 0.523472 0.315299
vt 0.027565 0.265190
vt 0.044675 0.228706
vt 0.060025 0.186605
vt 0.093220 0.069211
vt 0.468374 0.286577
vt 0.405289 0.419237
vt 0.580809 0.264886
vt 0.562180 0.198886
vt 0.536760 0.109354
vt 0.528786 0.059613
vt 0.575512 0.424050
vt 0.539700 0.375832
vt 0.494440 0.316035
vt -0.000689 0.271895
vt 0.017855 0.230443
vt 0.033128 0.190434
vt 0.067821 0.070609
vt 0.493787 0.286405
vt 0.429497 0.416710
vn -0.402604 -0.090370 -0.910903
vn -0.428659 -0.048021 -0.902189
vn -0.362898 -0.068020 -0.929343
vn -0.371381 -0.102512 -0.922804
vn -0.428659 -0.048021 -0.902189
vn -0.451469 -0.004547 -0.892275
vn -0.346594 0.003725 -0.938008
vn -0.362898 -0.068020 -0.929343
vn -0.451469 -0.004547 -0.892275
vn -0.444647 -0.022545 -0.895422
vn -0.348596 0.015966 -0.937137
vn -0.346594 0.003725 -0.938008
vn -0.389330 -0.920693 -0.027336
vn -0.343050 -0.939052 -0.022315
vn -0.283426 -0.958862 -0.015900
vn -0.283426 -0.958862 -0.015900
vn 0.178187 0.101297 0.978769
vn 0.234629 0.179504 0.955368
vn 0.205608 0.164132 0.964773
vn 0.156562 0.108270 0.981716
vn 0.114535 -0.053503 0.991977
vn 0.178187 0.101297 0.978769
vn 0.156562 0.108270 0.981716
vn 0.072267 -0.033261 0.996831
vn 0.096183 -0.183219 0.978356
vn 0.114535 -0.053503 0.991977
vn 0.072267 -0.033261 0.996831
vn 0.088405 -0.141286 0.986014
vn 0.385796 0.922189 0.026990
vn 0.383954 0.922793 0.032137
vn 0.285745 0.958211 0.013444
vn 0.303213 0.952841 0.012505
vn 0.382505 0.923702 0.021563
vn 0.385796 0.922189 0.026990
vn 0.303213 0.952841 0.012505
vn 0.316923 0.948378 0.011761
vn -0.337487 -0.131569 -0.932090
vn -0.299167 -0.065779 -0.951931
vn -0.316928 -0.051180 -0.947068
vn -0.347589 -0.097252 -0.932590
vn -0.299167 -0.065779 -0.951931
vn -0.279135 0.023999 -0.959952
vn -0.288909 0.010228 -0.957302
vn -0.316928 -0.051180 -0.947068
vn -0.279135 0.023999 -0.959952
vn -0.281852 0.134009 -0.950053
vn -0.287746 0.076384 -0.954656
vn -0.288909 0.010228 -0.957302
vn 0.399289 0.914025 0.071603
vn 0.350750 0.931860 0.092802
vn 0.237330 0.970702 0.037575
vn 0.190370 0.981628 0.012866
vn 0.350750 0.931860 0.092802
vn 0.327496 0.938088 0.112858
vn 0.243087 0.968271 0.057958
vn 0.237330 0.970702 0.037575
vn 0.228966 0.373175 0.899063
vn 0.211518 0.219833 0.952331
vn 0.219137 0.238465 0.946104
vn 0.256405 0.392062 0.883484
vn 0.211518 0.219833 0.952331
vn 0.221182 0.075027 0.972342
vn 0.196855 0.057443 0.978748
vn 0.219137 0.238465 0.946104
vn 0.221182 0.075027 0.972342
vn 0.253845 0.074967 0.964335
vn 0.202512 0.048126 0.978097
vn 0.196855 0.057443 0.978748
vn -0.522392 -0.844635 -0.117041
vn -0.638533 -0.757434 -0.136269
vn -0.271720 -0.959982 -0.067850
vn -0.468558 -0.877288 -0.104012
vn -0.333901 -0.082589 -0.938983
vn -0.316922 -0.047289 -0.947272
vn -0.299018 -0.027152 -0.953861
vn -0.319862 -0.044450 -0.946421
vn -0.316922 -0.047289 -0.947272
vn -0.316893 -0.004472 -0.948451
vn -0.293074 -0.028995 -0.955650
vn -0.299018 -0.027152 -0.953861
vn -0.316893 -0.004472 -0.948451
vn -0.320879 0.012854 -0.947033
vn -0.312781 -0.033738 -0.949226
vn -0.293074 -0.028995 -0.955650
vn 0.200558 0.976573 0.077990
vn 0.163568 0.986295 0.021622
vn 0.292002 0.955447 0.043087
vn 0.326855 0.942419 0.070793
vn 0.163568 0.986295 0.021622
vn 0.153037 0.988122 -0.013978
vn 0.238770 0.971067 -0.004201
vn 0.292002 0.955447 0.043087
vn 0.287218 0.241864 0.926827
vn 0.306444 0.135531 0.942191
vn 0.362615 0.054372 0.930352
vn 0.304770 0.095424 0.947634
vn 0.306444 0.135531 0.942191
vn 0.315462 0.049608 0.947641
vn 0.379777 0.083945 0.921261
vn 0.362615 0.054372 0.930352
vn 0.315462 0.049608 0.947641
vn 0.309037 0.058504 0.949249
vn 0.362812 0.124526 0.923505
vn 0.379777 0.083945 0.921261
vn -0.282931 -0.957789 -0.050888
vn -0.276176 -0.959976 -0.046617
vn -0.279005 -0.959569 -0.037194
vn -0.274465 -0.960789 -0.039425
vn -0.440277 -0.014653 -0.897742
vn -0.469931 -0.011439 -0.882629
vn -0.428659 -0.048021 -0.902189
vn -0.402604 -0.090370 -0.910903
vn -0.469931 -0.011439 -0.882629
vn -0.465611 -0.048095 -0.883682
vn -0.451469 -0.004547 -0.892275
vn -0.428659 -0.048021 -0.902189
vn -0.465611 -0.048095 -0.883682
vn -0.424925 -0.113077 -0.898138
vn -0.444647 -0.022545 -0.895422
vn -0.451469 -0.004547 -0.892275
vn 0.520619 0.851890 0.056922
vn 0.488246 0.870914 0.055907
vn 0.385796 0.922189 0.026990
vn 0.382505 0.923702 0.021563
vn 0.488246 0.870914 0.055907
vn 0.478919 0.876419 0.050262
vn 0.383954 0.922793 0.032137
vn 0.385796 0.922189 0.026990
vn 0.238755 -0.119966 0.963641
vn 0.300151 -0.036751 0.953183
vn 0.114535 -0.053503 0.991977
vn 0.096183 -0.183219 0.978356
vn 0.300151 -0.036751 0.953183
vn 0.342473 0.126564 0.930964
vn 0.178187 0.101297 0.978769
vn 0.114535 -0.053503 0.991977
vn 0.342473 0.126564 0.930964
vn 0.352643 0.206410 0.912709
vn 0.234629 0.179504 0.955368
vn 0.178187 0.101297 0.978769
vn -0.378755 -0.924777 -0.036499
vn -0.431635 -0.901221 -0.038626
vn -0.343050 -0.939052 -0.022315
vn -0.389330 -0.920693 -0.027336
vn -0.389309 -0.100772 -0.915578
vn -0.393890 -0.056840 -0.917398
vn -0.316922 -0.047289 -0.947272
vn -0.333901 -0.082589 -0.938983
vn -0.393890 -0.056840 -0.917398
vn -0.375102 0.011214 -0.926916
vn -0.316893 -0.004472 -0.948451
vn -0.316922 -0.047289 -0.947272
vn -0.375102 0.011214 -0.926916
vn -0.356921 0.045968 -0.933003
vn -0.320879 0.012854 -0.947033
vn -0.316893 -0.004472 -0.948451
vn 0.148526 0.987188 0.058308
vn 0.160049 0.986975 0.016288
vn 0.163568 0.986295 0.021622
vn 0.200558 0.976573 0.077990
vn 0.160049 0.986975 0.016288
vn 0.179851 0.983598 0.013728
vn 0.153037 0.988122 -0.013978
vn 0.163568 0.986295 0.021622
vn 0.249505 0.363549 0.897541
vn 0.215304 0.201113 0.955614
vn 0.306444 0.135531 0.942191
vn 0.287218 0.241864 0.926827
vn 0.215304 0.201113 0.955614
vn 0.208089 0.041129 0.977245
vn 0.315462 0.049608 0.947641
vn 0.306444 0.135531 0.942191
vn 0.208089 0.041129 0.977245
vn 0.220037 0.028433 0.975077
vn 0.309037 0.058504 0.949249
vn 0.315462 0.049608 0.947641
vn -0.171252 -0.984327 -0.042109
vn -0.239420 -0.969562 -0.051271
vn -0.276176 -0.959976 -0.046617
vn -0.282931 -0.957789 -0.050888
vn -0.347589 -0.097252 -0.932590
vn -0.316928 -0.051180 -0.947068
vn -0.393890 -0.056840 -0.917398
vn -0.389309 -0.100772 -0.915578
vn -0.316928 -0.051180 -0.947068
vn -0.288909 0.010228 -0.957302
vn -0.375102 0.011214 -0.926916
vn -0.393890 -0.056840 -0.917398
vn -0.288909 0.010228 -0.957302
vn -0.287746 0.076384 -0.954656
vn -0.356921 0.045968 -0.933003
vn -0.375102 0.011214 -0.926916
vn 0.190370 0.981628 0.012866
vn 0.237330 0.970702 0.037575
vn 0.160049 0.986975 0.016288
vn 0.148526 0.987188 0.058308
vn 0.237330 0.970702 0.037575
vn 0.243087 0.968271 0.057958
vn 0.179851 0.983598 0.013728
vn 0.160049 0.986975 0.016288
vn 0.256405 0.392062 0.883484
vn 0.219137 0.238465 0.946104
vn 0.215304 0.201113 0.955614
vn 0.249505 0.363549 0.897541
vn 0.219137 0.238465 0.946104
vn 0.196855 0.057443 0.978748
vn 0.208089 0.041129 0.977245
vn 0.215304 0.201113 0.955614
vn 0.196855 0.057443 0.978748
vn 0.202512 0.048126 0.978097
vn 0.220037 0.028433 0.975077
vn 0.208089 0.041129 0.977245
vn -0.468558 -0.877288 -0.104012
vn -0.271720 -0.959982 -0.067850
vn -0.239420 -0.969562 -0.051271
vn -0.171252 -0.984327 -0.042109
vn -0.419346 -0.119337 -0.899949
vn -0.437496 -0.065296 -0.896847
vn -0.299167 -0.065779 -0.951931
vn -0.337487 -0.131569 -0.932090
vn -0.437496 -0.065296 -0.896847
vn -0.445933 0.010667 -0.895003
vn -0.279135 0.023999 -0.959952
vn -0.299167 -0.065779 -0.951931
vn -0.445933 0.010667 -0.895003
vn -0.394064 0.091547 -0.914512
vn -0.281852 0.134009 -0.950053
vn -0.279135 0.023999 -0.959952
vn 0.411805 0.903846 0.116097
vn 0.368150 0.919004 0.141057
vn 0.350750 0.931860 0.092802
vn 0.399289 0.914025 0.071603
vn 0.368150 0.919004 0.141057
vn 0.284392 0.945585 0.158081
vn 0.327496 0.938088 0.112858
vn 0.350750 0.931860 0.092802
vn 0.239472 0.356964 0.902901
vn 0.221930 0.190982 0.956176
vn 0.211518 0.219833 0.952331
vn 0.228966 0.373175 0.899063
vn 0.221930 0.190982 0.956176
vn 0.227326 0.087353 0.969893
vn 0.221182 0.075027 0.972342
vn 0.211518 0.219833 0.952331
vn 0.227326 0.087353 0.969893
vn 0.233459 0.088361 0.968344
vn 0.253845 0.074967 0.964335
vn 0.221182 0.075027 0.972342
vn -0.053275 -0.998065 -0.032048
vn -0.147944 -0.987725 -0.050123
vn -0.638533 -0.757434 -0.136269
vn -0.522392 -0.844635 -0.117041
vn -0.390003 -0.077612 -0.917537
vn -0.411260 -0.043447 -0.910482
vn -0.437496 -0.065296 -0.896847
vn -0.419346 -0.119337 -0.899949
vn -0.411260 -0.043447 -0.910482
vn -0.399189 0.005281 -0.916854
vn -0.445933 0.010667 -0.895003
vn -0.437496 -0.065296 -0.896847
vn -0.399189 0.005281 -0.916854
vn -0.375241 0.046865 -0.925742
vn -0.394064 0.091547 -0.914512
vn -0.445933 0.010667 -0.895003
vn 0.426722 0.888909 0.166583
vn 0.344720 0.918005 0.196049
vn 0.368150 0.919004 0.141057
vn 0.411805 0.903846 0.116097
vn 0.344720 0.918005 0.196049
vn 0.320435 0.918592 0.231324
vn 0.284392 0.945585 0.158081
vn 0.368150 0.919004 0.141057
vn 0.184819 0.293257 0.937999
vn 0.138113 0.189662 0.972087
vn 0.221930 0.190982 0.956176
vn 0.239472 0.356964 0.902901
vn 0.138113 0.189662 0.972087
vn 0.166414 0.103943 0.980562
vn 0.227326 0.087353 0.969893
vn 0.221930 0.190982 0.956176
vn 0.166414 0.103943 0.980562
vn 0.196685 0.107054 0.974605
vn 0.233459 0.088361 0.968344
vn 0.227326 0.087353 0.969893
vn -0.184634 -0.980597 -0.065874
vn -0.084042 -0.995559 -0.042410
vn -0.147944 -0.987725 -0.050123
vn -0.053275 -0.998065 -0.032048
vn -0.302104 -0.062392 -0.951231
vn -0.262941 -0.034980 -0.964178
vn -0.411260 -0.043447 -0.910482
vn -0.390003 -0.077612 -0.917537
vn -0.262941 -0.034980 -0.964178
vn -0.228823 0.015301 -0.973348
vn -0.399189 0.005281 -0.916854
vn -0.411260 -0.043447 -0.910482
vn -0.228823 0.015301 -0.973348
vn -0.261906 0.065507 -0.962868
vn -0.375241 0.046865 -0.925742
vn -0.399189 0.005281 -0.916854
vn 0.423530 0.872898 0.242222
vn 0.405410 0.869977 0.280682
vn 0.344720 0.918005 0.196049
vn 0.426722 0.888909 0.166583
vn 0.405410 0.869977 0.280682
vn 0.416196 0.859836 0.295741
vn 0.320435 0.918592 0.231324
vn 0.344720 0.918005 0.196049
vn 0.205803 0.179758 0.961942
vn 0.140730 0.153696 0.978045
vn 0.138113 0.189662 0.972087
vn 0.184819 0.293257 0.937999
vn 0.140730 0.153696 0.978045
vn 0.162961 0.134429 0.977432
vn 0.166414 0.103943 0.980562
vn 0.138113 0.189662 0.972087
vn 0.162961 0.134429 0.977432
vn 0.181150 0.145370 0.972652
vn 0.196685 0.107054 0.974605
vn 0.166414 0.103943 0.980562
vn -0.298766 -0.949601 -0.094849
vn -0.294120 -0.951300 -0.092317
vn -0.084042 -0.995559 -0.042410
vn -0.184634 -0.980597 -0.065874
vn -0.232510 -0.095341 -0.967910
vn -0.115675 -0.031675 -0.992782
vn -0.262941 -0.034980 -0.964178
vn -0.302104 -0.062392 -0.951231
vn -0.115675 -0.031675 -0.992782
vn -0.110982 0.045604 -0.992776
vn -0.228823 0.015301 -0.973348
vn -0.262941 -0.034980 -0.964178
vn -0.110982 0.045604 -0.992776
vn -0.180797 0.099625 -0.978462
vn -0.261906 0.065507 -0.962868
vn -0.228823 0.015301 -0.973348
vn 0.490603 0.807720 0.326952
vn 0.465229 0.826259 0.317583
vn 0.405410 0.869977 0.280682
vn 0.423530 0.872898 0.242222
vn 0.465229 0.826259 0.317583
vn 0.458133 0.831222 0.314935
vn 0.416196 0.859836 0.295741
vn 0.405410 0.869977 0.280682
vn 0.244771 0.142577 0.959041
vn 0.244144 0.134036 0.960431
vn 0.140730 0.153696 0.978045
vn 0.205803 0.179758 0.961942
vn 0.244144 0.134036 0.960431
vn 0.266465 0.158490 0.950725
vn 0.162961 0.134429 0.977432
vn 0.140730 0.153696 0.978045
vn 0.266465 0.158490 0.950725
vn 0.280940 0.182988 0.942119
vn 0.181150 0.145370 0.972652
vn 0.162961 0.134429 0.977432
vn -0.305795 -0.946970 -0.098682
vn -0.305795 -0.946970 -0.098682
vn -0.294120 -0.951300 -0.092317
vn -0.298766 -0.949601 -0.094849
vn -0.319862 -0.044450 -0.946421
vn -0.299018 -0.027152 -0.953861
vn -0.469931 -0.011439 -0.882629
vn -0.440277 -0.014653 -0.897742
vn -0.299018 -0.027152 -0.953861
vn -0.293074 -0.028995 -0.955650
vn -0.465611 -0.048095 -0.883682
vn -0.469931 -0.011439 -0.882629
vn -0.293074 -0.028995 -0.955650
vn -0.312781 -0.033738 -0.949226
vn -0.424925 -0.113077 -0.898138
vn -0.465611 -0.048095 -0.883682
vn 0.326855 0.942419 0.070793
vn 0.292002 0.955447 0.043087
vn 0.488246 0.870914 0.055907
vn 0.520619 0.851890 0.056922
vn 0.292002 0.955447 0.043087
vn 0.238770 0.971067 -0.004201
vn 0.478919 0.876419 0.050262
vn 0.488246 0.870914 0.055907
vn 0.304770 0.095424 0.947634
vn 0.362615 0.054372 0.930352
vn 0.300151 -0.036751 0.953183
vn 0.238755 -0.119966 0.963641
vn 0.362615 0.054372 0.930352
vn 0.379777 0.083945 0.921261
vn 0.342473 0.126564 0.930964
vn 0.300151 -0.036751 0.953183
vn 0.379777 0.083945 0.921261
vn 0.362812 0.124526 0.923505
vn 0.352643 0.206410 0.912709
vn 0.342473 0.126564 0.930964
vn -0.274465 -0.960789 -0.039425
vn -0.279005 -0.959569 -0.037194
vn -0.431635 -0.901221 -0.038626
vn -0.378755 -0.924777 -0.036499
s off
g Tunelright1:polySurface2StartingArea
f 37/1/1 38/2/2 2/3/3 1/4/4
f 38/2/5 39/5/6 3/6/7 2/3/8
f 39/5/9 40/7/10 4/8/11 3/6/12
f 45/9/13 37/10/14 1/11/15 5/12/16
f 44/13/17 45/14/18 5/15/19 6/16/20
f 43/17/21 44/13/22 6/16/23 7/18/24
f 42/19/25 43/17/26 7/18/27 8/20/28
f 41/21/29 42/22/30 8/23/31 9/24/32
f 40/25/33 41/21/34 9/24/35 4/26/36
f 64/27/37 65/28/38 20/29/39 19/30/40
f 65/28/41 66/31/42 21/32/43 20/29/44
f 66/31/45 67/33/46 22/34/47 21/32/48
f 67/35/49 68/36/50 23/37/51 22/38/52
f 68/36/53 69/39/54 24/40/55 23/37/56
f 69/41/57 70/42/58 25/43/59 24/44/60
f 70/42/61 71/45/62 26/46/63 25/43/64
f 71/45/65 72/47/66 27/48/67 26/46/68
f 72/49/69 64/50/70 19/51/71 27/52/72
f 46/53/73 47/54/74 29/55/75 28/56/76
f 47/54/77 48/57/78 30/58/79 29/55/80
f 48/57/81 49/59/82 31/60/83 30/58/84
f 49/61/85 50/62/86 32/63/87 31/64/88
f 50/62/89 51/65/90 33/66/91 32/63/92
f 51/67/93 52/68/94 34/69/95 33/70/96
f 52/68/97 53/71/98 35/72/99 34/69/100
f 53/71/101 54/73/102 36/74/103 35/72/104
f 54/75/105 46/76/106 28/77/107 36/78/108
f 100/79/109 101/80/110 38/2/111 37/1/112
f 101/80/113 102/81/114 39/5/115 38/2/116
f 102/81/117 103/82/118 40/7/119 39/5/120
f 103/83/121 104/84/122 41/21/123 40/25/124
f 104/84/125 105/85/126 42/22/127 41/21/128
f 105/86/129 106/87/130 43/17/131 42/19/132
f 106/87/133 107/88/134 44/13/135 43/17/136
f 107/88/137 108/89/138 45/14/139 44/13/140
f 108/90/141 100/91/142 37/10/143 45/9/144
f 55/92/145 56/93/146 47/54/147 46/53/148
f 56/93/149 57/94/150 48/57/151 47/54/152
f 57/94/153 58/95/154 49/59/155 48/57/156
f 58/96/157 59/97/158 50/62/159 49/61/160
f 59/97/161 60/98/162 51/65/163 50/62/164
f 60/99/165 61/100/166 52/68/167 51/67/168
f 61/100/169 62/101/170 53/71/171 52/68/172
f 62/101/173 63/102/174 54/73/175 53/71/176
f 63/103/177 55/104/178 46/76/179 54/75/180
f 19/30/181 20/29/182 56/93/183 55/92/184
f 20/29/185 21/32/186 57/94/187 56/93/188
f 21/32/189 22/34/190 58/95/191 57/94/192
f 22/38/193 23/37/194 59/97/195 58/96/196
f 23/37/197 24/40/198 60/98/199 59/97/200
f 24/44/201 25/43/202 61/100/203 60/99/204
f 25/43/205 26/46/206 62/101/207 61/100/208
f 26/46/209 27/48/210 63/102/211 62/101/212
f 27/52/213 19/51/214 55/104/215 63/103/216
f 73/105/217 74/106/218 65/28/219 64/27/220
f 74/106/221 75/107/222 66/31/223 65/28/224
f 75/107/225 76/108/226 67/33/227 66/31/228
f 76/109/229 77/110/230 68/36/231 67/35/232
f 77/110/233 78/111/234 69/39/235 68/36/236
f 78/112/237 79/113/238 70/42/239 69/41/240
f 79/113/241 80/114/242 71/45/243 70/42/244
f 80/114/245 81/115/246 72/47/247 71/45/248
f 81/116/249 73/117/250 64/50/251 72/49/252
f 82/118/253 83/119/254 74/106/255 73/105/256
f 83/119/257 84/120/258 75/107/259 74/106/260
f 84/120/261 85/121/262 76/108/263 75/107/264
f 85/122/265 86/123/266 77/110/267 76/109/268
f 86/123/269 87/124/270 78/111/271 77/110/272
f 87/125/273 88/126/274 79/113/275 78/112/276
f 88/126/277 89/127/278 80/114/279 79/113/280
f 89/127/281 90/128/282 81/115/283 80/114/284
f 90/129/285 82/130/286 73/117/287 81/116/288
f 91/131/289 92/132/290 83/119/291 82/118/292
f 92/132/293 93/133/294 84/120/295 83/119/296
f 93/133/297 94/134/298 85/121/299 84/120/300
f 94/135/301 95/136/302 86/123/303 85/122/304
f 95/136/305 96/137/306 87/124/307 86/123/308
f 96/138/309 97/139/310 88/126/311 87/125/312
f 97/139/313 98/140/314 89/127/315 88/126/316
f 98/140/317 99/141/318 90/128/319 89/127/320
f 99/142/321 91/143/322 82/130/323 90/129/324
f 10/144/325 11/145/326 92/132/327 91/131/328
f 11/145/329 12/146/330 93/133/331 92/132/332
f 12/146/333 13/147/334 94/134/335 93/133/336
f 13/148/337 14/149/338 95/136/339 94/135/340
f 14/149/341 15/150/342 96/137/343 95/136/344
f 15/151/345 16/152/346 97/139/347 96/138/348
f 16/152/349 17/153/350 98/140/351 97/139/352
f 17/153/353 18/154/354 99/141/355 98/140/356
f 18/155/357 10/156/358 91/143/359 99/142/360
f 28/56/361 29/55/362 101/80/363 100/79/364
f 29/55/365 30/58/366 102/81/367 101/80/368
f 30/58/369 31/60/370 103/82/371 102/81/372
f 31/64/373 32/63/374 104/84/375 103/83/376
f 32/63/377 33/66/378 105/85/379 104/84/380
f 33/70/381 34/69/382 106/87/383 105/86/384
f 34/69/385 35/72/386 107/88/387 106/87/388
f 35/72/389 36/74/390 108/89/391 107/88/392
f 36/78/393 28/77/394 100/91/395 108/90/396
