# This file uses centimeters as units for non-parametric coordinates.

g default
v -10.810000 8.689000 20.927000
v -10.810000 3.843215 21.102964
v -10.810000 20.891640 19.613905
v -10.810000 33.278698 16.713957
v -10.810090 34.250530 -9.451310
v -10.810137 16.767117 -9.453384
v -10.810137 10.581659 -9.355636
v -10.810137 4.012515 -8.141480
v -10.810029 3.843209 5.543699
v 12.781124 3.174694 10.293409
v 12.781124 -1.461372 10.457062
v 8.954208 -1.461372 -4.009062
v -1.794574 -1.032498 -16.866924
v -0.567690 5.252341 -17.995760
v -0.867970 10.903208 -17.952429
v 0.785152 27.629957 -17.950472
v 12.455670 26.700191 6.376388
v 12.781124 14.849223 9.072584
v -10.810045 33.609509 7.807173
v 7.170744 29.531269 -4.639910
v -0.532488 19.533480 -18.517351
v -26.241823 14.109779 27.450819
v -26.241823 9.264742 27.569609
v -25.560457 9.352398 13.024565
v -24.539400 9.283511 -2.674776
v -24.539400 15.723732 -3.494096
v -22.904648 22.394859 -6.769880
v -24.539400 41.041061 -3.558652
v -26.188175 40.918503 14.551999
v -26.958729 40.567184 24.607756
v -24.942108 23.751705 29.283873
v -33.319565 43.918221 19.059904
v -31.003141 43.191429 7.020843
v -34.002132 28.141624 2.560272
v -33.811939 20.227634 4.258375
v -33.827366 13.857249 6.027418
v -35.417130 13.999873 18.590055
v -36.478031 13.882742 27.873777
v -36.474781 18.994995 29.361540
v -37.189060 26.894848 32.267559
v -34.524784 43.594505 27.027662
v 7.235090 3.729270 12.355087
v 7.235090 15.931906 11.042021
v 7.001766 28.318972 8.142058
v 4.153606 28.649790 -0.764696
v -1.365222 29.290798 -18.023245
v -2.550372 11.807390 -18.025295
v -1.988255 5.621934 -17.927572
v -3.049212 -0.947207 -16.713411
v 4.491468 -1.116517 -3.028212
v 7.235090 -1.116516 12.531098
v -37.877243 36.775799 31.021589
v -25.382128 33.386505 28.082731
v -10.810000 27.244059 18.126740
v 7.115446 22.284325 9.554838
v 12.566812 21.013086 8.143188
v -1.910558 21.245827 -18.024168
v -10.810105 26.205549 -9.452254
v -22.904621 33.576042 -6.768966
v -32.545074 38.401524 2.201322
v -36.731922 48.689175 19.000778
v -35.082279 46.729393 4.032300
v -37.061848 38.724663 0.417846
v -36.084930 27.900707 -0.398942
v -35.932377 19.604729 1.362242
v -35.461933 13.665464 5.485822
v -36.388203 13.920781 18.294050
v -37.506031 13.622333 27.876204
v -41.746887 20.724861 34.024548
v -41.166687 28.005554 34.285549
v -41.424347 38.393520 34.204605
v -38.709167 47.076874 28.912336
v -44.775089 49.548237 18.836716
v -44.594181 46.896164 9.419156
v -47.194916 48.277618 18.953232
v -47.074417 46.384602 11.637205
v -44.720722 37.422791 7.145079
v -44.574753 28.985542 6.631178
v -47.278671 39.352497 9.964049
v -47.293888 30.875418 9.675444
v -44.551746 22.518835 7.739240
v -47.212528 23.599340 10.145506
v -44.571556 15.022146 10.333632
v -47.169605 16.370070 11.963942
v -44.805515 15.547417 18.392057
v -47.241566 16.372822 18.663603
v -45.152042 15.624052 24.420774
v -47.350956 16.787104 23.479734
v -45.120178 21.108671 27.390196
v -47.422535 22.203955 25.924543
v -45.247478 27.576450 29.352171
v -47.539127 28.370773 27.878981
v -47.565189 38.372849 27.638273
v -45.285442 37.684441 29.971540
v -44.792072 45.937599 26.300505
v -47.374424 46.010941 24.212704
v -0.532562 19.531748 -18.517248
v -1.913060 21.209019 -18.024168
vt 0.443624 0.508051
vt 0.429675 0.548875
vt 0.378370 0.528603
vt 0.392917 0.485840
vt 0.481696 0.405835
vt 0.432961 0.378698
vt 0.456487 0.322543
vt 0.501664 0.351581
vt 0.608635 0.886343
vt 0.601988 0.805947
vt 0.614793 0.789876
vt 0.623616 0.877022
vt 0.945040 0.545555
vt 0.918298 0.462645
vt 0.945411 0.426501
vt 0.997449 0.530177
vt 0.610257 0.939225
vt 0.623147 0.934560
vt 0.628567 0.996983
vt 0.640211 0.994970
vt 0.035457 0.700173
vt 0.133015 0.578564
vt 0.144632 0.579883
vt 0.077340 0.708684
vt 0.001041 0.834972
vt 0.052889 0.853784
vt 0.094483 0.291217
vt 0.081794 0.334244
vt 0.001041 0.268612
vt 0.012825 0.220989
vt 0.125939 0.206371
vt 0.024359 0.142234
vt 0.052952 0.051665
vt 0.153552 0.121986
vt 0.842672 0.766169
vt 0.838044 0.663498
vt 0.956284 0.611267
vt 0.974657 0.707670
vt 0.532740 0.725364
vt 0.542451 0.650440
vt 0.613790 0.607792
vt 0.609212 0.701775
vt 0.873510 0.828390
vt 0.985576 0.783377
vt 0.879866 0.888268
vt 0.997822 0.843775
vt 0.373646 0.858365
vt 0.364701 0.712199
vt 0.461175 0.793090
vt 0.475186 0.910133
vt 0.379094 0.993783
vt 0.483563 0.996703
vt 0.625739 0.438756
vt 0.562835 0.537480
vt 0.887590 0.301769
vt 0.866266 0.302206
vt 0.229725 0.385021
vt 0.215582 0.427880
vt 0.227035 0.933330
vt 0.227047 0.788443
vt 0.227889 0.661254
vt 0.745665 0.945135
vt 0.736118 0.883486
vt 0.732125 0.825848
vt 0.727112 0.737462
vt 0.768336 0.383186
vt 0.772050 0.543837
vt 0.773751 0.626795
vt 0.294599 0.222061
vt 0.269575 0.278179
vt 0.419466 0.556807
vt 0.417072 0.646908
vt 0.392761 0.648910
vt 0.393662 0.576247
vt 0.522003 0.046814
vt 0.443042 0.044547
vt 0.423717 0.009992
vt 0.504496 0.009010
vt 0.583068 0.041698
vt 0.574201 0.008001
vt 0.655933 0.030186
vt 0.643960 0.001041
vt 0.564207 0.909083
vt 0.561806 0.833904
vt 0.588648 0.849629
vt 0.588078 0.911903
vt 0.567019 0.965236
vt 0.590151 0.956751
vt 0.754215 0.146933
vt 0.709697 0.110509
vt 0.727998 0.094693
vt 0.772502 0.126099
vt 0.811813 0.173597
vt 0.826336 0.151373
vt 0.918539 0.173073
vt 0.903495 0.199588
vt 0.418461 0.722757
vt 0.392299 0.704539
vt 0.614748 0.789474
vt 0.987480 0.210995
vt 0.997528 0.181401
vt 0.178536 0.051871
vt 0.116073 0.001041
vt 0.317612 0.169206
vt 0.478829 0.269287
vt 0.524211 0.301018
vt 0.607357 0.714766
vt 0.723942 0.662944
vt 0.860153 0.591938
vt 0.969475 0.550469
vt 0.352757 0.036770
vt 0.355888 0.005262
vt 0.489785 0.647647
vt 0.511113 0.509189
vt 0.533460 0.181158
vt 0.430830 0.181527
vt 0.435700 0.138835
vt 0.532099 0.149075
vt 0.615762 0.171849
vt 0.606118 0.141352
vt 0.674497 0.143708
vt 0.669300 0.127968
vt 0.476473 0.788147
vt 0.484355 0.907481
vt 0.493324 0.996906
vt 0.670678 0.216750
vt 0.648283 0.172723
vt 0.655000 0.166654
vt 0.737742 0.213754
vt 0.784007 0.272071
vt 0.705176 0.272959
vt 0.802047 0.233020
vt 0.880276 0.290767
vt 0.892971 0.249001
vt 0.479475 0.740752
vt 0.957454 0.325042
vt 0.982884 0.275395
vt 0.365945 0.196915
vt 0.354641 0.139814
vt 0.602042 0.805943
vt 0.587929 0.730758
vn 0.352553 0.079264 0.932429
vn 0.423577 0.076304 0.902641
vn -0.112046 -0.952134 0.284404
vn 0.051853 -0.947239 0.316305
vn 0.344750 0.125538 0.930262
vn 0.431653 0.129896 0.892638
vn 0.423577 0.076304 0.902641
vn 0.352553 0.079264 0.932429
vn 0.438502 0.209835 0.873891
vn 0.431653 0.129896 0.892638
vn 0.344750 0.125538 0.930262
vn 0.328127 0.215841 0.919644
vn -0.074930 -0.013094 -0.997103
vn -0.658314 -0.011263 -0.752660
vn -0.643209 0.024631 -0.765294
vn -0.132313 -0.003266 -0.991203
vn 0.406217 0.787926 0.462775
vn 0.280335 0.774958 0.566438
vn 0.116196 0.993204 -0.006684
vn 0.294113 0.955746 -0.006807
vn -0.060277 -0.090523 -0.994069
vn -0.669128 -0.060983 -0.740641
vn -0.658314 -0.011263 -0.752660
vn -0.074930 -0.013094 -0.997103
vn -0.084603 -0.987916 -0.129864
vn -0.501540 -0.845046 -0.185350
vn -0.669128 -0.060983 -0.740641
vn -0.060277 -0.090523 -0.994069
vn -0.065648 -0.997702 0.016755
vn -0.248572 -0.967672 0.042701
vn -0.501540 -0.845046 -0.185350
vn -0.084603 -0.987916 -0.129864
vn 0.051853 -0.947239 0.316305
vn -0.112046 -0.952134 0.284404
vn -0.248572 -0.967672 0.042701
vn -0.065648 -0.997702 0.016755
vn 0.329008 -0.095345 0.939502
vn 0.208434 -0.242160 0.947583
vn -0.208435 -0.844270 0.493724
vn -0.246103 -0.898552 0.363370
vn 0.404260 -0.000000 0.914644
vn 0.324900 -0.023227 0.945463
vn 0.208434 -0.242160 0.947583
vn 0.329008 -0.095345 0.939502
vn 0.435508 0.207941 0.875839
vn 0.324900 -0.023227 0.945463
vn 0.404260 -0.000000 0.914644
vn 0.464897 0.247084 0.850189
vn -0.472679 -0.069558 -0.878485
vn -0.433913 -0.049993 -0.899567
vn -0.355179 0.240570 -0.903313
vn -0.444409 0.108874 -0.889184
vn 0.567038 0.581384 0.583490
vn 0.501987 0.712494 0.490267
vn 0.428654 0.902354 0.044865
vn 0.575858 0.813502 0.081250
vn -0.568946 -0.164855 -0.805682
vn -0.500642 -0.201179 -0.841953
vn -0.433913 -0.049993 -0.899567
vn -0.472679 -0.069558 -0.878485
vn -0.515640 -0.778694 -0.357423
vn -0.520550 -0.800357 -0.297417
vn -0.500642 -0.201179 -0.841953
vn -0.568946 -0.164855 -0.805682
vn -0.386527 -0.922031 -0.021335
vn -0.391599 -0.919529 -0.033419
vn -0.520550 -0.800357 -0.297417
vn -0.515640 -0.778694 -0.357423
vn -0.246103 -0.898552 0.363370
vn -0.208435 -0.844270 0.493724
vn -0.391599 -0.919529 -0.033419
vn -0.386527 -0.922031 -0.021335
vn 0.227831 0.942513 -0.244464
vn 0.436459 0.881098 -0.182123
vn 0.575858 0.813502 0.081250
vn 0.428654 0.902354 0.044865
vn 0.063146 0.929539 -0.363276
vn -0.014193 0.909951 -0.414474
vn 0.294113 0.955746 -0.006807
vn 0.116196 0.993204 -0.006684
vn 0.444950 0.039282 0.894693
vn 0.329008 -0.095345 0.939502
vn -0.246103 -0.898552 0.363370
vn -0.165521 -0.932387 0.321336
vn -0.165521 -0.932387 0.321336
vn -0.246103 -0.898552 0.363370
vn -0.386527 -0.922031 -0.021335
vn -0.322293 -0.946522 0.014955
vn -0.322293 -0.946522 0.014955
vn -0.386527 -0.922031 -0.021335
vn -0.515640 -0.778694 -0.357423
vn -0.498108 -0.838442 -0.221140
vn -0.498108 -0.838442 -0.221140
vn -0.515640 -0.778694 -0.357423
vn -0.568946 -0.164855 -0.805682
vn -0.563861 -0.113505 -0.818033
vn -0.563861 -0.113505 -0.818033
vn -0.568946 -0.164855 -0.805682
vn -0.472679 -0.069558 -0.878485
vn -0.515026 -0.053929 -0.855476
vn -0.515026 -0.053929 -0.855476
vn -0.472679 -0.069558 -0.878485
vn -0.444409 0.108874 -0.889184
vn -0.458297 0.039157 -0.887936
vn 0.246578 0.923469 -0.293946
vn 0.227831 0.942513 -0.244464
vn 0.428654 0.902354 0.044865
vn 0.390653 0.920397 0.016085
vn 0.501987 0.712494 0.490267
vn 0.520397 0.737834 0.429869
vn 0.390653 0.920397 0.016085
vn 0.428654 0.902354 0.044865
vn 0.464897 0.247084 0.850189
vn 0.404260 -0.000000 0.914644
vn 0.489427 0.088821 0.867509
vn 0.531341 0.219569 0.818209
vn 0.489427 0.088821 0.867509
vn 0.404260 -0.000000 0.914644
vn 0.329008 -0.095345 0.939502
vn 0.444950 0.039282 0.894693
vn -0.329360 0.790697 -0.516062
vn -0.603603 0.602840 -0.521774
vn -0.417780 0.906738 0.057320
vn -0.100996 0.994876 -0.004578
vn -0.664363 -0.053566 -0.745488
vn -0.734464 -0.009798 -0.678577
vn -0.695181 0.127426 -0.707451
vn -0.639056 0.144824 -0.755403
vn -0.624992 -0.238271 -0.743379
vn -0.700389 -0.142996 -0.699290
vn -0.734464 -0.009798 -0.678577
vn -0.664363 -0.053566 -0.745488
vn -0.421850 -0.832377 -0.359432
vn -0.628935 -0.633696 -0.450411
vn -0.700389 -0.142996 -0.699290
vn -0.624992 -0.238271 -0.743379
vn -0.221650 -0.975114 0.004975
vn -0.392240 -0.919528 0.024812
vn -0.628935 -0.633696 -0.450411
vn -0.421850 -0.832377 -0.359432
vn -0.446544 -0.852587 0.271468
vn -0.554799 -0.692605 0.460974
vn -0.392240 -0.919528 0.024812
vn -0.221650 -0.975114 0.004975
vn -0.693140 -0.394227 0.603441
vn -0.586112 -0.298168 0.753371
vn -0.554799 -0.692605 0.460974
vn -0.446544 -0.852587 0.271468
vn -0.752848 -0.066082 0.654869
vn -0.630208 -0.093941 0.770722
vn -0.586112 -0.298168 0.753371
vn -0.693140 -0.394227 0.603441
vn -0.629282 0.194398 0.752472
vn -0.630208 -0.093941 0.770722
vn -0.752848 -0.066082 0.654869
vn -0.671512 0.192379 0.715585
vn -0.417780 0.906738 0.057320
vn -0.499969 0.645312 0.577585
vn -0.380926 0.744972 0.547642
vn -0.100996 0.994876 -0.004578
vn 0.431653 0.129896 0.892638
vn 0.489427 0.088821 0.867509
vn 0.444950 0.039282 0.894693
vn 0.423577 0.076304 0.902641
vn 0.531341 0.219569 0.818209
vn 0.489427 0.088821 0.867509
vn 0.431653 0.129896 0.892638
vn 0.438502 0.209835 0.873891
vn 0.390653 0.920397 0.016085
vn 0.520397 0.737834 0.429869
vn 0.406217 0.787926 0.462775
vn 0.294113 0.955746 -0.006807
vn -0.014193 0.909951 -0.414474
vn 0.246578 0.923469 -0.293946
vn 0.390653 0.920397 0.016085
vn 0.294113 0.955746 -0.006807
vn -0.658314 -0.011263 -0.752660
vn -0.515026 -0.053929 -0.855476
vn -0.458297 0.039157 -0.887936
vn -0.629139 0.026707 -0.776834
vn -0.643209 0.024631 -0.765294
vn -0.669128 -0.060983 -0.740641
vn -0.563861 -0.113505 -0.818033
vn -0.515026 -0.053929 -0.855476
vn -0.658314 -0.011263 -0.752660
vn -0.501540 -0.845046 -0.185350
vn -0.498108 -0.838442 -0.221140
vn -0.563861 -0.113505 -0.818033
vn -0.669128 -0.060983 -0.740641
vn -0.248572 -0.967672 0.042701
vn -0.322293 -0.946522 0.014955
vn -0.498108 -0.838442 -0.221140
vn -0.501540 -0.845046 -0.185350
vn -0.112046 -0.952134 0.284404
vn -0.165521 -0.932387 0.321336
vn -0.322293 -0.946522 0.014955
vn -0.248572 -0.967672 0.042701
vn 0.423577 0.076304 0.902641
vn 0.444950 0.039282 0.894693
vn -0.165521 -0.932387 0.321336
vn -0.112046 -0.952134 0.284404
vn -0.380926 0.744972 0.547642
vn -0.499969 0.645312 0.577585
vn -0.629282 0.194398 0.752472
vn -0.671512 0.192379 0.715585
vn 0.501987 0.712494 0.490267
vn 0.567038 0.581384 0.583490
vn 0.435508 0.207941 0.875839
vn 0.464897 0.247084 0.850189
vn 0.520397 0.737834 0.429869
vn 0.501987 0.712494 0.490267
vn 0.464897 0.247084 0.850189
vn 0.531341 0.219569 0.818209
vn 0.406217 0.787926 0.462775
vn 0.520397 0.737834 0.429869
vn 0.531341 0.219569 0.818209
vn 0.438502 0.209835 0.873891
vn 0.280335 0.774958 0.566438
vn 0.406217 0.787926 0.462775
vn 0.438502 0.209835 0.873891
vn 0.328127 0.215841 0.919644
vn -0.458297 0.039157 -0.887936
vn 0.246578 0.923469 -0.293946
vn -0.014193 0.909951 -0.414474
vn -0.629139 0.026707 -0.776834
vn -0.444409 0.108874 -0.889184
vn 0.227831 0.942513 -0.244464
vn 0.246578 0.923469 -0.293946
vn -0.458297 0.039157 -0.887936
vn -0.355179 0.240570 -0.903313
vn 0.436459 0.881098 -0.182123
vn 0.227831 0.942513 -0.244464
vn -0.444409 0.108874 -0.889184
vn -0.695181 0.127426 -0.707451
vn -0.603603 0.602840 -0.521774
vn -0.329360 0.790697 -0.516062
vn -0.639056 0.144824 -0.755403
vn 0.436459 0.881098 -0.182123
vn 0.083724 0.807079 -0.584478
vn 0.326720 0.944633 0.030368
vn 0.575858 0.813502 0.081250
vn -0.433913 -0.049993 -0.899567
vn -0.327165 -0.074443 -0.942030
vn -0.353379 0.196773 -0.914551
vn -0.355179 0.240570 -0.903313
vn -0.500642 -0.201179 -0.841953
vn -0.359336 -0.306655 -0.881386
vn -0.327165 -0.074443 -0.942030
vn -0.433913 -0.049993 -0.899567
vn -0.520550 -0.800357 -0.297417
vn -0.300685 -0.803839 -0.513256
vn -0.359336 -0.306655 -0.881386
vn -0.500642 -0.201179 -0.841953
vn -0.391599 -0.919529 -0.033419
vn -0.135733 -0.990727 0.005983
vn -0.300685 -0.803839 -0.513256
vn -0.520550 -0.800357 -0.297417
vn -0.208435 -0.844270 0.493724
vn -0.227487 -0.889378 0.396555
vn -0.135733 -0.990727 0.005983
vn -0.391599 -0.919529 -0.033419
vn 0.208434 -0.242160 0.947583
vn -0.366091 -0.376956 0.850813
vn -0.227487 -0.889378 0.396555
vn -0.208435 -0.844270 0.493724
vn 0.324900 -0.023227 0.945463
vn -0.219198 -0.045109 0.974637
vn -0.366091 -0.376956 0.850813
vn 0.208434 -0.242160 0.947583
vn 0.435508 0.207941 0.875839
vn -0.196288 0.251624 0.947711
vn -0.219198 -0.045109 0.974637
vn 0.324900 -0.023227 0.945463
vn 0.575858 0.813502 0.081250
vn 0.326720 0.944633 0.030368
vn 0.167039 0.763195 0.624205
vn 0.567038 0.581384 0.583490
vn 0.567038 0.581384 0.583490
vn 0.167039 0.763195 0.624205
vn -0.196288 0.251624 0.947711
vn 0.435508 0.207941 0.875839
vn -0.355179 0.240570 -0.903313
vn -0.353379 0.196773 -0.914551
vn 0.083724 0.807079 -0.584478
vn 0.436459 0.881098 -0.182123
vn 0.083724 0.807079 -0.584478
vn -0.329360 0.790697 -0.516062
vn -0.100996 0.994876 -0.004578
vn 0.326720 0.944633 0.030368
vn -0.327165 -0.074443 -0.942030
vn -0.664363 -0.053566 -0.745488
vn -0.639056 0.144824 -0.755403
vn -0.353379 0.196773 -0.914551
vn -0.359336 -0.306655 -0.881386
vn -0.624992 -0.238271 -0.743379
vn -0.664363 -0.053566 -0.745488
vn -0.327165 -0.074443 -0.942030
vn -0.300685 -0.803839 -0.513256
vn -0.421850 -0.832377 -0.359432
vn -0.624992 -0.238271 -0.743379
vn -0.359336 -0.306655 -0.881386
vn -0.135733 -0.990727 0.005983
vn -0.221650 -0.975114 0.004975
vn -0.421850 -0.832377 -0.359432
vn -0.300685 -0.803839 -0.513256
vn -0.227487 -0.889378 0.396555
vn -0.446544 -0.852587 0.271468
vn -0.221650 -0.975114 0.004975
vn -0.135733 -0.990727 0.005983
vn -0.366091 -0.376956 0.850813
vn -0.693140 -0.394227 0.603441
vn -0.446544 -0.852587 0.271468
vn -0.227487 -0.889378 0.396555
vn -0.219198 -0.045109 0.974637
vn -0.752848 -0.066082 0.654869
vn -0.693140 -0.394227 0.603441
vn -0.366091 -0.376956 0.850813
vn -0.196288 0.251624 0.947711
vn -0.671512 0.192379 0.715585
vn -0.752848 -0.066082 0.654869
vn -0.219198 -0.045109 0.974637
vn 0.326720 0.944633 0.030368
vn -0.100996 0.994876 -0.004578
vn -0.380926 0.744972 0.547642
vn 0.167039 0.763195 0.624205
vn 0.167039 0.763195 0.624205
vn -0.380926 0.744972 0.547642
vn -0.671512 0.192379 0.715585
vn -0.196288 0.251624 0.947711
vn -0.353379 0.196773 -0.914551
vn -0.639056 0.144824 -0.755403
vn -0.329360 0.790697 -0.516062
vn 0.083724 0.807079 -0.584478
vn -0.643209 0.024631 -0.765294
vn -0.629139 0.026707 -0.776834
vn -0.014193 0.909951 -0.414474
vn 0.063146 0.929539 -0.363276
vn -0.077125 0.043766 -0.996060
vn -0.132313 -0.003266 -0.991203
s off
g TunelReverseLeft
f 10/1/1 42/4/2 51/3/3 11/2/4
f 18/5/5 43/6/6 42/4/7 10/1/8
f 55/7/9 43/6/10 18/5/11 56/8/12
f 15/9/13 47/12/14 98/11/15 97/10/16
f 44/13/17 17/16/18 20/15/19 45/14/20
f 14/17/21 48/18/22 47/12/23 15/9/24
f 13/19/25 49/20/26 48/18/27 14/17/28
f 12/21/29 50/24/30 49/23/31 13/22/32
f 11/25/33 51/26/34 50/24/35 12/21/36
f 22/27/37 39/30/38 38/29/39 23/28/40
f 31/31/41 40/32/42 39/30/43 22/27/44
f 52/33/45 40/32/46 31/31/47 53/34/48
f 27/35/49 34/38/50 60/37/51 59/36/52
f 41/39/53 30/42/54 29/41/55 32/40/56
f 26/43/57 35/44/58 34/38/59 27/35/60
f 25/45/61 36/46/62 35/44/63 26/43/64
f 24/47/65 37/50/66 36/49/67 25/48/68
f 23/51/69 38/52/70 37/50/71 24/47/72
f 28/53/73 33/54/74 32/40/75 29/41/76
f 16/55/77 46/56/78 45/14/79 20/15/80
f 1/57/81 22/27/82 23/28/83 2/58/84
f 2/59/85 23/51/86 24/47/87 9/60/88
f 9/60/89 24/47/90 25/48/91 8/61/92
f 8/62/93 25/45/94 26/43/95 7/63/96
f 7/63/97 26/43/98 27/35/99 6/64/100
f 6/64/101 27/35/102 59/36/103 58/65/104
f 5/66/105 28/53/106 29/41/107 19/67/108
f 30/42/109 4/68/110 19/67/111 29/41/112
f 53/34/113 31/31/114 3/70/115 54/69/116
f 3/70/117 31/31/118 22/27/119 1/57/120
f 74/71/121 76/74/122 75/73/123 73/72/124
f 78/75/125 80/78/126 79/77/127 77/76/128
f 81/79/129 82/80/130 80/78/131 78/75/132
f 83/81/133 84/82/134 82/80/135 81/79/136
f 85/83/137 86/86/138 84/85/139 83/84/140
f 87/87/141 88/88/142 86/86/143 85/83/144
f 89/89/145 90/92/146 88/91/147 87/90/148
f 91/93/149 92/94/150 90/92/151 89/89/152
f 93/95/153 92/94/154 91/93/155 94/96/156
f 75/73/157 96/98/158 95/97/159 73/72/160
f 43/6/161 3/70/162 1/57/163 42/4/164
f 54/69/165 3/70/166 43/6/167 55/7/168
f 19/67/169 4/68/170 44/13/171 45/14/172
f 46/56/173 5/66/174 19/67/175 45/14/176
f 47/12/177 6/64/178 58/65/179 57/99/180 98/11/181
f 48/18/182 7/63/183 6/64/184 47/12/185
f 49/20/186 8/62/187 7/63/188 48/18/189
f 50/24/190 9/60/191 8/61/192 49/23/193
f 51/26/194 2/59/195 9/60/196 50/24/197
f 42/4/198 1/57/199 2/58/200 51/3/201
f 95/100/202 96/101/203 93/95/204 94/96/205
f 30/102/206 41/103/207 52/33/208 53/34/209
f 4/104/210 30/102/211 53/34/212 54/69/213
f 44/105/214 4/104/215 54/69/216 55/7/217
f 17/106/218 44/105/219 55/7/220 56/8/221
f 58/65/222 5/108/223 46/107/224 57/99/225
f 59/36/226 28/109/227 5/108/228 58/65/229
f 60/37/230 33/110/231 28/109/232 59/36/233
f 79/77/234 76/112/235 74/111/236 77/76/237
f 33/54/238 62/114/239 61/113/240 32/40/241
f 34/115/242 64/118/243 63/117/244 60/116/245
f 35/119/246 65/120/247 64/118/248 34/115/249
f 36/121/250 66/122/251 65/120/252 35/119/253
f 37/50/254 67/124/255 66/123/256 36/49/257
f 38/52/258 68/125/259 67/124/260 37/50/261
f 39/126/262 69/129/263 68/128/264 38/127/265
f 40/130/266 70/132/267 69/129/268 39/131/269
f 52/133/270 71/134/271 70/132/272 40/130/273
f 32/40/274 61/113/275 72/135/276 41/39/277
f 41/136/278 72/137/279 71/134/280 52/133/281
f 60/116/282 63/117/283 62/139/284 33/138/285
f 62/114/286 74/71/287 73/72/288 61/113/289
f 64/118/290 78/75/291 77/76/292 63/117/293
f 65/120/294 81/79/295 78/75/296 64/118/297
f 66/122/298 83/81/299 81/79/300 65/120/301
f 67/124/302 85/83/303 83/84/304 66/123/305
f 68/125/306 87/87/307 85/83/308 67/124/309
f 69/129/310 89/89/311 87/90/312 68/128/313
f 70/132/314 91/93/315 89/89/316 69/129/317
f 71/134/318 94/96/319 91/93/320 70/132/321
f 61/113/322 73/72/323 95/97/324 72/135/325
f 72/137/326 95/100/327 94/96/328 71/134/329
f 63/117/330 77/76/331 74/111/332 62/139/333
f 98/11/334 57/99/335 46/107/336 16/141/337 21/140/338 97/10/339
