# This file uses centimeters as units for non-parametric coordinates.

g default
v -55.017614 44.655998 25.911548
v -55.017614 31.998112 25.911548
v -55.017614 23.776384 25.911548
v -55.017614 17.397331 25.911548
v -54.158132 44.655998 1.187939
v -55.017614 33.058990 1.187939
v -54.616552 22.107874 1.187939
v -55.017614 17.397331 1.187939
v -55.017614 17.397331 13.558246
v -2.978750 28.743963 6.657345
v -2.378164 19.212809 6.589336
v -1.911032 6.156612 6.541881
v -2.731069 -0.787604 5.467296
v 1.552546 -0.350672 -1.808567
v 6.904795 0.194752 -10.857002
v 5.308405 6.345600 -11.338699
v 4.075922 12.188188 -11.790516
v 1.883265 29.311283 -13.132794
v -19.378942 33.663349 12.609997
v -20.267309 23.165529 12.563015
v -19.632788 11.603964 12.530224
v -18.189230 6.538924 11.762897
v -15.446722 5.834744 2.903690
v -12.015859 5.583820 -7.188740
v -13.065054 10.388648 -9.039021
v -14.040487 17.810602 -9.351135
v -15.442541 34.055271 -8.705387
v -37.927496 38.146481 19.532940
v -39.881140 27.762547 18.905605
v -39.576849 17.939234 18.889889
v -38.010916 9.461548 19.193958
v -36.722677 9.675900 8.516292
v -35.104406 9.088940 -2.761616
v -34.764349 16.886086 -2.961933
v -35.440862 26.144829 -3.111614
v -35.592504 38.334427 -3.556294
v -46.833639 42.131676 22.857006
v -46.738348 29.969814 22.846218
v -46.592642 20.981140 22.838695
v -46.722738 14.512422 22.668209
v -46.043173 14.581738 11.120411
v -45.194067 14.668268 -0.722912
v -45.109899 19.607306 0.616268
v -45.642858 29.747993 0.544590
v -45.267568 42.221676 -1.083950
v -29.310797 35.708736 16.316898
v -29.011511 25.627005 16.283008
v -28.553808 14.996208 16.259365
v -28.802786 7.315264 15.741878
v -26.838964 8.060424 5.908977
v -24.378668 7.500032 -4.818230
v -24.755056 14.253308 -7.087288
v -25.570440 22.658768 -7.312439
v -26.231878 35.991447 -5.948300
v -23.136831 33.804398 14.012569
v -24.068945 24.096870 13.970539
v -23.501333 12.887476 13.941212
v -22.205053 6.832668 13.268406
v -19.757192 6.812256 4.040798
v -16.693533 6.380836 -6.291821
v -17.583288 12.366886 -8.586468
v -18.498144 20.160959 -8.865692
v -19.524877 34.154999 -7.662193
v -17.653829 31.615444 11.966129
v -17.218832 22.737976 11.916874
v -16.553610 11.014752 11.882496
v -16.517187 5.746448 11.081928
v -13.647085 5.181852 2.396854
v -9.969290 5.138072 -7.585526
v -11.061148 9.861568 -9.457920
v -12.064382 17.112677 -9.785153
v -13.568502 32.026344 -9.184269
v -15.445547 30.934311 11.141926
v -14.984854 22.190689 11.089756
v -14.280294 10.260520 11.053348
v -14.376852 4.732036 10.210239
v -11.254263 4.390824 1.741520
v -7.349539 4.250244 -8.093426
v -8.648977 10.016860 -9.814308
v -9.687795 17.049299 -10.160874
v -11.169561 31.369488 -9.797287
v -10.836645 31.028498 9.421726
v -10.322271 21.048431 8.381893
v -9.535681 8.686340 8.341244
v -9.909750 2.614792 8.390934
v -6.341833 2.471248 0.379764
v -1.881841 3.635408 -9.153492
v -3.295202 8.608632 -10.933445
v -4.408300 15.184678 -11.320385
v -6.162756 31.514366 -11.076721
v -6.052481 29.692047 7.804561
v -5.487661 19.974592 6.759022
v -5.075262 7.206452 6.714397
v -5.710226 0.624412 6.680584
v -1.723608 1.177992 -0.900402
v 3.258356 1.869600 -10.150044
v 1.737909 7.284764 -10.592335
v 0.554957 13.431734 -11.017208
v -1.455831 30.225561 -12.279537
v -43.002081 39.711723 21.426937
v -45.014807 29.020210 20.806301
v -44.800863 19.672464 20.795254
v -42.974768 11.705856 21.173534
v -42.033346 11.955022 10.000080
v -40.853338 12.267954 -1.599995
v -40.659078 18.436596 -0.314106
v -41.253790 28.197851 -0.419346
v -41.105200 39.843861 -2.147595
vt 0.251591 0.649584
vt 0.149442 0.580220
vt 0.218214 0.517241
vt 0.325083 0.592013
vt 0.593898 0.150648
vt 0.518666 0.096988
vt 0.596136 0.039661
vt 0.664330 0.089668
vt 0.465200 0.057730
vt 0.543072 0.001045
vt 0.310762 0.887371
vt 0.394201 0.836920
vt 0.443823 0.408015
vt 0.509805 0.297120
vt 0.601696 0.329342
vt 0.542725 0.433208
vt 0.381116 0.491127
vt 0.476231 0.524683
vt 0.350980 0.533812
vt 0.452567 0.566882
vt 0.885758 0.200052
vt 0.896981 0.078601
vt 0.997271 0.114439
vt 0.977323 0.239874
vt 0.873766 0.318273
vt 0.957671 0.365181
vt 0.545124 0.855834
vt 0.618663 0.911758
vt 0.596493 0.934902
vt 0.518143 0.863806
vt 0.890338 0.706792
vt 0.821655 0.805870
vt 0.799765 0.781468
vt 0.867658 0.683713
vt 0.790599 0.850852
vt 0.781040 0.832893
vt 0.264359 0.119238
vt 0.171495 0.134540
vt 0.179711 0.115802
vt 0.274212 0.101705
vt 0.063875 0.153420
vt 0.071522 0.133077
vt 0.823136 0.316297
vt 0.787706 0.356094
vt 0.767358 0.348649
vt 0.802751 0.307785
vt 0.738089 0.412601
vt 0.716856 0.406915
vt 0.639049 0.530667
vt 0.610870 0.536829
vt 0.511994 0.635506
vt 0.485651 0.645981
vt 0.086442 0.771354
vt 0.001045 0.713968
vt 0.085344 0.633929
vt 0.162998 0.710214
vt 0.437336 0.281845
vt 0.348094 0.218565
vt 0.443200 0.145271
vt 0.525082 0.204355
vt 0.286311 0.169436
vt 0.365437 0.103020
vt 0.686502 0.216960
vt 0.685047 0.113861
vt 0.782287 0.157013
vt 0.776536 0.267445
vt 0.677116 0.001045
vt 0.783568 0.039737
vt 0.128526 0.472806
vt 0.165568 0.410750
vt 0.272331 0.451365
vt 0.231029 0.519664
vt 0.219963 0.343102
vt 0.330963 0.375650
vt 0.306708 0.236155
vt 0.401941 0.272433
vt 0.129996 0.997554
vt 0.216005 0.942817
vt 0.209226 0.673810
vt 0.127223 0.595967
vt 0.569668 0.167259
vt 0.491939 0.111113
vt 0.417332 0.073159
vt 0.828502 0.296168
vt 0.838655 0.181430
vt 0.848119 0.062034
vt 0.298868 0.527511
vt 0.336037 0.475036
vt 0.396848 0.395524
vt 0.459188 0.292151
vt 0.266835 0.911251
vt 0.489065 0.892886
vt 0.563275 0.961777
vt 0.516670 0.996134
vt 0.433032 0.935740
vt 0.840570 0.650686
vt 0.774386 0.745135
vt 0.742508 0.693035
vt 0.805846 0.603971
vt 0.748090 0.803482
vt 0.693834 0.755367
vt 0.296189 0.063641
vt 0.198599 0.072821
vt 0.229525 0.003033
vt 0.332671 0.001045
vt 0.088670 0.086668
vt 0.116644 0.010497
vt 0.757482 0.286974
vt 0.717317 0.339824
vt 0.644292 0.313433
vt 0.684156 0.251828
vt 0.665250 0.401223
vt 0.589276 0.380845
vt 0.574359 0.513648
vt 0.504702 0.489826
vt 0.449477 0.669733
vt 0.387670 0.709681
vt 0.566242 0.840357
vt 0.637697 0.897353
vt 0.906304 0.726309
vt 0.836426 0.827127
vt 0.803176 0.873786
vt 0.251881 0.141758
vt 0.160718 0.159187
vt 0.054193 0.180488
vt 0.850894 0.324704
vt 0.807705 0.371085
vt 0.758932 0.425830
vt 0.663970 0.539319
vt 0.533694 0.621942
vt 0.601810 0.804901
vt 0.684021 0.865026
vt 0.942848 0.769640
vt 0.870527 0.874423
vt 0.829083 0.921211
vt 0.226205 0.189184
vt 0.138717 0.210506
vt 0.032433 0.233171
vt 0.901895 0.352259
vt 0.861979 0.391054
vt 0.815627 0.441073
vt 0.707373 0.570180
vt 0.577394 0.591407
vt 0.645025 0.773915
vt 0.726970 0.831816
vt 0.977215 0.810641
vt 0.899574 0.916537
vt 0.853029 0.965974
vt 0.202545 0.233841
vt 0.117488 0.256841
vt 0.013532 0.286689
vt 0.956121 0.368568
vt 0.912744 0.406897
vt 0.868027 0.453638
vt 0.755776 0.586875
vt 0.621238 0.563703
vt 0.673288 0.753548
vt 0.752930 0.811868
vt 0.997550 0.836505
vt 0.918604 0.944885
vt 0.869184 0.997755
vt 0.186166 0.265917
vt 0.103588 0.292553
vt 0.001045 0.326640
vt 0.997367 0.375826
vt 0.949129 0.420081
vt 0.905827 0.463900
vt 0.790283 0.599259
vt 0.652310 0.544409
vn 0.374165 -0.009859 0.927310
vn 0.348637 0.000794 0.937258
vn 0.347625 0.001343 0.937633
vn 0.412463 -0.010195 0.910917
vn 0.412463 -0.010195 0.910917
vn 0.347625 0.001343 0.937633
vn 0.346638 -0.003572 0.937992
vn 0.451367 0.004395 0.892327
vn 0.451367 0.004395 0.892327
vn 0.346638 -0.003572 0.937992
vn 0.348569 -0.015962 0.937147
vn 0.444596 0.022497 0.895449
vn 0.389358 0.920681 0.027319
vn 0.283266 0.958911 0.015841
vn 0.283266 0.958911 0.015841
vn 0.342925 0.939098 0.022313
vn -0.159563 -0.047704 -0.986035
vn -0.135817 -0.039005 -0.989966
vn -0.174874 -0.057447 -0.982913
vn -0.200728 -0.073716 -0.976870
vn -0.114453 0.053443 -0.991990
vn -0.072249 0.033179 -0.996835
vn -0.135817 -0.039005 -0.989966
vn -0.159563 -0.047704 -0.986035
vn -0.096175 0.183101 -0.978379
vn -0.088358 0.141129 -0.986040
vn -0.072249 0.033179 -0.996835
vn -0.114453 0.053443 -0.991990
vn -0.385778 -0.922198 -0.026954
vn -0.303108 -0.952876 -0.012331
vn -0.285711 -0.958223 -0.013307
vn -0.383879 -0.922826 -0.032082
vn -0.382487 -0.923712 -0.021456
vn -0.316930 -0.948378 -0.011629
vn -0.303108 -0.952876 -0.012331
vn -0.385778 -0.922198 -0.026954
vn 0.284786 -0.003632 0.958584
vn 0.323199 -0.029273 0.945878
vn 0.302284 -0.002869 0.953214
vn 0.279422 0.007447 0.960140
vn 0.279422 0.007447 0.960140
vn 0.302284 -0.002869 0.953214
vn 0.288913 -0.010104 0.957302
vn 0.279171 -0.023961 0.959943
vn 0.279171 -0.023961 0.959943
vn 0.288913 -0.010104 0.957302
vn 0.287721 -0.076364 0.954665
vn 0.281863 -0.133850 0.950072
vn -0.399311 -0.914023 -0.071511
vn -0.190357 -0.981632 -0.012727
vn -0.237299 -0.970711 -0.037541
vn -0.350653 -0.931899 -0.092769
vn -0.350653 -0.931899 -0.092769
vn -0.237299 -0.970711 -0.037541
vn -0.243062 -0.968280 -0.057927
vn -0.327423 -0.938125 -0.112763
vn -0.228999 -0.373107 -0.899083
vn -0.256437 -0.391997 -0.883504
vn -0.219165 -0.238334 -0.946131
vn -0.211419 -0.219720 -0.952379
vn -0.211419 -0.219720 -0.952379
vn -0.219165 -0.238334 -0.946131
vn -0.172376 -0.004457 -0.985021
vn -0.202201 -0.017063 -0.979195
vn -0.202201 -0.017063 -0.979195
vn -0.172376 -0.004457 -0.985021
vn -0.171253 0.042821 -0.984296
vn -0.211780 0.016087 -0.977185
vn 0.522367 0.844664 0.116946
vn 0.468583 0.877277 0.103998
vn 0.271648 0.960001 0.067859
vn 0.638554 0.757432 0.136184
vn 0.304514 -0.042826 0.951545
vn 0.292188 -0.078015 0.953174
vn 0.284473 -0.034495 0.958063
vn 0.303458 -0.012269 0.952766
vn 0.303458 -0.012269 0.952766
vn 0.284473 -0.034495 0.958063
vn 0.293008 0.028968 0.955671
vn 0.316765 0.004334 0.948494
vn 0.316765 0.004334 0.948494
vn 0.293008 0.028968 0.955671
vn 0.312631 0.033665 0.949278
vn 0.320868 -0.012728 0.947038
vn -0.200525 -0.976590 -0.077860
vn -0.326876 -0.942413 -0.070784
vn -0.291989 -0.955451 -0.043069
vn -0.163564 -0.986298 -0.021517
vn -0.163564 -0.986298 -0.021517
vn -0.291989 -0.955451 -0.043069
vn -0.238798 -0.971061 0.004030
vn -0.152884 -0.988147 0.013857
vn -0.287146 -0.241725 -0.926885
vn -0.304722 -0.095418 -0.947650
vn -0.362533 -0.054277 -0.930389
vn -0.306438 -0.135438 -0.942206
vn -0.306438 -0.135438 -0.942206
vn -0.362533 -0.054277 -0.930389
vn -0.364282 -0.022556 -0.931016
vn -0.298960 0.008394 -0.954229
vn -0.298960 0.008394 -0.954229
vn -0.364282 -0.022556 -0.931016
vn -0.337903 -0.023655 -0.940884
vn -0.281674 0.042057 -0.958588
vn 0.282938 0.957787 0.050886
vn 0.274379 0.960814 0.039402
vn 0.278987 0.959575 0.037178
vn 0.276188 0.959974 0.046581
vn 0.404285 -0.092937 0.909899
vn 0.374165 -0.009859 0.927310
vn 0.412463 -0.010195 0.910917
vn 0.448434 -0.051705 0.892319
vn 0.448434 -0.051705 0.892319
vn 0.412463 -0.010195 0.910917
vn 0.451367 0.004395 0.892327
vn 0.465667 0.048044 0.883655
vn 0.465667 0.048044 0.883655
vn 0.451367 0.004395 0.892327
vn 0.444596 0.022497 0.895449
vn 0.424843 0.112994 0.898187
vn -0.520675 -0.851859 -0.056866
vn -0.382487 -0.923712 -0.021456
vn -0.385778 -0.922198 -0.026954
vn -0.488209 -0.870938 -0.055853
vn -0.488209 -0.870938 -0.055853
vn -0.385778 -0.922198 -0.026954
vn -0.383879 -0.922826 -0.032082
vn -0.478818 -0.876476 -0.050241
vn -0.238790 0.119868 -0.963645
vn -0.096175 0.183101 -0.978379
vn -0.114453 0.053443 -0.991990
vn -0.300001 0.036718 -0.953232
vn -0.300001 0.036718 -0.953232
vn -0.114453 0.053443 -0.991990
vn -0.159563 -0.047704 -0.986035
vn -0.325770 -0.068792 -0.942943
vn -0.325770 -0.068792 -0.942943
vn -0.159563 -0.047704 -0.986035
vn -0.200728 -0.073716 -0.976870
vn -0.321147 -0.106642 -0.941006
vn 0.378767 0.924773 0.036476
vn 0.389358 0.920681 0.027319
vn 0.342925 0.939098 0.022313
vn 0.431666 0.901211 0.038521
vn 0.365632 -0.023107 0.930473
vn 0.304514 -0.042826 0.951545
vn 0.303458 -0.012269 0.952766
vn 0.382405 -0.002442 0.923992
vn 0.382405 -0.002442 0.923992
vn 0.303458 -0.012269 0.952766
vn 0.316765 0.004334 0.948494
vn 0.375011 -0.011080 0.926954
vn 0.375011 -0.011080 0.926954
vn 0.316765 0.004334 0.948494
vn 0.320868 -0.012728 0.947038
vn 0.356784 -0.045876 0.933060
vn -0.148438 -0.987207 -0.058210
vn -0.200525 -0.976590 -0.077860
vn -0.163564 -0.986298 -0.021517
vn -0.160069 -0.986972 -0.016270
vn -0.160069 -0.986972 -0.016270
vn -0.163564 -0.986298 -0.021517
vn -0.152884 -0.988147 0.013857
vn -0.179706 -0.983627 -0.013552
vn -0.249485 -0.363454 -0.897585
vn -0.287146 -0.241725 -0.926885
vn -0.306438 -0.135438 -0.942206
vn -0.215293 -0.201129 -0.955613
vn -0.215293 -0.201129 -0.955613
vn -0.306438 -0.135438 -0.942206
vn -0.298960 0.008394 -0.954229
vn -0.190928 0.017979 -0.981440
vn -0.190928 0.017979 -0.981440
vn -0.298960 0.008394 -0.954229
vn -0.281674 0.042057 -0.958588
vn -0.191721 0.068099 -0.979084
vn 0.171253 0.984329 0.042058
vn 0.282938 0.957787 0.050886
vn 0.276188 0.959974 0.046581
vn 0.239286 0.969597 0.051221
vn 0.323199 -0.029273 0.945878
vn 0.365632 -0.023107 0.930473
vn 0.382405 -0.002442 0.923992
vn 0.302284 -0.002869 0.953214
vn 0.302284 -0.002869 0.953214
vn 0.382405 -0.002442 0.923992
vn 0.375011 -0.011080 0.926954
vn 0.288913 -0.010104 0.957302
vn 0.288913 -0.010104 0.957302
vn 0.375011 -0.011080 0.926954
vn 0.356784 -0.045876 0.933060
vn 0.287721 -0.076364 0.954665
vn -0.190357 -0.981632 -0.012727
vn -0.148438 -0.987207 -0.058210
vn -0.160069 -0.986972 -0.016270
vn -0.237299 -0.970711 -0.037541
vn -0.237299 -0.970711 -0.037541
vn -0.160069 -0.986972 -0.016270
vn -0.179706 -0.983627 -0.013552
vn -0.243062 -0.968280 -0.057927
vn -0.256437 -0.391997 -0.883504
vn -0.249485 -0.363454 -0.897585
vn -0.215293 -0.201129 -0.955613
vn -0.219165 -0.238334 -0.946131
vn -0.219165 -0.238334 -0.946131
vn -0.215293 -0.201129 -0.955613
vn -0.190928 0.017979 -0.981440
vn -0.172376 -0.004457 -0.985021
vn -0.172376 -0.004457 -0.985021
vn -0.190928 0.017979 -0.981440
vn -0.191721 0.068099 -0.979084
vn -0.171253 0.042821 -0.984296
vn 0.468583 0.877277 0.103998
vn 0.171253 0.984329 0.042058
vn 0.239286 0.969597 0.051221
vn 0.271648 0.960001 0.067859
vn 0.401606 -0.015322 0.915685
vn 0.284786 -0.003632 0.958584
vn 0.279422 0.007447 0.960140
vn 0.430874 0.003815 0.902404
vn 0.430874 0.003815 0.902404
vn 0.279422 0.007447 0.960140
vn 0.279171 -0.023961 0.959943
vn 0.445980 -0.010500 0.894981
vn 0.445980 -0.010500 0.894981
vn 0.279171 -0.023961 0.959943
vn 0.281863 -0.133850 0.950072
vn 0.393978 -0.091550 0.914549
vn -0.411816 -0.903841 -0.116101
vn -0.399311 -0.914023 -0.071511
vn -0.350653 -0.931899 -0.092769
vn -0.368137 -0.919016 -0.141016
vn -0.368137 -0.919016 -0.141016
vn -0.350653 -0.931899 -0.092769
vn -0.327423 -0.938125 -0.112763
vn -0.284277 -0.945624 -0.158057
vn -0.239357 -0.356945 -0.902939
vn -0.228999 -0.373107 -0.899083
vn -0.211419 -0.219720 -0.952379
vn -0.221804 -0.190885 -0.956225
vn -0.221804 -0.190885 -0.956225
vn -0.211419 -0.219720 -0.952379
vn -0.202201 -0.017063 -0.979195
vn -0.217772 -0.020725 -0.975780
vn -0.217772 -0.020725 -0.975780
vn -0.202201 -0.017063 -0.979195
vn -0.211780 0.016087 -0.977185
vn -0.220358 0.000855 -0.975419
vn 0.053166 0.998074 0.031955
vn 0.522367 0.844664 0.116946
vn 0.638554 0.757432 0.136184
vn 0.147932 0.987727 0.050114
vn 0.372728 -0.053936 0.926372
vn 0.401606 -0.015322 0.915685
vn 0.430874 0.003815 0.902404
vn 0.401361 -0.014620 0.915803
vn 0.401361 -0.014620 0.915803
vn 0.430874 0.003815 0.902404
vn 0.445980 -0.010500 0.894981
vn 0.399231 -0.005159 0.916836
vn 0.399231 -0.005159 0.916836
vn 0.445980 -0.010500 0.894981
vn 0.393978 -0.091550 0.914549
vn 0.375116 -0.046821 0.925795
vn -0.426737 -0.888914 -0.166513
vn -0.411816 -0.903841 -0.116101
vn -0.368137 -0.919016 -0.141016
vn -0.344716 -0.918040 -0.195890
vn -0.344716 -0.918040 -0.195890
vn -0.368137 -0.919016 -0.141016
vn -0.284277 -0.945624 -0.158057
vn -0.320367 -0.918608 -0.231354
vn -0.184686 -0.293177 -0.938050
vn -0.239357 -0.356945 -0.902939
vn -0.221804 -0.190885 -0.956225
vn -0.138076 -0.189534 -0.972117
vn -0.138076 -0.189534 -0.972117
vn -0.221804 -0.190885 -0.956225
vn -0.217772 -0.020725 -0.975780
vn -0.151353 -0.043919 -0.987504
vn -0.151353 -0.043919 -0.987504
vn -0.217772 -0.020725 -0.975780
vn -0.220358 0.000855 -0.975419
vn -0.179553 -0.020724 -0.983530
vn 0.184543 0.980615 0.065869
vn 0.053166 0.998074 0.031955
vn 0.147932 0.987727 0.050114
vn 0.083964 0.995570 0.042302
vn 0.271124 -0.073444 0.959738
vn 0.372728 -0.053936 0.926372
vn 0.401361 -0.014620 0.915803
vn 0.248054 -0.023044 0.968472
vn 0.248054 -0.023044 0.968472
vn 0.401361 -0.014620 0.915803
vn 0.399231 -0.005159 0.916836
vn 0.228809 -0.015140 0.973354
vn 0.228809 -0.015140 0.973354
vn 0.399231 -0.005159 0.916836
vn 0.375116 -0.046821 0.925795
vn 0.261751 -0.065407 0.962917
vn -0.423505 -0.872921 -0.242182
vn -0.426737 -0.888914 -0.166513
vn -0.344716 -0.918040 -0.195890
vn -0.405358 -0.870029 -0.280597
vn -0.405358 -0.870029 -0.280597
vn -0.344716 -0.918040 -0.195890
vn -0.320367 -0.918608 -0.231354
vn -0.416157 -0.859847 -0.295763
vn -0.205710 -0.179702 -0.961972
vn -0.184686 -0.293177 -0.938050
vn -0.138076 -0.189534 -0.972117
vn -0.140612 -0.153706 -0.978061
vn -0.140612 -0.153706 -0.978061
vn -0.138076 -0.189534 -0.972117
vn -0.151353 -0.043919 -0.987504
vn -0.146473 -0.077373 -0.986184
vn -0.146473 -0.077373 -0.986184
vn -0.151353 -0.043919 -0.987504
vn -0.179553 -0.020724 -0.983530
vn -0.156117 -0.063149 -0.985718
vn 0.298800 0.949604 0.094716
vn 0.184543 0.980615 0.065869
vn 0.083964 0.995570 0.042302
vn 0.294035 0.951333 0.092243
vn 0.196213 -0.044750 0.979540
vn 0.271124 -0.073444 0.959738
vn 0.248054 -0.023044 0.968472
vn 0.102289 -0.016270 0.994622
vn 0.102289 -0.016270 0.994622
vn 0.248054 -0.023044 0.968472
vn 0.228809 -0.015140 0.973354
vn 0.110984 -0.045510 0.992780
vn 0.110984 -0.045510 0.992780
vn 0.228809 -0.015140 0.973354
vn 0.261751 -0.065407 0.962917
vn 0.180658 -0.099592 0.978491
vn -0.490539 -0.807766 -0.326934
vn -0.423505 -0.872921 -0.242182
vn -0.405358 -0.870029 -0.280597
vn -0.465165 -0.826332 -0.317487
vn -0.465165 -0.826332 -0.317487
vn -0.405358 -0.870029 -0.280597
vn -0.416157 -0.859847 -0.295763
vn -0.458064 -0.831304 -0.314819
vn -0.244667 -0.142539 -0.959073
vn -0.205710 -0.179702 -0.961972
vn -0.140612 -0.153706 -0.978061
vn -0.244112 -0.133899 -0.960458
vn -0.244112 -0.133899 -0.960458
vn -0.140612 -0.153706 -0.978061
vn -0.146473 -0.077373 -0.986184
vn -0.253813 -0.111280 -0.960831
vn -0.253813 -0.111280 -0.960831
vn -0.146473 -0.077373 -0.986184
vn -0.156117 -0.063149 -0.985718
vn -0.260779 -0.105954 -0.959567
vn 0.305681 0.947016 0.098587
vn 0.298800 0.949604 0.094716
vn 0.294035 0.951333 0.092243
vn 0.305681 0.947016 0.098587
vn 0.292188 -0.078015 0.953174
vn 0.404285 -0.092937 0.909899
vn 0.448434 -0.051705 0.892319
vn 0.284473 -0.034495 0.958063
vn 0.284473 -0.034495 0.958063
vn 0.448434 -0.051705 0.892319
vn 0.465667 0.048044 0.883655
vn 0.293008 0.028968 0.955671
vn 0.293008 0.028968 0.955671
vn 0.465667 0.048044 0.883655
vn 0.424843 0.112994 0.898187
vn 0.312631 0.033665 0.949278
vn -0.326876 -0.942413 -0.070784
vn -0.520675 -0.851859 -0.056866
vn -0.488209 -0.870938 -0.055853
vn -0.291989 -0.955451 -0.043069
vn -0.291989 -0.955451 -0.043069
vn -0.488209 -0.870938 -0.055853
vn -0.478818 -0.876476 -0.050241
vn -0.238798 -0.971061 0.004030
vn -0.304722 -0.095418 -0.947650
vn -0.238790 0.119868 -0.963645
vn -0.300001 0.036718 -0.953232
vn -0.362533 -0.054277 -0.930389
vn -0.362533 -0.054277 -0.930389
vn -0.300001 0.036718 -0.953232
vn -0.325770 -0.068792 -0.942943
vn -0.364282 -0.022556 -0.931016
vn -0.364282 -0.022556 -0.931016
vn -0.325770 -0.068792 -0.942943
vn -0.321147 -0.106642 -0.941006
vn -0.337903 -0.023655 -0.940884
vn 0.274379 0.960814 0.039402
vn 0.378767 0.924773 0.036476
vn 0.431666 0.901211 0.038521
vn 0.278987 0.959575 0.037178
s off
g TunelReverseRight
f 37/1/1 1/4/2 2/3/3 38/2/4
f 38/5/5 2/8/6 3/7/7 39/6/8
f 39/6/9 3/7/10 4/10/11 40/9/12
f 45/11/13 5/12/14 1/4/15 37/1/16
f 44/13/17 6/16/18 5/15/19 45/14/20
f 43/17/21 7/18/22 6/16/23 44/13/24
f 42/19/25 8/20/26 7/18/27 43/17/28
f 41/21/29 9/24/30 8/23/31 42/22/32
f 40/25/33 4/26/34 9/24/35 41/21/36
f 64/27/37 19/30/38 20/29/39 65/28/40
f 65/31/41 20/34/42 21/33/43 66/32/44
f 66/32/45 21/33/46 22/36/47 67/35/48
f 67/37/49 22/40/50 23/39/51 68/38/52
f 68/38/53 23/39/54 24/42/55 69/41/56
f 69/43/57 24/46/58 25/45/59 70/44/60
f 70/44/61 25/45/62 26/48/63 71/47/64
f 71/47/65 26/48/66 27/50/67 72/49/68
f 72/51/69 27/52/70 19/30/71 64/27/72
f 46/53/73 28/56/74 29/55/75 47/54/76
f 47/57/77 29/60/78 30/59/79 48/58/80
f 48/58/81 30/59/82 31/62/83 49/61/84
f 49/63/85 31/66/86 32/65/87 50/64/88
f 50/64/89 32/65/90 33/68/91 51/67/92
f 51/69/93 33/72/94 34/71/95 52/70/96
f 52/70/97 34/71/98 35/74/99 53/73/100
f 53/73/101 35/74/102 36/76/103 54/75/104
f 54/77/105 36/78/106 28/56/107 46/53/108
f 100/79/109 37/1/110 38/2/111 101/80/112
f 101/81/113 38/5/114 39/6/115 102/82/116
f 102/82/117 39/6/118 40/9/119 103/83/120
f 103/84/121 40/25/122 41/21/123 104/85/124
f 104/85/125 41/21/126 42/22/127 105/86/128
f 105/87/129 42/19/130 43/17/131 106/88/132
f 106/88/133 43/17/134 44/13/135 107/89/136
f 107/89/137 44/13/138 45/14/139 108/90/140
f 108/91/141 45/11/142 37/1/143 100/79/144
f 55/92/145 46/95/146 47/94/147 56/93/148
f 56/96/149 47/99/150 48/98/151 57/97/152
f 57/97/153 48/98/154 49/101/155 58/100/156
f 58/102/157 49/105/158 50/104/159 59/103/160
f 59/103/161 50/104/162 51/107/163 60/106/164
f 60/108/165 51/111/166 52/110/167 61/109/168
f 61/109/169 52/110/170 53/113/171 62/112/172
f 62/112/173 53/113/174 54/115/175 63/114/176
f 63/116/177 54/117/178 46/95/179 55/92/180
f 19/30/181 55/92/182 56/93/183 20/29/184
f 20/34/185 56/96/186 57/97/187 21/33/188
f 21/33/189 57/97/190 58/100/191 22/36/192
f 22/40/193 58/102/194 59/103/195 23/39/196
f 23/39/197 59/103/198 60/106/199 24/42/200
f 24/46/201 60/108/202 61/109/203 25/45/204
f 25/45/205 61/109/206 62/112/207 26/48/208
f 26/48/209 62/112/210 63/114/211 27/50/212
f 27/52/213 63/116/214 55/92/215 19/30/216
f 73/118/217 64/27/218 65/28/219 74/119/220
f 74/120/221 65/31/222 66/32/223 75/121/224
f 75/121/225 66/32/226 67/35/227 76/122/228
f 76/123/229 67/37/230 68/38/231 77/124/232
f 77/124/233 68/38/234 69/41/235 78/125/236
f 78/126/237 69/43/238 70/44/239 79/127/240
f 79/127/241 70/44/242 71/47/243 80/128/244
f 80/128/245 71/47/246 72/49/247 81/129/248
f 81/130/249 72/51/250 64/27/251 73/118/252
f 82/131/253 73/118/254 74/119/255 83/132/256
f 83/133/257 74/120/258 75/121/259 84/134/260
f 84/134/261 75/121/262 76/122/263 85/135/264
f 85/136/265 76/123/266 77/124/267 86/137/268
f 86/137/269 77/124/270 78/125/271 87/138/272
f 87/139/273 78/126/274 79/127/275 88/140/276
f 88/140/277 79/127/278 80/128/279 89/141/280
f 89/141/281 80/128/282 81/129/283 90/142/284
f 90/143/285 81/130/286 73/118/287 82/131/288
f 91/144/289 82/131/290 83/132/291 92/145/292
f 92/146/293 83/133/294 84/134/295 93/147/296
f 93/147/297 84/134/298 85/135/299 94/148/300
f 94/149/301 85/136/302 86/137/303 95/150/304
f 95/150/305 86/137/306 87/138/307 96/151/308
f 96/152/309 87/139/310 88/140/311 97/153/312
f 97/153/313 88/140/314 89/141/315 98/154/316
f 98/154/317 89/141/318 90/142/319 99/155/320
f 99/156/321 90/143/322 82/131/323 91/144/324
f 10/157/325 91/144/326 92/145/327 11/158/328
f 11/159/329 92/146/330 93/147/331 12/160/332
f 12/160/333 93/147/334 94/148/335 13/161/336
f 13/162/337 94/149/338 95/150/339 14/163/340
f 14/163/341 95/150/342 96/151/343 15/164/344
f 15/165/345 96/152/346 97/153/347 16/166/348
f 16/166/349 97/153/350 98/154/351 17/167/352
f 17/167/353 98/154/354 99/155/355 18/168/356
f 18/169/357 99/156/358 91/144/359 10/157/360
f 28/56/361 100/79/362 101/80/363 29/55/364
f 29/60/365 101/81/366 102/82/367 30/59/368
f 30/59/369 102/82/370 103/83/371 31/62/372
f 31/66/373 103/84/374 104/85/375 32/65/376
f 32/65/377 104/85/378 105/86/379 33/68/380
f 33/72/381 105/87/382 106/88/383 34/71/384
f 34/71/385 106/88/386 107/89/387 35/74/388
f 35/74/389 107/89/390 108/90/391 36/76/392
f 36/78/393 108/91/394 100/79/395 28/56/396
