# This file uses centimeters as units for non-parametric coordinates.

g default
v -0.034938 -0.305431 1.108037
v 4.855998 -0.305431 -5.250384
v -0.034938 10.334131 1.108037
v 4.855998 10.334131 -5.250384
v -3.719941 -0.305431 0.000000
v 4.301952 -0.305431 0.000000
v -3.719941 8.258759 0.000000
v 4.301952 8.258759 0.000000
v 5.266032 -0.305431 -1.606590
v -0.830758 -0.305431 -5.341603
v 5.266032 7.327825 -1.606590
v -0.830758 7.327825 -5.341603
v -3.199989 -0.305431 -5.838449
v 0.299489 -0.305431 2.239524
v -3.199989 9.093107 -5.838449
v 0.299489 9.093107 2.239524
v 2.834254 -0.328350 -5.373857
v -5.023667 -0.328350 -2.405847
v 2.834254 8.639254 -5.373857
v -5.023667 8.639254 -2.405847
v 0.408867 -0.305431 0.301172
v 7.028601 -0.305431 -3.557735
v 0.408867 7.874940 0.301172
v 7.028601 7.874940 -3.557735
v -6.912779 -0.305431 -3.325749
v -1.173636 -0.305431 0.960658
v -6.912779 7.341987 -3.325749
v -1.173636 7.341987 0.960658
v -5.291272 -0.308685 -2.602135
v 4.109397 -0.305431 -0.873805
v -5.291272 9.580131 -2.602135
v 4.109397 9.898952 -0.873805
vt 0.000000 -0.019826
vt 0.936679 -0.019826
vt 0.000000 0.980174
vt 0.936679 0.980174
vt 0.000000 -0.019826
vt 0.936679 -0.019826
vt 0.936679 0.980174
vt 0.000000 0.980174
vt 0.000000 -0.019826
vt 0.936679 -0.019826
vt 0.936679 0.980174
vt 0.000000 0.980174
vt 0.000000 -0.019826
vt 0.936679 -0.019826
vt 0.936679 0.980174
vt 0.000000 0.980174
vt 0.000000 -0.019826
vt 0.936679 -0.019826
vt 0.936679 0.980174
vt 0.000000 0.980174
vt 0.000000 -0.019826
vt 0.936679 -0.019826
vt 0.936679 0.980174
vt 0.000000 0.980174
vt 0.000000 -0.019826
vt 0.936679 -0.019826
vt 0.936679 0.980174
vt 0.000000 0.980174
vt 0.000000 -0.019826
vt 0.936679 -0.019826
vt 0.936679 0.980174
vt 0.000000 0.980174
vn 0.792633 0.000000 0.609699
vn 0.792633 0.000000 0.609699
vn 0.792633 0.000000 0.609699
vn 0.792633 0.000000 0.609699
vn 0.000000 0.000000 1.000000
vn 0.000000 0.000000 1.000000
vn 0.000000 0.000000 1.000000
vn 0.000000 0.000000 1.000000
vn 0.522386 0.000000 -0.852709
vn 0.522386 0.000000 -0.852709
vn 0.522386 0.000000 -0.852709
vn 0.522386 0.000000 -0.852709
vn -0.917596 0.000000 0.397514
vn -0.917596 0.000000 0.397514
vn -0.917596 0.000000 0.397514
vn -0.917596 0.000000 0.397514
vn -0.353345 0.000000 -0.935493
vn -0.353345 0.000000 -0.935493
vn -0.353345 0.000000 -0.935493
vn -0.353345 0.000000 -0.935493
vn 0.503617 0.000000 0.863927
vn 0.503617 0.000000 0.863927
vn 0.503617 0.000000 0.863927
vn 0.503617 0.000000 0.863927
vn -0.598395 0.000000 0.801201
vn -0.598395 0.000000 0.801201
vn -0.598395 0.000000 0.801201
vn -0.598395 0.000000 0.801201
vn -0.180821 0.000000 0.983516
vn -0.180821 0.000000 0.983516
vn -0.180821 0.000000 0.983516
vn -0.180821 0.000000 0.983516
s off
g pPlane10
f 1/1/1 2/2/2 4/4/3 3/3/4
f 5/5/5 6/6/6 8/7/7 7/8/8
f 9/9/9 10/10/10 12/11/11 11/12/12
f 13/13/13 14/14/14 16/15/15 15/16/16
f 17/17/17 18/18/18 20/19/19 19/20/20
f 21/21/21 22/22/22 24/23/23 23/24/24
f 25/25/25 26/26/26 28/27/27 27/28/28
f 29/29/29 30/30/30 32/31/31 31/32/32
