# This file uses centimeters as units for non-parametric coordinates.

g default
v -51.457367 44.879743 -49.933613
v -51.457367 32.221853 -49.933613
v -51.457367 24.000128 -49.933613
v -51.457367 17.621076 -49.933613
v -27.353754 44.879743 -55.502369
v -27.576190 33.282736 -56.332569
v -27.472394 22.331617 -55.945164
v -27.576190 17.621076 -56.332569
v -39.524993 17.621076 -53.130879
v -19.390582 28.967703 -4.651295
v -19.169458 19.436552 -4.088764
v -19.002710 6.380367 -3.649861
v -18.176970 -0.563868 -4.720036
v -10.040350 -0.126936 -2.465519
v 0.085036 0.418495 0.362469
v 0.137118 6.569353 -1.304203
v 0.254538 12.411932 -2.611653
v 0.983603 29.535024 -5.077000
v -29.385090 33.887087 -18.951969
v -29.569625 23.389265 -19.822254
v -29.373729 11.827711 -19.217854
v -28.258928 6.762668 -18.022083
v -18.991781 6.058481 -17.665928
v -8.355278 5.807566 -16.964085
v -6.839607 10.612396 -18.456425
v -6.790578 18.034338 -19.479389
v -7.777191 34.279012 -20.666538
v -40.872848 38.370218 -35.076725
v -40.772548 27.986284 -37.126179
v -40.678592 18.162977 -36.836308
v -40.567022 9.685291 -35.245030
v -29.919758 9.899631 -36.764301
v -18.607303 9.312685 -38.120106
v -18.325794 17.109827 -37.843464
v -18.356312 26.368570 -38.535679
v -17.966025 38.558164 -38.797245
v -46.388736 42.355413 -42.819065
v -46.353641 30.193556 -42.729801
v -46.308672 21.204881 -42.591038
v -46.177662 14.736166 -42.760807
v -34.847476 14.805483 -45.093220
v -23.187947 14.892011 -47.338291
v -24.459704 19.831045 -46.910420
v -24.528415 29.971735 -47.443730
v -22.858227 42.445413 -47.502766
v -35.536228 35.932482 -27.586018
v -35.426033 25.850748 -27.305714
v -35.284729 15.219942 -26.869709
v -34.849319 7.539013 -27.244145
v -24.843196 8.284172 -27.892170
v -13.844743 7.723778 -28.292088
v -11.750419 14.477049 -29.242970
v -11.743980 22.882509 -30.088825
v -13.232824 36.215189 -30.374668
v -31.712474 34.028139 -22.218815
v -31.913132 24.320612 -23.130055
v -31.737902 13.111219 -22.589375
v -30.752520 7.056413 -21.511387
v -21.205772 7.036009 -21.535237
v -10.432314 6.604582 -21.250233
v -8.446132 12.590631 -22.703571
v -8.413211 20.384706 -23.659535
v -9.841434 34.378740 -24.339787
v -28.316671 31.839186 -17.452320
v -28.156504 22.961721 -17.044880
v -27.951114 11.238497 -16.411198
v -27.168417 5.970194 -16.583271
v -18.036442 5.405596 -16.058796
v -7.442325 5.361807 -15.089939
v -5.916324 10.085298 -16.629231
v -5.859899 17.336408 -17.682972
v -6.829589 32.250082 -18.980305
v -26.949006 31.158048 -15.532597
v -26.779373 22.414427 -15.101093
v -26.561846 10.484258 -14.429966
v -25.772463 4.955761 -14.741444
v -16.784134 4.614570 -13.917134
v -6.273689 4.473982 -12.690937
v -4.947767 10.240608 -14.391483
v -4.881858 17.273039 -15.484593
v -5.616569 31.593229 -16.821751
v -24.094545 31.252241 -11.525944
v -22.957021 21.272169 -11.298222
v -22.714172 8.910084 -10.548954
v -22.858987 2.838537 -10.897450
v -14.197343 2.694988 -9.524494
v -3.834604 3.859140 -7.683918
v -2.481098 8.832384 -9.509785
v -2.395425 15.408415 -10.685093
v -3.084875 31.738107 -12.316715
v -21.294259 29.915788 -7.323353
v -20.138159 20.198332 -7.048420
v -19.988314 7.430200 -6.661610
v -20.120001 0.848133 -7.283680
v -11.765506 1.401737 -5.394993
v -1.541616 2.093345 -2.976750
v -1.507925 7.508512 -4.559895
v -1.403696 13.655477 -5.812489
v -0.704820 30.449308 -8.081486
v -44.015715 39.935461 -39.488194
v -43.937166 29.243952 -41.592976
v -43.871109 19.896208 -41.389179
v -43.763894 11.929601 -39.527424
v -32.727492 12.178766 -41.509953
v -21.217279 12.491697 -43.372471
v -22.409059 18.660333 -42.852024
v -22.461340 28.421598 -43.453724
v -20.753525 40.067598 -43.757481
vt 0.574944 0.570457
vt 0.546079 0.459663
vt 0.631299 0.457165
vt 0.660648 0.573037
vt 0.523610 0.378116
vt 0.611810 0.381854
vt 0.507093 0.319401
vt 0.595944 0.323454
vt 0.179671 0.569949
vt 0.085642 0.775508
vt 0.000000 0.773366
vt 0.090929 0.558761
vt 0.106154 0.171717
vt 0.089368 0.288866
vt 0.000000 0.294370
vt 0.013482 0.185439
vt 0.129890 0.079362
vt 0.037309 0.084246
vt 0.140856 0.032337
vt 0.042781 0.039842
vt 0.118445 0.888684
vt 0.150977 0.995682
vt 0.053425 1.000000
vt 0.026874 0.886657
vt 0.087546 0.784146
vt 0.000000 0.773469
vt 0.264082 0.549674
vt 0.238820 0.469711
vt 0.268181 0.466184
vt 0.285822 0.563984
vt 0.205096 0.364423
vt 0.235106 0.362086
vt 0.189574 0.316787
vt 0.208042 0.319730
vt 0.405843 0.822351
vt 0.450851 0.896080
vt 0.432150 0.895524
vt 0.387442 0.820102
vt 0.504147 0.981023
vt 0.484125 0.981577
vt 0.493403 0.010740
vt 0.477306 0.056903
vt 0.457457 0.057742
vt 0.473121 0.010683
vt 0.455348 0.122306
vt 0.435406 0.124960
vt 0.412389 0.257113
vt 0.390643 0.272242
vt 0.505402 0.614336
vt 0.400886 0.788350
vt 0.375457 0.783195
vt 0.479855 0.607638
vt 0.387738 0.557357
vt 0.360516 0.466045
vt 0.467101 0.458678
vt 0.478074 0.557614
vt 0.331311 0.369906
vt 0.441277 0.370015
vt 0.313589 0.299573
vt 0.408591 0.295773
vt 0.281646 0.805327
vt 0.318930 0.892274
vt 0.221224 0.889397
vt 0.187855 0.793546
vt 0.364554 0.985485
vt 0.260847 0.989423
vt 0.352294 0.005250
vt 0.340996 0.071457
vt 0.236073 0.074640
vt 0.247846 0.001861
vt 0.318460 0.147541
vt 0.213333 0.159503
vt 0.283564 0.268910
vt 0.189517 0.272053
vt 0.373396 0.595224
vt 0.273034 0.781718
vt 0.183408 0.779893
vt 0.280414 0.583937
vt 0.531794 0.557994
vt 0.519650 0.456767
vt 0.495830 0.372855
vt 0.463127 0.303212
vt 0.133706 0.787179
vt 0.164886 0.888181
vt 0.198271 0.992823
vt 0.187323 0.019615
vt 0.173753 0.077176
vt 0.150423 0.165879
vt 0.133806 0.275337
vt 0.225373 0.577126
vt 0.130302 0.778656
vt 0.322821 0.555710
vt 0.307264 0.465039
vt 0.275680 0.363896
vt 0.247987 0.312110
vt 0.347391 0.814641
vt 0.389051 0.894332
vt 0.438791 0.982929
vt 0.427296 0.008959
vt 0.412039 0.067900
vt 0.389684 0.138229
vt 0.351368 0.265323
vt 0.440362 0.603502
vt 0.337643 0.783276
vt 0.240894 0.549110
vt 0.215826 0.470423
vt 0.181315 0.363368
vt 0.165905 0.313196
vt 0.429399 0.825162
vt 0.475443 0.896760
vt 0.530544 0.979879
vt 0.519923 0.007998
vt 0.499562 0.062619
vt 0.477640 0.126211
vt 0.436551 0.255660
vt 0.529361 0.617248
vt 0.423996 0.788879
vt 0.196156 0.561751
vt 0.164014 0.472781
vt 0.127770 0.361780
vt 0.116776 0.305502
vt 0.478557 0.830747
vt 0.526927 0.897780
vt 0.583179 0.980313
vt 0.573054 0.013794
vt 0.552536 0.060587
vt 0.530932 0.119169
vt 0.484096 0.266661
vt 0.577831 0.622042
vt 0.470352 0.788494
vt 0.146746 0.561995
vt 0.115099 0.475207
vt 0.080922 0.359621
vt 0.070710 0.298091
vt 0.524790 0.835602
vt 0.573770 0.899769
vt 0.635109 0.977752
vt 0.624804 0.008160
vt 0.601281 0.055964
vt 0.580016 0.111412
vt 0.531454 0.263816
vt 0.624829 0.627842
vt 0.519507 0.790978
vt 0.114504 0.561203
vt 0.084936 0.475879
vt 0.049533 0.357686
vt 0.038173 0.292010
vt 0.557690 0.838403
vt 0.608914 0.899186
vt 0.673368 0.974510
vt 0.662318 0.000000
vt 0.636774 0.054322
vt 0.615642 0.106801
vt 0.565051 0.262239
vt 0.658170 0.631952
vt 0.551671 0.791794
vn 0.798807 0.010035 -0.601503
vn 0.773067 0.010318 -0.634241
vn 0.815733 -0.001476 -0.578427
vn 0.815073 -0.000931 -0.579358
vn 0.773067 0.010318 -0.634241
vn 0.745024 -0.004547 -0.667023
vn 0.816341 0.003725 -0.577559
vn 0.815733 -0.001476 -0.578427
vn 0.745024 -0.004547 -0.667023
vn 0.749829 -0.022546 -0.661248
vn 0.814982 0.015965 -0.579267
vn 0.816341 0.003725 -0.577559
vn -0.074362 -0.920693 -0.383138
vn -0.067234 -0.939052 -0.337136
vn -0.057998 -0.958862 -0.277884
vn -0.057998 -0.958862 -0.277884
vn -0.911119 0.047814 0.409360
vn -0.891581 0.073811 0.446805
vn -0.904116 0.057524 0.423397
vn -0.921023 0.039124 0.387538
vn -0.928533 -0.053503 0.367375
vn -0.911119 0.047814 0.409360
vn -0.921023 0.039124 0.387538
vn -0.944160 -0.033261 0.327804
vn -0.920125 -0.183218 0.346123
vn -0.928533 -0.053503 0.367375
vn -0.944160 -0.033261 0.327804
vn -0.929535 -0.141285 0.340593
vn 0.073781 0.922189 0.379636
vn 0.068332 0.922793 0.379189
vn 0.060970 0.958211 0.279488
vn 0.066398 0.952841 0.296118
vn 0.078172 0.923701 0.375054
vn 0.073781 0.922189 0.379636
vn 0.066398 0.952841 0.296118
vn 0.070666 0.948378 0.309169
vn 0.852213 0.003791 -0.523182
vn 0.855029 -0.007613 -0.518525
vn 0.842487 0.003011 -0.538708
vn 0.830018 0.029360 -0.556964
vn 0.855029 -0.007613 -0.518525
vn 0.854997 0.024000 -0.518077
vn 0.849907 0.010228 -0.526833
vn 0.842487 0.003011 -0.538708
vn 0.854997 0.024000 -0.518077
vn 0.844732 0.134009 -0.518140
vn 0.847653 0.076383 -0.525024
vn 0.849907 0.010228 -0.526833
vn 0.034180 0.914024 0.404217
vn 0.001141 0.931859 0.362818
vn 0.025130 0.970702 0.238968
vn 0.036844 0.981628 0.187213
vn 0.001141 0.931859 0.362818
vn -0.024251 0.938088 0.345548
vn 0.006933 0.968272 0.249803
vn 0.025130 0.970702 0.238968
vn -0.809167 0.373177 0.453859
vn -0.865135 0.219834 0.450793
vn -0.857149 0.238466 0.456541
vn -0.787016 0.392064 0.476331
vn -0.865135 0.219834 0.450793
vn -0.893454 0.017165 0.448827
vn -0.906818 0.004603 0.421498
vn -0.857149 0.238466 0.456541
vn -0.893454 0.017165 0.448827
vn -0.889079 -0.016126 0.457470
vn -0.906433 -0.042899 0.420165
vn -0.906818 0.004603 0.421498
vn -0.022152 -0.844635 -0.534885
vn -0.033639 -0.757434 -0.652044
vn -0.004788 -0.959982 -0.280021
vn -0.020804 -0.877289 -0.479511
vn 0.840316 0.042873 -0.540399
vn 0.841749 0.012441 -0.539726
vn 0.851724 0.034571 -0.522849
vn 0.845011 0.078023 -0.529026
vn 0.841749 0.012441 -0.539726
vn 0.834115 -0.004473 -0.551572
vn 0.847234 -0.028995 -0.530428
vn 0.851724 0.034571 -0.522849
vn 0.834115 -0.004473 -0.551572
vn 0.831714 0.012853 -0.555055
vn 0.835928 -0.033740 -0.547801
vn 0.847234 -0.028995 -0.530428
vn -0.023425 0.976573 0.213910
vn 0.021450 0.986295 0.163591
vn 0.033957 0.955447 0.293204
vn 0.016215 0.942419 0.334040
vn 0.021450 0.986295 0.163591
vn 0.053110 0.988122 0.144205
vn 0.065856 0.971067 0.229547
vn 0.033957 0.955447 0.293204
vn -0.820908 0.241866 0.517312
vn -0.830773 0.135532 0.539859
vn -0.804799 0.054373 0.591051
vn -0.836463 0.095426 0.539651
vn -0.830773 0.135532 0.539859
vn -0.844270 -0.008564 0.535850
vn -0.804923 0.022595 0.592948
vn -0.804799 0.054373 0.591051
vn -0.844270 -0.008564 0.535850
vn -0.852973 -0.042057 0.520259
vn -0.821301 0.023695 0.570002
vn -0.804923 0.022595 0.592948
vn -0.024074 -0.957789 -0.286461
vn -0.026452 -0.959976 -0.278831
vn -0.036285 -0.959569 -0.279125
vn -0.032955 -0.960788 -0.275317
vn 0.774258 0.092941 -0.626008
vn 0.745782 0.051802 -0.664173
vn 0.773067 0.010318 -0.634241
vn 0.798807 0.010035 -0.601503
vn 0.745782 0.051802 -0.664173
vn 0.733062 -0.048095 -0.678459
vn 0.745024 -0.004547 -0.667023
vn 0.773067 0.010318 -0.634241
vn 0.733062 -0.048095 -0.678459
vn 0.757557 -0.113078 -0.642901
vn 0.749829 -0.022546 -0.661248
vn 0.745024 -0.004547 -0.667023
vn 0.079763 0.851889 0.517612
vn 0.072365 0.870914 0.486079
vn 0.073781 0.922189 0.379636
vn 0.078172 0.923701 0.375054
vn 0.072365 0.870914 0.486079
vn 0.075404 0.876419 0.475610
vn 0.068332 0.922793 0.379189
vn 0.073781 0.922189 0.379636
vn -0.869012 -0.119964 0.480028
vn -0.843020 -0.036751 0.536626
vn -0.928533 -0.053503 0.367375
vn -0.920125 -0.183218 0.346123
vn -0.843020 -0.036751 0.536626
vn -0.826497 0.068796 0.558721
vn -0.911119 0.047814 0.409360
vn -0.928533 -0.053503 0.367375
vn -0.826497 0.068796 0.558721
vn -0.825820 0.106674 0.553753
vn -0.891581 0.073811 0.446805
vn -0.911119 0.047814 0.409360
vn -0.062774 -0.924777 -0.375296
vn -0.074406 -0.901221 -0.426924
vn -0.067234 -0.939052 -0.337136
vn -0.074362 -0.920693 -0.383138
vn 0.804099 0.023211 -0.594042
vn 0.793533 0.002572 -0.608522
vn 0.841749 0.012441 -0.539726
vn 0.840316 0.042873 -0.540399
vn 0.793533 0.002572 -0.608522
vn 0.798249 0.011214 -0.602224
vn 0.834115 -0.004473 -0.551572
vn 0.841749 0.012441 -0.539726
vn 0.798249 0.011214 -0.602224
vn 0.808833 0.045967 -0.586239
vn 0.831714 0.012853 -0.555055
vn 0.834115 -0.004473 -0.551572
vn -0.017880 0.987188 0.158556
vn 0.025690 0.986975 0.158811
vn 0.021450 0.986295 0.163591
vn -0.023425 0.976573 0.213910
vn 0.025690 0.986975 0.158811
vn 0.033288 0.983598 0.177275
vn 0.053110 0.988122 0.144205
vn 0.021450 0.986295 0.163591
vn -0.802380 0.363550 0.473305
vn -0.867328 0.201113 0.455298
vn -0.830773 0.135532 0.539859
vn -0.820908 0.241866 0.517312
vn -0.867328 0.201113 0.455298
vn -0.898549 -0.017987 0.438504
vn -0.844270 -0.008564 0.535850
vn -0.830773 0.135532 0.539859
vn -0.898549 -0.017987 0.438504
vn -0.896088 -0.068172 0.438611
vn -0.852973 -0.042057 0.520259
vn -0.844270 -0.008564 0.535850
vn -0.003650 -0.984327 -0.176315
vn -0.012442 -0.969562 -0.244531
vn -0.026452 -0.959976 -0.278831
vn -0.024074 -0.957789 -0.286461
vn 0.830018 0.029360 -0.556964
vn 0.842487 0.003011 -0.538708
vn 0.793533 0.002572 -0.608522
vn 0.804099 0.023211 -0.594042
vn 0.842487 0.003011 -0.538708
vn 0.849907 0.010228 -0.526833
vn 0.798249 0.011214 -0.602224
vn 0.793533 0.002572 -0.608522
vn 0.849907 0.010228 -0.526833
vn 0.847653 0.076383 -0.525024
vn 0.808833 0.045967 -0.586239
vn 0.798249 0.011214 -0.602224
vn 0.036844 0.981628 0.187213
vn 0.025130 0.970702 0.238968
vn 0.025690 0.986975 0.158811
vn -0.017880 0.987188 0.158556
vn 0.025130 0.970702 0.238968
vn 0.006933 0.968272 0.249803
vn 0.033288 0.983598 0.177275
vn 0.025690 0.986975 0.158811
vn -0.787016 0.392064 0.476331
vn -0.857149 0.238466 0.456541
vn -0.867328 0.201113 0.455298
vn -0.802380 0.363550 0.473305
vn -0.857149 0.238466 0.456541
vn -0.906818 0.004603 0.421498
vn -0.898549 -0.017987 0.438504
vn -0.867328 0.201113 0.455298
vn -0.906818 0.004603 0.421498
vn -0.906433 -0.042899 0.420165
vn -0.896088 -0.068172 0.438611
vn -0.898549 -0.017987 0.438504
vn -0.020804 -0.877289 -0.479511
vn -0.004788 -0.959982 -0.280021
vn -0.012442 -0.969562 -0.244531
vn -0.003650 -0.984327 -0.176315
vn 0.780451 0.015487 -0.625026
vn 0.760070 -0.003958 -0.649830
vn 0.855029 -0.007613 -0.518525
vn 0.852213 0.003791 -0.523182
vn 0.760070 -0.003958 -0.649830
vn 0.749091 0.010668 -0.662381
vn 0.854997 0.024000 -0.518077
vn 0.855029 -0.007613 -0.518525
vn 0.749091 0.010668 -0.662381
vn 0.781360 0.091548 -0.617330
vn 0.844732 0.134009 -0.518140
vn 0.854997 0.024000 -0.518077
vn -0.005558 0.903846 0.427822
vn -0.040967 0.919004 0.392115
vn 0.001141 0.931859 0.362818
vn 0.034180 0.914024 0.404217
vn -0.040967 0.919004 0.392115
vn -0.079088 0.945585 0.315616
vn -0.024251 0.938088 0.345548
vn 0.001141 0.931859 0.362818
vn -0.810155 0.356964 0.465001
vn -0.866156 0.190982 0.461844
vn -0.865135 0.219834 0.450793
vn -0.809167 0.373177 0.453859
vn -0.866156 0.190982 0.461844
vn -0.886115 0.020727 0.463001
vn -0.893454 0.017165 0.448827
vn -0.865135 0.219834 0.450793
vn -0.886115 0.020727 0.463001
vn -0.885099 -0.000996 0.465401
vn -0.889079 -0.016126 0.457470
vn -0.893454 0.017165 0.448827
vn 0.017168 -0.998065 -0.059755
vn 0.010125 -0.987725 -0.155876
vn -0.033639 -0.757434 -0.652044
vn -0.022152 -0.844635 -0.534885
vn 0.798344 0.054041 -0.599772
vn 0.780696 0.014755 -0.624737
vn 0.760070 -0.003958 -0.649830
vn 0.780451 0.015487 -0.625026
vn 0.780696 0.014755 -0.624737
vn 0.782295 0.005281 -0.622886
vn 0.749091 0.010668 -0.662381
vn 0.760070 -0.003958 -0.649830
vn 0.782295 0.005281 -0.622886
vn 0.797078 0.046867 -0.602055
vn 0.781360 0.091548 -0.617330
vn 0.749091 0.010668 -0.662381
vn -0.050464 0.888909 0.455297
vn -0.100149 0.918005 0.383714
vn -0.040967 0.919004 0.392115
vn -0.005558 0.903846 0.427822
vn -0.100149 0.918005 0.383714
vn -0.140507 0.918592 0.369387
vn -0.079088 0.945585 0.315616
vn -0.040967 0.919004 0.392115
vn -0.858203 0.293255 0.421294
vn -0.903218 0.189661 0.385002
vn -0.866156 0.190982 0.461844
vn -0.810155 0.356964 0.465001
vn -0.903218 0.189661 0.385002
vn -0.914610 0.044031 0.401932
vn -0.886115 0.020727 0.463001
vn -0.866156 0.190982 0.461844
vn -0.914610 0.044031 0.401932
vn -0.903521 0.020782 0.428039
vn -0.885099 -0.000996 0.465401
vn -0.886115 0.020727 0.463001
vn 0.015842 -0.980597 -0.195393
vn 0.019213 -0.995559 -0.092155
vn 0.010125 -0.987725 -0.155876
vn 0.017168 -0.998065 -0.059755
vn 0.856873 0.073476 -0.510265
vn 0.871195 0.023144 -0.490391
vn 0.780696 0.014755 -0.624737
vn 0.798344 0.054041 -0.599772
vn 0.871195 0.023144 -0.490391
vn 0.880958 0.015302 -0.472947
vn 0.782295 0.005281 -0.622886
vn 0.780696 0.014755 -0.624737
vn 0.880958 0.015302 -0.472947
vn 0.862271 0.065507 -0.502192
vn 0.797078 0.046867 -0.602055
vn 0.782295 0.005281 -0.622886
vn -0.124351 0.872899 0.471789
vn -0.166190 0.869978 0.464241
vn -0.100149 0.918005 0.383714
vn -0.050464 0.888909 0.455297
vn -0.166190 0.869978 0.464241
vn -0.177945 0.859835 0.478559
vn -0.140507 0.918592 0.369387
vn -0.100149 0.918005 0.383714
vn -0.875899 0.179756 0.447759
vn -0.908296 0.153694 0.389071
vn -0.903218 0.189661 0.385002
vn -0.858203 0.293255 0.421294
vn -0.908296 0.153694 0.389071
vn -0.914604 0.077508 0.396853
vn -0.914610 0.044031 0.401932
vn -0.903218 0.189661 0.385002
vn -0.914604 0.077508 0.396853
vn -0.911714 0.063169 0.405941
vn -0.903521 0.020782 0.428039
vn -0.914610 0.044031 0.401932
vn 0.014290 -0.949601 -0.313134
vn 0.013048 -0.951300 -0.307992
vn 0.019213 -0.995559 -0.092155
vn 0.015842 -0.980597 -0.195393
vn 0.895367 0.044786 -0.443072
vn 0.934249 0.016318 -0.356249
vn 0.871195 0.023144 -0.490391
vn 0.856873 0.073476 -0.510265
vn 0.934249 0.016318 -0.356249
vn 0.930223 0.045604 -0.364151
vn 0.880958 0.015302 -0.472947
vn 0.871195 0.023144 -0.490391
vn 0.930223 0.045604 -0.364151
vn 0.898326 0.099625 -0.427884
vn 0.862271 0.065507 -0.502192
vn 0.880958 0.015302 -0.472947
vn -0.188833 0.807722 0.558505
vn -0.186352 0.826257 0.531575
vn -0.166190 0.869978 0.464241
vn -0.124351 0.872899 0.471789
vn -0.186352 0.826257 0.531575
vn -0.185632 0.831220 0.524037
vn -0.177945 0.859835 0.478559
vn -0.166190 0.869978 0.464241
vn -0.863012 0.142576 0.484647
vn -0.864517 0.134034 0.484402
vn -0.908296 0.153694 0.389071
vn -0.875899 0.179756 0.447759
vn -0.864517 0.134034 0.484402
vn -0.862394 0.111297 0.493851
vn -0.914604 0.077508 0.396853
vn -0.908296 0.153694 0.389071
vn -0.862394 0.111297 0.493851
vn -0.859327 0.106016 0.500317
vn -0.911714 0.063169 0.405941
vn -0.914604 0.077508 0.396853
vn 0.016174 -0.946969 -0.320917
vn 0.016174 -0.946969 -0.320917
vn 0.013048 -0.951300 -0.307992
vn 0.014290 -0.949601 -0.313134
vn 0.845011 0.078023 -0.529026
vn 0.851724 0.034571 -0.522849
vn 0.745782 0.051802 -0.664173
vn 0.774258 0.092941 -0.626008
vn 0.851724 0.034571 -0.522849
vn 0.847234 -0.028995 -0.530428
vn 0.733062 -0.048095 -0.678459
vn 0.745782 0.051802 -0.664173
vn 0.847234 -0.028995 -0.530428
vn 0.835928 -0.033740 -0.547801
vn 0.757557 -0.113078 -0.642901
vn 0.733062 -0.048095 -0.678459
vn 0.016215 0.942419 0.334040
vn 0.033957 0.955447 0.293204
vn 0.072365 0.870914 0.486079
vn 0.079763 0.851889 0.517612
vn 0.033957 0.955447 0.293204
vn 0.065856 0.971067 0.229547
vn 0.075404 0.876419 0.475610
vn 0.072365 0.870914 0.486079
vn -0.836463 0.095426 0.539651
vn -0.804799 0.054373 0.591051
vn -0.843020 -0.036751 0.536626
vn -0.869012 -0.119964 0.480028
vn -0.804799 0.054373 0.591051
vn -0.804923 0.022595 0.592948
vn -0.826497 0.068796 0.558721
vn -0.843020 -0.036751 0.536626
vn -0.804923 0.022595 0.592948
vn -0.821301 0.023695 0.570002
vn -0.825820 0.106674 0.553753
vn -0.826497 0.068796 0.558721
vn -0.032955 -0.960788 -0.275317
vn -0.036285 -0.959569 -0.279125
vn -0.074406 -0.901221 -0.426924
vn -0.062774 -0.924777 -0.375296
s off
g TunnelFromC2ToSector202:polySurface14StartingArea
f 37/1/1 38/2/2 2/3/3 1/4/4
f 38/2/5 39/5/6 3/6/7 2/3/8
f 39/5/9 40/7/10 4/8/11 3/6/12
f 45/9/13 37/10/14 1/11/15 5/12/16
f 44/13/17 45/14/18 5/15/19 6/16/20
f 43/17/21 44/13/22 6/16/23 7/18/24
f 42/19/25 43/17/26 7/18/27 8/20/28
f 41/21/29 42/22/30 8/23/31 9/24/32
f 40/25/33 41/21/34 9/24/35 4/26/36
f 64/27/37 65/28/38 20/29/39 19/30/40
f 65/28/41 66/31/42 21/32/43 20/29/44
f 66/31/45 67/33/46 22/34/47 21/32/48
f 67/35/49 68/36/50 23/37/51 22/38/52
f 68/36/53 69/39/54 24/40/55 23/37/56
f 69/41/57 70/42/58 25/43/59 24/44/60
f 70/42/61 71/45/62 26/46/63 25/43/64
f 71/45/65 72/47/66 27/48/67 26/46/68
f 72/49/69 64/50/70 19/51/71 27/52/72
f 46/53/73 47/54/74 29/55/75 28/56/76
f 47/54/77 48/57/78 30/58/79 29/55/80
f 48/57/81 49/59/82 31/60/83 30/58/84
f 49/61/85 50/62/86 32/63/87 31/64/88
f 50/62/89 51/65/90 33/66/91 32/63/92
f 51/67/93 52/68/94 34/69/95 33/70/96
f 52/68/97 53/71/98 35/72/99 34/69/100
f 53/71/101 54/73/102 36/74/103 35/72/104
f 54/75/105 46/76/106 28/77/107 36/78/108
f 100/79/109 101/80/110 38/2/111 37/1/112
f 101/80/113 102/81/114 39/5/115 38/2/116
f 102/81/117 103/82/118 40/7/119 39/5/120
f 103/83/121 104/84/122 41/21/123 40/25/124
f 104/84/125 105/85/126 42/22/127 41/21/128
f 105/86/129 106/87/130 43/17/131 42/19/132
f 106/87/133 107/88/134 44/13/135 43/17/136
f 107/88/137 108/89/138 45/14/139 44/13/140
f 108/90/141 100/91/142 37/10/143 45/9/144
f 55/92/145 56/93/146 47/54/147 46/53/148
f 56/93/149 57/94/150 48/57/151 47/54/152
f 57/94/153 58/95/154 49/59/155 48/57/156
f 58/96/157 59/97/158 50/62/159 49/61/160
f 59/97/161 60/98/162 51/65/163 50/62/164
f 60/99/165 61/100/166 52/68/167 51/67/168
f 61/100/169 62/101/170 53/71/171 52/68/172
f 62/101/173 63/102/174 54/73/175 53/71/176
f 63/103/177 55/104/178 46/76/179 54/75/180
f 19/30/181 20/29/182 56/93/183 55/92/184
f 20/29/185 21/32/186 57/94/187 56/93/188
f 21/32/189 22/34/190 58/95/191 57/94/192
f 22/38/193 23/37/194 59/97/195 58/96/196
f 23/37/197 24/40/198 60/98/199 59/97/200
f 24/44/201 25/43/202 61/100/203 60/99/204
f 25/43/205 26/46/206 62/101/207 61/100/208
f 26/46/209 27/48/210 63/102/211 62/101/212
f 27/52/213 19/51/214 55/104/215 63/103/216
f 73/105/217 74/106/218 65/28/219 64/27/220
f 74/106/221 75/107/222 66/31/223 65/28/224
f 75/107/225 76/108/226 67/33/227 66/31/228
f 76/109/229 77/110/230 68/36/231 67/35/232
f 77/110/233 78/111/234 69/39/235 68/36/236
f 78/112/237 79/113/238 70/42/239 69/41/240
f 79/113/241 80/114/242 71/45/243 70/42/244
f 80/114/245 81/115/246 72/47/247 71/45/248
f 81/116/249 73/117/250 64/50/251 72/49/252
f 82/118/253 83/119/254 74/106/255 73/105/256
f 83/119/257 84/120/258 75/107/259 74/106/260
f 84/120/261 85/121/262 76/108/263 75/107/264
f 85/122/265 86/123/266 77/110/267 76/109/268
f 86/123/269 87/124/270 78/111/271 77/110/272
f 87/125/273 88/126/274 79/113/275 78/112/276
f 88/126/277 89/127/278 80/114/279 79/113/280
f 89/127/281 90/128/282 81/115/283 80/114/284
f 90/129/285 82/130/286 73/117/287 81/116/288
f 91/131/289 92/132/290 83/119/291 82/118/292
f 92/132/293 93/133/294 84/120/295 83/119/296
f 93/133/297 94/134/298 85/121/299 84/120/300
f 94/135/301 95/136/302 86/123/303 85/122/304
f 95/136/305 96/137/306 87/124/307 86/123/308
f 96/138/309 97/139/310 88/126/311 87/125/312
f 97/139/313 98/140/314 89/127/315 88/126/316
f 98/140/317 99/141/318 90/128/319 89/127/320
f 99/142/321 91/143/322 82/130/323 90/129/324
f 10/144/325 11/145/326 92/132/327 91/131/328
f 11/145/329 12/146/330 93/133/331 92/132/332
f 12/146/333 13/147/334 94/134/335 93/133/336
f 13/148/337 14/149/338 95/136/339 94/135/340
f 14/149/341 15/150/342 96/137/343 95/136/344
f 15/151/345 16/152/346 97/139/347 96/138/348
f 16/152/349 17/153/350 98/140/351 97/139/352
f 17/153/353 18/154/354 99/141/355 98/140/356
f 18/155/357 10/156/358 91/143/359 99/142/360
f 28/56/361 29/55/362 101/80/363 100/79/364
f 29/55/365 30/58/366 102/81/367 101/80/368
f 30/58/369 31/60/370 103/82/371 102/81/372
f 31/64/373 32/63/374 104/84/375 103/83/376
f 32/63/377 33/66/378 105/85/379 104/84/380
f 33/70/381 34/69/382 106/87/383 105/86/384
f 34/69/385 35/72/386 107/88/387 106/87/388
f 35/72/389 36/74/390 108/89/391 107/88/392
f 36/78/393 28/77/394 100/91/395 108/90/396
